<mxfile host="65bd71144e">
    <diagram id="HIP3nbAZw_EuaXWnEj3U" name="Page-1">
        <mxGraphModel dx="702" dy="477" grid="1" gridSize="10" guides="1" tooltips="1" connect="1" arrows="1" fold="1" page="1" pageScale="1" pageWidth="850" pageHeight="1100" math="0" shadow="0">
            <root>
                <mxCell id="0"/>
                <mxCell id="1" parent="0"/>
                <mxCell id="7" value="http://ics2o.mths.ca" style="swimlane;whiteSpace=wrap;html=1;" parent="1" vertex="1">
                    <mxGeometry x="40" y="40" width="760" height="550" as="geometry"/>
                </mxCell>
                <mxCell id="8" value="&lt;font style=&quot;font-size: 34px;&quot;&gt;Museum Discount Checker&lt;/font&gt;" style="whiteSpace=wrap;html=1;" vertex="1" parent="7">
                    <mxGeometry y="20" width="760" height="50" as="geometry"/>
                </mxCell>
                <mxCell id="9" value="Enter your age" style="text;html=1;align=center;verticalAlign=middle;resizable=0;points=[];autosize=1;strokeColor=none;fillColor=none;fontSize=30;" vertex="1" parent="7">
                    <mxGeometry y="110" width="220" height="50" as="geometry"/>
                </mxCell>
                <mxCell id="10" value="" style="endArrow=none;html=1;fontSize=30;" edge="1" parent="7">
                    <mxGeometry width="50" height="50" relative="1" as="geometry">
                        <mxPoint y="230" as="sourcePoint"/>
                        <mxPoint x="340" y="230" as="targetPoint"/>
                    </mxGeometry>
                </mxCell>
                <mxCell id="11" value="Select a day of the week" style="text;html=1;align=center;verticalAlign=middle;resizable=0;points=[];autosize=1;strokeColor=none;fillColor=none;fontSize=30;" vertex="1" parent="7">
                    <mxGeometry y="280" width="350" height="50" as="geometry"/>
                </mxCell>
                <mxCell id="12" value="" style="shape=image;verticalLabelPosition=bottom;labelBackgroundColor=default;verticalAlign=top;aspect=fixed;imageAspect=0;image=data:image/png,iVBORw0KGgoAAAANSUhEUgAAASwAAACoCAIAAADVSURYAAAAIGNIUk0AAHomAACAhAAA+gAAAIDoAAB1MAAA6mAAADqYAAAXcJy6UTwAAAAGYktHRAD/AP8A/6C9p5MAAAABb3JOVAHPoneaAACAAElEQVR42pT9abBlV3YeiK1h732GO70x50wkCkChUECxUKxikRQptkQ1qclim5LVVLO73WFH2A71D3e7w3/cDtkRdoT/KKId0aGO/mF3h2SHZIptmZIoUSJFUiwOxaEmFICqQg0AEkhk5ss33/Gcs4e1/GOfe99LVFax+saLmyfvG+655+y11/R930JgCwKFogFAgATagSimoQX08Jlbu59+4dkbu+PrN/b++i/8T+2rrwIV8b0H//f/6r96+N79d7/9LUhRfEhtLBwmr9tbdVVVXdeUZZkkvH9/PtgCZqyRHZsSkVBFNWG0hROMAEAgRpSSWlFScKYAAAVARECFfACgpAAA+XnzIlBCEkQDACAGECCyAoA4Y4no7GxhnX3nnXD7riF25IomgheNMU6nC+/h+vWtnZ2dxWKBiIvFwlpbVRUAWGtVdTY7H44GAALf9VBVVd0cb16nhPlbIiIaRUREAKAsnfe+bdvJZHTr1i1mDtEPqppVJERgU9X18fHZu++997GPv0xEMUYAQBWFxAKAipIAIEa9fA4fes6XZXMgAMoGmQCAmckwABCasiy/9NpXn3/++dFkvFqtQNFam1IKooC8XLWvffXLq5WMRlZE0GDbxqqyiIgMzMxMRARMDFiCYXjiTVEBEXl9JpsHKgCo+IAGgTAheMAuxTZqkDSfr45P02hE+/v7GlBVDdJsdu44IQIQEhEiEpEiImIX/OZTC+j6IgAkBKAnrgwCAHQx9KeHCOsDQaoHo7bzAFAUBQB0XScIRVF47/NffuIKK0WfjHHEBhFbL8umXS6blU/OFqKYAJKAJEoqSSGirqJPTy4g7Z91c2zgezy8hxKgrmtEPD09nc1PPv/5z39stbr64z+lEgtrCmcK60KMPkbfQbPSOzdHxOBjIMNd8Mw82cHWK4hGigwoRL1dab6SDCAISEiGlXFjYh9eTJes7mKpISIA0vonGBBAUAlRAbALvm3jtevXTqezj39i+M67Z1s7ELrIRUXE2dJOTxeHh+eIuL+/f3h4OBwOnXMxRu+9qlpry7KE7/3oT0l1c0D65IsKiIiI2SaJiBlFJISQF3JKCUERUVRjjNbaGCMippQuzAz7g/WiVgCE7/tAfMoP5K0hfyvGSEQAICKqCtp/V1URoWkaALAW8pkTElH/QRAvLj4B5pfzUtq8/v1PjqwBkJA0gCgzs43tajpbLJaws8NFUYW2K8uaAFeLJoUOjUUEuLjjF58xf5zLO+D3+W7eVfv/ImZ7JuL5fD4YDIyxIXgRdc4BQOd93jo3NrxZb1U1ENEQo/ex9bH1IaXEACJRAEUJBBUSgBIgKfwgjw8Z4cUvOQfqIaUUYzSYlqv5F7/4hbfeffsjX/s2W7s4P2MVQk0xOObhLs+nHg3HFPb29uq6fvvtt6dzX5agCnlpGiRGYuo/GAESEgAQIgMwACMwoMqlO0oIAIIAAIQAAJjX38X9RlyvSEJARUYEFAAuy3LVzo6nU1dUQXTZgT+Jt57Zb0NgQEtsB8Pkw+FhNz09u7Z/pXKFsw4BFbAwNsUURYeDOgT/1EWvTz3A/gyJQUQJSEQQFRHWRsgppc63RemyEbIqGxNiCiEURZFSUtWUUr/gVAFURAH1kh3+QIbX2wOpaiIyACAxMbOgNE1jjFFViUmTILGIpJQUUFKaL6aqWpYW1k6AGRGVCAmJADkv4GybAASbewKI/dV6yqkiAKAhE1KMMQQVIoqSmqaZzUAUJqMRofE+OsO+7RaLmWUmIgC9fKPzWaECAmZPtTleezncbDebU7HW5M+YrYuIjDH5dhTOOFsQiu9i3hMtExkrCPmSSw5tEFDQGte1oevCctms2pRyfEYQU1IkUdW8o0G+MPiDbJrf7Qn7DYCIFPrTLYtSwU+n06PZ+bvvPrx+/WZYLUpDk0HlF7PlMvkm3by5e+3atbouHx48evTeu0JQjVxh2TeNIbDGWEOWjCUElIQMAAl0vSUpAxkC0j4AWC+jfCbZ5HSztBQ3a07zPkyAee/pb4NSF9LelavLzheDQdOFZ1/cOzmddiIqaCynlJh5e3tb5KRtw6NHj/b39733q9XKOTccDheLhfeeeRAjPn1FrXfZDx0QUr4Rl36W1j+gxhgRadt2MBgYY1L0UcAa0hiC6mBYIGIIIVssAKAqqSoIiagm7e/rn26Klw/yssvemJlFZLlcZs/QvxdSSimlJAghymKxAIAcFGT3l9fr2nsQETESITEiK9J3vSkA5B32ux/KnKIoEjOHGGfL1XKZQGFnC1NKxFiXhaSwnE9B4mA4QtKLja4Pd1W+6yNvPB7ixf3qTRE/fEGQiJmttcaY0XAoIoa1GNQtt8u2s9btjHdSElENojHGEGNKGiQp4WrZdl1oW9+1KUYAAOT+1qtIDgsIqU8FkCDBn/pgIAYFc2G2mgAAVaIagE88e2NvNCBNKXk04JxDEaParVaVdZPBsCoK3y3bNv3Nv/nzb7/99nA8Luv69HyKxjQ+KCQUsQAFskU0igiqItIH64qoDGgBDZJR6lcwIRIBZXdJm0CIiHI4REh5ayQkA/3Jc/+jimiUMCQphyM0xfsPD+rxlqlrV4/Ozmdd1w4GJRHGFKq6rAeV983JaTMaF8YwIigIESoIYo5hJL/p93rA5UgM80lsbrnAOn5ebyL571NRFNZaSRGSGMMhxKRaltXxyal1zhjTry0RUAFQEFnvqZeNUDfP63OBy+cDBIQkKkwIKiEmY4xoOj07ccZWZaGAKSUmAtWYogIsFsuj42MRcc5tVpJlY4gYiRkNs2FmIsPIiIzEir17hPXB97hWiiSAbUhKxNYuVs3J6cp7GI5gb28veG/ZOObp2VkMfjSs8x25uNR64WZ14+r14hgBEQhA13mfbl4VlXwrmck6U5SuKF3h7KByDIqoltEZW1XV7s7u/v6VtusQManGGH1IjQ9t27VNNztfdF0IIQIgMuTPDAhJ11EAAZESAZGi4SaIAn7/sPSpOaEAAiOAQM5PFNU6Thpj6NRLJypd5zUNB4P97a2CqQvx7t07X/jSF7d3d6LI7PU3kko9HGgMlCIBgCZIKCgQQTVFVHIGBIlAjAiQkuaNTunSzkqXdtb++GKtISIpcJ/xAwIqCiIJoiLVg2q5atqod557LgEv2u5oOi2q+nS22IqxLMuUUgjBOTcYDFar6aNHB3fu3N7a2jo/P5/P52VZVlWVUswZ5vd3PpfTDyLKPmezdIhINSFyjBFQmTnG2HVdURSIKBpjZAAQiSnEyWgwPTut61uqCpIIREFRsmtVgJSj3e9/Ph/a+Dd1hZxqapLlcrm3OxARCSF/N+cdZOx8Ps9hQv4I2R8y93WR3uqQmJgQCJFSNnbU73I4Tzk3wE5UiQUxxtT6ECM4B5PRyBkbjbXMTbtaLf147HYmk+l06pwTvFQGU5U+9uljtrwg1p5Qn/K+2H92Znb5URZFURhjGAFiHNRFiupjKAo32dop6oEorhaLIOJ9XHa+abpl03ofUwK/AkNAhogQCVU1qYioQRDso/PsCgDA0J8SiK6NEOX7fDt/JOuMsfWincfQlmAdqivLtm0bkRiSZRyNtv/Zr/zKaDQwzr35+le/8UH4kR/a//N/4S986Q8/H0+PK1CH7ABYAUSjAICGGIFJczRPIMr9NWUE2tzIi9PInoT0IjfI/saoIOSU8QmfBQDGlVVl79x99pvvvNdGmS6areGgKHi1WOaiQOi8JqnL6sY1c//+yex8WrqiLqsUosSExqooEjy1Onr5Zq8rXX1gnLcTREAkRBCIgMTMXdsQkbFWUvRtI3XljEkKMcYcsnrvx+Pxo2+/fevWrZwcZttTzRaoqkrM3/9mfejcemeRf1miahKRdtWYawQoGtOmbqRJkHQ+nwOIIRN9l9118C1TkcOQtQUCoRKSQUKQtfd54pY9feNCkgRgTPRxPp83na+HVNeVcy6lVFgbQhe6djw0g6pI0RMDEeH688d1BpjTP1KVvANq7xkvl4gvCmZ91oPW2sFgMBwOq0HtnCMiAqUUVFMIyUZXFKUxZrFYTGeL2WwWBEJITYhd6zsfQwIJQJSTH0YEVVDJOWDvEpEAEYgAEJA00ffbLi8Z4Ycfkj1LErAAk8lkOKwwrkSiMTQYTriNpKCaCLR0Voz1MRDI3bt3Hp+cHj1+9D/7hX//P//fP/P8p16Fa1f/6d/9u7/3L/5ZockBGUVOKinEZAJIt5qDKhgUZFFQVgXNccUm+fvQxobrAH/zImnedyDvg4yY1habUqpHE7XF3/tv/tU5wFYNn3z1ztHBo5uTyfnhqfd+Z2dHVbuuG4/H4/H45OTk+HjGzNevX0fE2WzWdZ1zNvuV77XiL2eDl12Q6qUYFVBVmXORBplZJMYYU0rkTAKRJMSWFEL0VVV1DfQtilx3UAUQ0FzoJgR4amzzdM9zaTn2/hlAVWNMjLSp2cK6dqogbbfKWV/X+bJEYwn6Wmje9ZBRcxTGitgXpQH6tHzdW7p0Hz90PgmEbBHabrZcpSS7u1tVVUbvURUU2lVDRPt7O03TTKdn4/FY1tWoy+HGd0cniLg2Ns3bMj5pkzkJrKpqNBrVw4FzDhFB0mRYTc9O29YPRyURn55NHx0eTWeLLkgCjAEkCQAxE6iKBUKLki9mSqqifRWVs3EiAAORrrMn/EFcIQMBgBrFi5wQARCMQoXw/I3dUcGVo5R86xtriZMYAEJw1hICIBq2hMSWFaDr/OPDx3v7+7dffglmZwfvv4ddszMcVNYxAKSULwozgmEiarsgKlVVaki+C8NhDYy52CKqiEjM1hhrrYSQd55+jasiAAkY6p0/MuaMiRCFCNm00V+5dv0zP/biz/+1f+ev/dzPzpfLrm0qptKSc5bXlbccpF29euXo6HQ2a69d2/HeG8MA4AojEtep3RNfm5QDEYgwfzGTihBozg6YgAmZyDD7rhsOBoO6VEkxBBVhAssmX/YYExEvV01RFo8eHV29sqWSIO/xCAi5MgmIlJKIpPylKk/92vxAktS2nTM2hRBDsM6GELzvmma1tbVt2CSJbKhZrlIMhbPvvfd+5z0iAUpRWEJQkbIoCKEuS8NsDRliJiaCHLKw9Elgzgb7yljeRFSNtWVZJtDlahVTsmXVJY0CBwcHs1m6sjscDgYheEaqq1pCdNYY5q5rvfd94q8IqrK2PexLpSiqzOysLZzjnEKrqggxI4GxXBTOFRYRYgoxhitXrzzzzJ29vd3BoN7d2x0Maufs3u6uYVSAEIMkBcKm86PRuK4Ht+/cdWXpu9i0bedDjBojhACg+bon7VcyMREbzIk8MzAjIRICIQjSok0KRkBzct9vWEjQl/oRAc33MVAiyDWxvhzCsM5wshdSRGJQAQUCSIIploUllT/5w89/61tvCcLp44M6diDCzGVZWqDgfRc6L8DMw8m4imG1WoUQNEZMsmw6cgQofSFuXY7LsQQAIMjF3gaICgYBUFDzwkdBAGQkIOdOHh9ev+V/+id/5tpf/qvAbrFYHD64v+OM3d5q23Y+n3vvc5FwOp16769f3wkhvP76Nz/1qY8vFgtmjn2H93tuZx+KABHgySb15vi7XDriJs8hIkqCII5JRQYDms/ndV0DAKCSCqHmkBj77eAHCnIAgBQMc3Yj2eMx83Q6q8qyfxEunMamOQmXvFm++/lDEWhuAiEIKyFi3zhf/w6sHaMolGWZm5Bd14UUjTF5yyOiB48edl3c3XVFURBi6QoJcXZ2/ujR7NVPPffgwYN6ONweVkz29PTUkoV1k6C/XDm69j6fc0pJAHIFOC+b3IfIH0dEiqIYjUY3bty4cuXK9vY2IubzKcvSGHPwaHHnmWe/9rWvb+9tI9r5ynsvWzv79z94OFssZ8tl1wYRIOjjzHWARpC3/tz3BgUUAMG+ZKR563z6mvmu5bQxwqekPcaAdcyM+doxMzODXMoi++vOAJBiiF1Hzjl2oWsPPrhvnLWoMUYCcc4QsxoTOsOeKYYU0JaFBJTVUpNatoTaBV8Xla49C4CKSBBRVdsnijkzXC9tgAQKCn3eALkSpZrIMhVMjx8++L3f/u2fELlx+25YzgtURkAQ0CQpSApgiJmVsVkt7ty5c3h4iADvv/fu3bt327aNjbAh+N6R3lNaAtS3vLO3zuERABIRkq4r5JCThRijNUwEbFABc59wZ2fn+Pj4mWee2Xze3rwBZd0Ge9r5PN0ODbFqUkjGGklQGDubTXd3d3NNAQAIkBhiTN5Lb6vUr+bs5Ln3ckCKhJSzwdzmpX6byNtMtvv+bMvSpZRa33Vdp4TWGUAMISwWq/m0qxzsbE0I0FpTGHvWnqWUXnzx1oNHjwejiSuLmOT9Bx/cunGjmS1gXZLp4QQACZSIRCRq2nTV8zkzU0oxpZgXDwBsbY339/ef/cjdqqp2d3fLsuy8z2W52WxeDsa/98dfAoBqsrOYL4TsaGv4zr333n//YRtC24YUc6hNBpFIgDf3XdeZPwLm7Qw3zVJFQFXuDRVRv1ca8YQRbh6bngxYCzl/RRRmsmjRsIoqZcOTfh/VXP6MzrJCiu3KFeVwUCtC166YgIFJkXvsEXFhnUpazpfN6vT8vGn8oLBVWVjFFLrhZIy4zq9UUkoSk4oYzqGObLbbDI9aNQtEzJsIY7+XKOLsPIzqyhJ+882v3nv37as3b52enofVQng4ny+apsk5xmq1yvm6MaZpmrIsb93a/c53TnZ356PRyPs2W85TjfCpTTncVEH6nVtVCQByHAF9DMO5fReTB1MYNMAQUypctWqane2tDz44zvsrgwIpCiBhDmeIUJ/Wgvte2QcZE0IAAGZOMRLRauXv3BnkZZ1/KzvJpmkgt2c2/cB1ORRRDeb+kG46hIhIGaV0UUhDAVDsS9Y54O9zCms77xfL5cnxbDykra0tZzjGyIAqIikxERFVVTWdzZ+9cuX49GS8s61IxhhcX09Zl3kNQJtha0liivmtc18nh8SbvrxzbjKZ3Lhx4+7du5vGDyKenJwsFouirs9mzazx0fuvv/W7L7zworX2zbe+OZ3OT85XOXykHlGCOc9HejJMoI39w7oq1wMLkIiRLm+Ym5gKnwT6mLXVPeUWWstlWTIpSCQiQ8YY0/ergAFEFRgRFVCh67rRqCai5WqlXaMoiGgllkUBEjWkpAJAxllDRWFokfz8/PR85kWANFjyxpVFNXjw6CFi33bnvK9k9IH28ViOQvPHF4DBqBbMezfmbTLvOyl0EkNZuSvbEx/S0f33YpTd0eASbqkPCPOmOBgMTk9Pb926NZ1Ob96s3377gxdfvDsYDDrfPHUP+3AguqkVEeVELtc51u2BlNtooMIIQAwAoCn5gNYBAxFpjPmP1HWNPUKorzhtalR8qQX2Axph7ogQoCEOFJIEUqhc0XgvIkgEIIY4KHTtCkVxkwkgrE0R+pdA+uI89eEZI+Qtpt//oe/eAoD3nq0xxjjnlFBV+xSggTvP7gyHw9B2rLRazlOIZVndvHnzW9/+jqvKW8/cfe2rb/yX/+e/86v/8l+8/qWvjI0l1Uvo0N4UJ5OJ9EHyGiuz2XeIciRMRHVd58LbdDqdTCbz+Xy1WonqgwcPxuPxT/zkT60CXn/2o7/3ud/dEvO5P/qTv/W3/parxr/8y79mLbABQ4yIqigihAoIzH37AS9CU8wde0DF9f6Yw9SUg/e+hQb6Pe7U98sJrbXOOdaIisSsSMSsBlBJFSgXhFQIEBWGdemYQHRUFGRYNEWRuq4VkkbWKEqogkBknAXDUVJIEQmYoA2Ay6awrnIltwwgeR8trHHOla4wxojvAIBVcrdiY4TCqgiIigoEutl5CJWNo5RCu0CgcVWbYcHW3vvgAduiLMuu64wxo9GIiEIIuUy6XC7Lsrx+/fpy+fa9e/deeeXjPrRPvTiXbe9ytZaJN8tF+/KpqPbrOu+mzJztP4QupdJY5tyXlZh/bDi86EMQIKAgKkpfk3iqEdL3qIZnm9qcZNd1de3yf1NKOWPM59M0DSATERARIWO2NyIEBiRUAuJsjjk9yQWcNVQgl9PM2hn6EBSBiKy1PsWmaZbLpfc6GkNVGFKxhhTh7PQ0+PTMzk6zaj/+8Y+fns9eePHjwOZf/tq/funlT56dnFPbcBLFi+BC+wJvZEA1hoguzgEgo4IAIMbonBuPx8PhEBEPDg4Wi8VsNlPVwXCYr5hz7saLH591+ov/yQu//Mu//N7vfu3v/4P/z3/73/69f/RLv1ZacsYYYlWNURDRIAEDMgjKBqCO2cwAUOWSBX54g86miOuE8EN2uDHCp2z2xrK1luIaa8eGiCKTav8XQQGBSQUVhnWdgm/aJSKUbhBCaBaL1LVuUCmoYSZiVgAAEZGo0/NZ13lgIALrYDwYDYZjkVRUVUw++eBjEE2I6IwFAGMMAJgNVnBthIlRSACEAVkVQRCRVILK3tYEmKbncwEYVg6Rjs5OFrN5VasxxhIzc2kdAECSrusGk63pdDq5cqVpmmfv3HnnnfcPHj6cTEZPX9z5al567l/te5qCG8xZXxeBDLfC3OFSENEcMokIGwSAEAKzSSnt7u7CRUsm77WXYFn/YzwhgBABIufr1qyayWSSUspOpcd4EAGA9966koiAkKDvzvdlufxf7cvuOUxdg7rzh+qDLdxcEdKUAgArQtc1s9m07QIzTLbGMXoQJcC27SxxNaxyp+Sdd9756//+L/zk//p/A9bB2cl/9r/4X+YNyyBdZkvk4xACIhruF7CIJJUoEmMsqjJHpEVRbG1tbTbc8/Pzruucc8vlMoRwcHDwK//0n//IT3WvvPqZ4+Pj/9vf/wf/l//rB48ePvwffukfewEiQ2hyMxJSRFVjjLHcoe8bNnTJwAAgbZrZF+vBXCp8IuBl+sGTRiiICpIrHJdiU1Tg7HxF89rSnk6iiIpKAJoD0fzH56v5qB64soy+I6LBYGSMEYSVD0SExhggXCMzQkyz2Wy10iRQVzAZj29du1FYe3x4NN7e67putZy3q6UPAtqhQoq+chYBkkrPkgAEBUGQBCqAKkIAKoRICglgMtpqlqvWd9YW1th2MRcBiGFYuhjbBK6qKlE8OztrQ2TmyWRyeHJ8bf9K0y6dtYb1hY/c+JMvPvzRHx8LIilIT/LIKaLi0xLCi/8qQa7YoqgSgzCwYpI+DWOFpKKSIIGqgOSuTErWsAQ/Gg0wxxsoPSwLSFF03QKAP+0ha0wJrTkD+dy64Af1KEiCTedtfc4pgUUhAO0xaEKABMo5D9XLH1B1XZHAfHHW+dCagwaWbFARAQHturBahRDBVVxV1aptyHAIcTmbj8fj4XA8nc4dO2dNt1zAyTHMF//9f/f/oOibxdwyi8rG9jZxKYIgkSGTIUoJkiYlgLSB3SLmxqBl03XdcrmcLuZ1XYvI+fk5EpVl+f577/3J3/uvb9557ud+7ue2R8Pq9p3f/gd//7/7f/7DZ25O5vO5EKBQSilqZEBkYMccQdZ1UQYWFAYCEOkLE7S+ok/cox6HndfJpSJDX0w1wPmeKQqAKgICGAWn8FOfvPNjn3h5qyD1y8ICOYgxZNoVJPVd69uOFJxx1lpLjJv3WL/xE1t1bmys/3tw9PiNN76RFMZD+4u/8ItvvfXW+enZdLm0g0lZ1aAivjl68AFD3B7UqVv5rpkM6tFoWDqXooQQ+lIebuyhLxQB9Bs/5J4SbIIEFoSQ/OOT09bLeHunGIyWTbdcdUBYFMV8Ot3ZngwqK94blLp0j49OvvHO4if+nU9Mz84VQWKq6sKwy0TBzWdcRyYIAIyc4S+qiZQUkqqi6nw+L0oLAF3XoK7Za74JMV65cmU0GrW+a9uWmZmtqr711nd+6Ic+HkKXF5khPjs7m0wmm2Lg5h1zjJqeAL6vbzRyjBGRc4mia8M779376EdfjDG2bTscjUQgSiKiN99805qCDeol3KfBnioBIIO63rzOfYWCCSQ0nSEka4gIkAQ0KSYV38XB1ngxXynCw4PHDw+a27dHw8k4SGq7xreeAOuitNYSoEZNKZnCVYPauBIAmtAtVqvQNY4NqWSvrYqXIgsKMYpkfiOLyGq1WjWd1zQcT6qq8t4bY65ev1ZV1XQ6HQwGyH2Sq6pN1y2Xy6bz737w+P0PmmvXyldffbVZdW+88cZsFofDTQnnQxGmksHNFodKioJKgCIJAAWUkBTWFzFQcbCQ8zYtV8sAAAAMmbULcCn4NAyULVD7zqGCQsZkkoI1ZJwNEYOIiQAAq/mCGBgNoma6nUFCQkVUAFLSnosLsvbKdFH6EVlb4+0bNw8fHTx+fLa/s4sguztbwbfVaBTtcLZYSkztvHFliRKjJMN8ZW/HMhsi79sYRVWtcdaZ5LtL1YsMn7kwf9q8OSKAkML2aIAIKx/JWUBA1K5r58vl3bt3b925fXL4qDD11mgwqtzs9PjF5+4mfvDFL77xw6++sljN62HVdR2T9oTA77LA9QbXF6+yH8uf11qLmqsgNve3UBSUCDFHpJjRPwqoggCGQGLoY42eL0Obt7jsfrN7pksvbrYlRCVgQtq85tgwYLrIS8EQN01jiDn3JEBBlZCwbwzKE9hwgAwPZABFQUA2xEhra81dJSCkcjCcz5ZFVb3/wQeLRXP9+iBGca70zUI3lZ/+HoGQkiiraPAAKgDovU1BQBlFQRGBVBNsGBWKyISoOYATIkDLpiwkdevkYjCo6/rk6FgRbty4kakh2Q5FZLFYHJ+ens8WTG53BHHVvv7FL4SUkodRBYZVNVta0g/1ovoTyIy7jM0RACgrl0uySVDX1xA2jM0nK585SNnkGGwyojPfbexDV6OwP6Ybe3s7w1FJXBpblw5Vm1Wzs7PNbHKpxhjrXGGtY2MA1gRbAsI1ji7nFxk+0GM+MqoCi6pka5yFF154ARHbrgPVj7/8CVsPfudzn6ucHQ0qjT76blC6plkiIKrQpioMkABUhBEZlCCTLnr47LqBAwR9swvX4NrVajkY1tvbO8bZ5bJdLBcKWJbVYj6/srd748re/XvvjIeDbrVwBh8fH+3sXnlwcKqpvXJ1H0XKws2m54W1jD2io9/0QAiBgajH7ej6bqmCAgobUhUFICZACDHGlHJ6WLuiMJYUUNQgGSQGXM1n48HQEjMgKRik5EPlimyrvL7ADEjr9GzDYMgH3CMZ2RAjgCFOIfngt7YmIIIChhlErbVnp2fBe9rU3Lm/ZUREfZcBnLV5IydUAmTqmYSMZJjZ5CIO5761ArBxq9Wq7brHhyeqsLe/h4aNtT50SROqEqHtsTewLmuDqKSUQooxRckp6+VWkG6guUjEPeRVNd8EMszWHJ+sbt++4Yoiwy1UtfPeGDOfz4kIiZbL5cHBwcOHR+dT7wMEn1zBMepspimCsYAEktQwIPQIICZcL2FgJMrrbbPiEQGRjVNAVRAkRSQ2xAa4PFn6LkpIUXuKxXonu2ST2QhFchaIPT6dFUKnY0fP37q1v71tmfJyt64wxgIA9b0fZ4xFIFXpXT32T0yYKaC0CQJoXVtDIiIf/HA4HA+HV65cmc1m3ntn7Ueee+HhwdHf+sX/8K/8pb/4e5/7nbPjI0NImvb3do4PT2LsYky6xkbk3clQ37PqS+uZV4tAxLnfiBkQjsB5MTmWlLrWp5Scc1tb29evXb9968a//e23K7dwhvd3tt56891bN3Ymw5qZvei1a3vf+taj0cCMRyMA9b4zjEyMqAykKJxb3v1qUQAFTNDDGiTDca1xMSVVNcYoSOd9UrFsGKBgY9lwz5ftW3O+bQ1xVZT5tjCSJnHG9KStNWkob3dIxIDZegkxXxNGREJGImZQNczBRwQYDYaaxDAjEigYY44OD3lTh+EL1iATIQETEaAxhlEBlREMKqEyKIIYdmSYmTMEIfNZFaDtAiC+f/8DNjSajAFge2dnOj/PSAZCMsSGmTYNp4zakd4IRT7sgXENXcrLl4hzBKGqGQvBxlhnQ/RXrl5ForOzsxjjcDg01q5Wq9wkbLvu7Ozs5GSxXAIgFCWEAGwQUeuaJpMaVHynrgBGJtQ1o045U0YwE5c2Bas1bw25iyEpADIyEztAEsUAfL5ofZQkKTtD2tSynjRC1Mxex15JARUYoEbopqtH7707PzkZVfXV/Sulq4L3i9VSkjJbYwtjDAAmkSTJGLNGmmG/OWdTzAyYHgTT32AkEhU2JmNAibmoSibufPhL//n/bvvObXv16vL+uylGa7mwBlScYUD13retjykiUVGUZeEQEqFednf9vgVIfWcZci2LAQClWS2ds4O6iklOz84K5372Z37203/7b0/f/D0J4ZnbNzX5YYXf/sajUa1lWSpyVQ8kLj64f3plfxy6bm93ZzY9K6yjvp+pPbsRlBAAEoJkvMw6lFQARcMxRQUlJlENMSqQNWwVDILhXBAnBCUAJpQYfdeOBgNQQdXcrjJMdJm2lz1ezt+I84U3Pb4QOTMAyRATAjKR950rbOnKJCkrxTBhjOHk+MQaiwBkMvo43zjKDKa8+JxhVDGYPSEQIkIiROaLbTA3D5JoEpnNl6vVajprJ1uj8WQrG9Vytcj+w7BhYkIEhQuZDAAVSSJ9y4HWvfE1FWRT8SDA1COkdFOoISJifubuswcHB/PlYjQaAYD33liTq6zT6fTw6HCx6IyBugYFaDuoawNIKYkx7JyLMSDq1tZQYiLUjQ9kQu4b9+v9/8IIWYljUiTLpgA2UbH1YbpsZ8umCeBjymfLPerzw4IcbIAUQFA2/fxshAwwsTAuyuX5+Tvffuf+e/cYcG9vvyrrqq6LogLQ6FNKYo2rqgr6Ha6/HevrtzE+xD5+y3EpphTzKymloiicc0nl9HwKZ7Mrz78A09M//O3f2h6Pd7e35rPzuqyGw9oYk5texlprTEbUWCbaINbxicL62iyVERE195ct0Wq59MFPRqPxeLJYLl9/7bXX/9WvgaQrV3ZPHj/aGg0c6f5eeX5yvLu/h+zOzk+v7l9ZLo8PD05v3bhqDTdN4zao2gvSaW4EpgsHCGvHCKioqrK2SwUEJGZCC0gqzFw4lyUnNo3E+Wy2tbW1wZdiv7kRIHJ/cdex8BqFc3EFmBgQCIkNZsoYU9t1g8GA2cSUjDGKyMbM5/PFYsnWKICxNmXMGkL2hIzEmMMNYFRU7XHbuYKjQOx6SwEQ1SgSRUJKs/ny8Ph8a2dkC1cUpavKg4MDY1lBmNkaY5hzqM6KmybnJlvpUXOXcJZ5WW2Wrw8RADJQZd3oEQW4fuPWO+++60PY3t4OIXjv2ZgQwtHR0WKx7DwQgbWEiD5o54FZ1qmsqCoxOENZVSRv7gaVEQmE876OF1EoASmy5viDDLBRJR9l2XTn88XZLJ17QdAoKutW0PcyQsgcIr1khAbAAtQK23U9tCVIWs1XRweH77//3niyTUiFc4QmpaSgVVFkLRbMQI/segiBlRA5U94v3GN/mWOKriiKwllnfQiZmcXGnJ3PvvRbv/nN114b1+V4PHLGlM62XeusFVGRRITWGDZGUkrRV0VBl1iEfQ+n/8y5cKgMBKSsiAx1UWT6u6hIEgAYVOVoONAUd7fHk0F98OD+zvZYQ4g+vHvveDQZJEmFcztb40cPz8cju1zMt3e2NEZAzflvH2b0fJqEKJkHmLt8eeX46DP2JKWYANgYYiJRB6gpEXNZVcbavLWzMYB4cnKys7ub11b2SjkZyrxnzZd6k5Mwa0+z7TO6/sAaYlIQIGjbbjAZC0hMMXMhjLWPDx8nSUogIK5wUTd1E2RCWj/3zABSBGCEzBQhYEKja+yRqMaUQkxJ5OjoREG3d3aQSBUUYbFYEKOCGkPOWiIEEZXECMQIKhkmx4b66AUUVBlokwquNzQEgNb7jGcGgJBSiDFJCin5kLz3Zi3eQUQxxfPz89PTgAhlRcZQjNJ1qgBFCd6DqLhc4Aexxhhi71tmZFDGbHf52gMC5ux13SXK9UgCpCAUoi6adr5s5stm2YBfV0ETaAbdZyOUywXuy+HohREqsIIFKABKACfKopACRkXVJOmrr729as6Hg9FkPC5csd7DekId9lsZ9YSWi1u59k7rn+kJSiCDus4hu6oWVR2jL8vSWlMWbj6bIcBkMinLom3aVbOazear1TLGaI0pnCsLZ5jWnJA+pFm/RY+4p4yv7b0WhBAKZ8uyMswKYIitdYYQJK0WC02hKt358fH2ZGt/d1vBL9tua3tXY0DEa1e3XvvKB4Mab9y40TQNrSP4i8oBgWoCTH1k39MBERBCF9gYRAoxomJhnSHWFAhURNiYsqrYmqQimblLeHh0tLe/n0QUADORFnoQak/nwWwKCIhoGBAlb9XrkpEikjGCmFQAcdV1o/E4ifiUkA0xk7UPHj0iwyKSQMuqjCmXQ8AgXUC3AQ0hqlJvgYgIDJyJOBk+JqBRNGa0r8rDB7OrN3djTK4ofErT2Ww8mSyXC2JyxjhrDZImgSQ5R8lAVsNMTJzLW6oCSpsO0/pa56B01bRsjDFGEUKIXci2L4vFyphe5dEY07btdDZNSawFZgCErEFJBMaCs8Y60/lEhGXlNAkAFIW11kCKud6Wt3Xqgx4SIKWsSUaKDL0n5PmqXTbtfNHOV2mVAACswdIVPsYN8yVHKxvk3YURWui7jBtPyApZuGW/rnfqmlUcozO5t6tVTY8PFt/42jsPP3jbsNnd2amrSmI0zNYYZ62z1jJbw4bZGCdJXFHWg0FRlcQ9J5WI2ORbCDFF4ywgErOqMDHn2rBEw4gAMQViBNX5bHp2dioKV3Z3dvf2EGG+mCNoUZbGuM53q6YBxJztl4VjZsO4RhH37hmJASCJigr2TacoMaEqk6IIg5RlkWIKvnNleXY+s87VZeV9V5VlPcCHD6d1ZSZbk4cPH+7u7bdtK5JjE0oSQbOIIIGC9DQXVQDDJldN2TAzZ/s0zKHrWt8CY1GXtnBsjS2ccRaZykH1+Phw/+qVclAllSBREclZYELDaBgtkzVkDRlGw2Q4r0vjrHHWFo4Ly84gATku6rKsKyAkY4qyjJp29naOT04eHz2OIKawSTWpGOxzxVxoZehh2s4aJmI2jMjIxMzEgLzqPBLv7e2FGJFosVwuFss3v3784ovXm66djCcK+uDRo9wX3d7ZZqLDwxNr2RrjO18Vpfe+Wa7qooR1bWYj1prD701C2CeBGbts7XQ2s9a2XYdIq6a9du0aGVbF7AlFJMY4n887D8NhmVJcozihZ7EgqIIxpiysNQyqBEjUw5iw127r46oMVgDAeRMECNgC26iw6vx0tjqbLk+noWmTz9BCAiBQxSiqSNxLEGCu/W5U83poEQKb3L/bRN4KBoABLMC2M7VhI8kQkCpoMkTGUOnQsi5m4cH9Dw6PHhPS1mQrxcjGGOKYUtM2XRcyZWu5bCWlHJ3HGADRMGcfuNFD2jgx7OFV69dBM34dgR49fDidzYL3VVUOBwMmlJRAsa7r5XK1XDVsTFXXmWfsrMm8A8WefNAXDtbRcC8g1QMjCSlrLmrfRIE+gwWi4Xjr5OQMAIaDoaiWRcEG3n//8WBY3rz9zPn5+f7+1ZRS2wVrnXVOITFyH75tMlWkFGMuqWe4mqaoUVMKZeGMtQiITGVRIFMMManEEFdts5gv6uFAkvgYVAQIyrLO9rY2hL7ota4F5eYgbjokokrWMHPXdc4Vua6oCFlr7Px8Op3Ps+AKAJTWZV/HSBkv1ms65XReCUV7dn+GSykm1f1r1x4fHpaDum3aJPL2u0fXrpeAfOeZZ1ZN0/gOiff390eT8WQyfu+9ez/953/qm1//ZlUU169cXcznlk1RFDmt7Bk/uO5/XoYErmV2QEEIzs7OX3jhhdPzs9NpU5bu2o1rJ6enzFy4cvO75+fnVVXVg/L4eOXcOl25nLpg31ah3Hy/UOiCoqyQWQB6lRFFQBSyxWCC7GLSZdvOF+186ZeNdn7N+8as0Jntlj7UingaDwBgrVQGH+ITUk9gUyZkEqZe09SQtk0cDNxoOPDez+ft/XeOTg+PvvqV6qd/+s/FWIzqwWAwnIy2RGMIIfg4Ho/z1pL1URARFKIKMuOmidm7DEAAFEVdo5975QVEkJC07byIZFy8IfStaqFJMSSNUVjUKiIbRATiBEL9mszXF1EZc2m7ZzFcXIl1FMBPXitmRFfW1tr5fG6tReaqqq5evfro0enDBwf7V28a45rWKxBbm1SdKbz3oimX7URjT4ETtWgAIANoQEBBVQQQCNAVZbNYrhbLndGksC4kFQSVyEikEH1AEgB1bCgX+iBjuvPJ9pFNxvs/oVSdxedUh4MhIrbL1WQ4aIPPklNMtvWdbxtnqCqKLOVSFg5jbsYiZdvDHjXalyX1Ypnmx7Di+XyeG3EIdHh4OBzizs4OcfHo0aMQ02Rnm407PT195tm7q9XqL/7Fn/n5/+AXVvPZgw8+ODs/EYmj0RhEsuAyQUbw5eoo5IACn7wr+bG/v//o0aPZrLlyZcLUo4tdVT73zPPM/KXXvpJ55DFG3zZV1UMdvlu5NVP9CDRdWHvWxiWFnh0R+3YhA5Gg6WKcr7r5slu1EPTJc1unrAC0LiN9f6U1gFwdhayvhpohXgx9YWa3tiNjrEaDwigAahiiB4kpBU+opWPrQJKuVvELf/KdbnW8s72ztbVNgKumSz4BIhcFIDCRMcZaQ0Qqvdp0dkSXGfRExBf9hos6GSBZY5erRYxxb3f3+vXrg0GlCoQ4XzVFVRnnfOdbH9iwNa6XFVvjRHoBN8yFervJXC/6ix/aHzfZLeFi1e7s7i2Xy8VqhYitj0VRTbYmx2dnTeuvXb9xcHhYVcNyMAhRrXNt04Kgav4CFARRBHTWGiDDZJEMYUFsiRxx7HxpbLtqxIe9nZ3JcIQKpXUSEyuErhvXAwJ0bKqiLF1hmIjYAGEWvATYKAzBpvK17t0TIIiOB8PC2LPjk6t7+yBSGoeiBngxm58dn2hKtatIAKJU1oVlIyFKTBqTxCg92DchoCRIoiGKRPExhSghymA4eHTwaLKz3TTNweHhfNU9/8Lzre/IuLKuzmezt9569OqnPs7WTKfT8/Oz4aB+643XT46Ovfdd0+5s72iMi8Ui9/E2MdBa3TGjlJ9wJdnhLJerxnfXru1rTjGYtra3q6oCwf/s7/ydivnLX/7y48dtUUCIur09zhjxi3W2PjbU01cJYV3qJkXwIcMFCNkgWyROCgHM4cl8vmymy7DqIABI1q02WRUvw5oyAXv9afQJ7fSnekI2YKCP2HIFoTfCAmCvciPHBpMjZYiEYA2ogLPQ17ZECLS0pi4tQzp4vPr6175z//47CLS9vTMajNFwkCDZL+QdDpGZjLXrVhQCIa9biIxAICZXOLnPCJAMIezu7IqINWZ3b2d3Z9sZYuKyqlsfjLUxpdYHETHGCEAXfCbpIIDmqgytO2pkoJfj2XQXNtAz6IPVvuTJitR2cXtnV0BDCIv5arZY1oNBPRoZ4x4fHtWDMTuHbBbLVdN03keCLMGzFh8hY41zbGLrISUQQVFWMKAMYBBRZFCWyXtS3R6PS2slBAaIXccAoW3rooCUDKIlssiDelAY58g4No7YETtkJgptpzFhUoiCSfuaRxRIYegKFj0/Od4db2sXjILEmDo/Oz1bns+tYmUMhEhJHfGgKCrnSmuLHhJsDRkylskRMoIBZAAWzZgOPJudFIWLKQHAt751/Mzd/XowbLsWkN+9d+/GzZtXrkzOzs6R0Fp769bNn/3Zf/e3fvPftE2DAHVZxRCjD2VZrtHf60B0Y49KtE4IL3Vdwfuwt7/PzIvlsijK6Wx2797B9vbIt/7u9ev//Fd/9RvfeLy3x7du3Vo1i8WiLUv33UZoMjWk1/frzS9XXHxKQAZNgWSi4qINs2VzvmiOzuPCS5C14GL22OtCaN/RRMX8lAUW/jQjxBKsAgSQDB8lVatQAowBPrJbXymdDZ3DhOolgTGQAhg2mRQRY/QxeA8hwc5OhUze++kiiMDN2zuf+fRnX3rlox12ZJAAY4zetyLijHHOheABAEFU1/oIqghiQkRQyaBANbLeScbD0Xx64ptVZdkRxtBYoKIqHz0+efT44Pz0jJkHVYEqMUYCHQ1rUslSS0Rk+l4iiyjoRcFtrdWxad7kKkD/A4LEtuxiMM62jf/md95WoFvP3Glav7Oz+/Y7906nsx/57I/du3fv228/sBYsY7vSLOlPDI6AEQwBIexuDZmASSyTQ6TcuiGqirosy7ZtY4yTyYSZQwjW2rZtjTFnZ2eDwSBjkZ1zgHw2nSbFDWIrqahqAu267rJfv2icok6GI2Y+Ojrav3Y9hGCMiTHu7l05PT2dzZdEZIzx3sco1vL5fJb/eFKRhFFFBQWw6YIqJBFVFMkcEFRQJHjlE88ESQ8fPTLGXrl+LUTpgj+bLnf392xR2sI9Oji8fv36v/qNL3/207e3JsOHD+5X1jnn7t68/f777xdsYoy41sjIqM28a2PWL9EsxaGiIKC5slHUA1sWZ2dnYBiA/syf/cnXXv/q8fHx0YOzra3h0eni9u0r8/n85KQpKrh9++Z0Ov1QONqjsPu3RkUQRUES5YQYkyqyInUhrtpuvmhmC2jW9FxCIAJViApJQQBc3jEyXnQN9laElNF3mTm2oSZfQGB7T9gnQrr2hLk0WgHsDezQEWmwLKQCCszgiGJIbRNDjNZgWRRV6ZzDdtXloNFaQpH5ovng/gevv/l6MShFYz2oy6pEgMzmJuY1jjQ78L6vxYisQhvtDszleCLEGKJlU5eVsxYliURDbKyZLpbT2WKxXCKBcwUzZeQKcxak7YFzSJzfLEYVwJyTgaqC9F09UVAQzdJ7uekOomrK8ux8lqI0TdOFUFa1IiGxKws0ZrFYsrH3Hzy8dz+dz6BZASloypKHYLLes0FHKClAiJAiqRpEQ+SYLVJtC4NUWjcoKxINTasxGSSIqbROQ6xcIT6wAolGH0GUgChP+BBFVRQl0doVBdvS2MK60rrC2MLYiu3AuYKMRapsUduyMq40tjQ2dVFDLNnVtmAgEjDQ75WIAgIxpRQkhtD5FGKcL7Rrte2gabVtddlC00LTwaoD41bOuZPTxQsvfKT1nYh2vmta74oiiRprhqPx//a/+C/u3Nn9zre+NZud3rh+jRFPT0980ywW8+3J2DkbvIcedqqKigiZCQa62RkvvgAhxGQLNxgMVm3btt3f/k//02vXr33hC1+YDEciMhrX1toQwu7ueDwZHx4eZqllfDLxIERIgqQ91hH6yqYi+qg+pkXrZ4vVbOGXLbQCAmCwB20CUi9opCAAhhk2CVROEBAASH6QcJTXYO5eRRD7FsUIYL+msWEWTygECgo2Y1sNVpWtK+eMEZUUo6RYFBZVY/Qg4iw7y6jiQ/f6V99tlsejejCqB5YZRACAN1mYYp/FwLojKkAKgNSrNwIpACGumhUg9NUHImKMkBofHj4+ESABbDovIkVZurLoi0C5x0VoEA1l4VqQkHojUwCUNeFizdheA1oUFFUFsAkhAZycnT56fLi7d6WqBuez6fMvPO+7bjCob9+589Y3vylJQdOqhUkFKpA5EI7AGi6sKQ1bJpVEJI7RGiotl9aU1jrmFKKkWBauKguJMXSNNVSVDiTVgxJEq7KUpBnkJSKIhnIOhIBAqMq5AUaGAIgMIzAYRjBoEMEyiyZVqYtCJRpEBjAIsWsJtXamcExJQJNBQBDDaMmYnAlor4IJufXJgNRXr3o4GYEPELyINB957pmmWdXDQds1zWp148b11apZLpdt202n51/+4hfefPOrTbPY39o+PToihdFgmEEO7arRnkK30X4jBO3fSXN/oM8H12xOGIxGBwcHMUVAIDbf+OZbv/lv/k3XtoZzK4Wm5+dMaJhSSuPRKMWIsBZN2wC6ALMMhkIWbrcJWNEIutl8uWjjbNHOFtoGSArOYlk4H1P+M6qASExsiC3x2nqe/EKVTL3UHmywoWDgJbfcjyVkwAQQiACFREcKHyF45dp2qS1RUMbow8AaVLgsbgVrMhv0VbqLHHotuCS2MMdnnfdw8/bgh3/4h1/42ItVXbe+U1V2zNZEkdZ3MUZkKpBtApOxBYYRMSvGh9AxM4AoJJDcAU+qCYBe++IbL370pYcPH/7Yj3/21o3r/9//4ZePHn0wLIvrV3aX5+d+uais2Z9s1c52zWqxWNTjiV7MU4NcOIXvqpvlECIBPzibDbZ2XvvyN27evEpKZVmG0IXQjSfDyc42oD05nb7x1W/dfwCjMaCQIWAER1haKg06RmPFkHKhhtQylYZLYyrDBRlGYlMAkzFMRGhANV1MbgFVQRFMUUUg9V7aJFBIEDWmqKJREiikwlWZz3b5WSm6YQmYCJBRWdEQsMKaANcLtKQkPgafx554jQl8il3wTYhNiD5pK9BGEAUvGKL6CCHmDBdShO0JvPqpF8uKkeLxyYFI3NramS1Wi2U7HG2Pt7cOj4+62BnHElPFTJcYkT0dTKFtPTNnZUTErI8sIrJRHNd+RBdllELnQ8YqiGoClI1IfojrjHLT92JEzEx85qznQ1El9MPQai+akihAUm59mM5Xy5WfzlJunku/DwCoyQnUU6UJn/pQIEGIqCoooBG0V3FWyIps+WGEgBSwl6AkwKzSDFbBiFhUBAgoSoDIDIKIslE06M0d1kZ+IVy5Mcew7HZHBgBmx8vf/LXfe/MrX/3kZ374pVdeZmOSSvApqDBbawsgJIG2XZKCQLogXhhTWIox5qa3YloncKwCn/7RP0PIXJbVaPzNd945X8zGO7uONSnUdV1bwymFzq+8N6CDqsoDb/LkwPUO8pRrmhdHIrh5+8Zgsn1ycla66tEHjyybre3h9taYWEOzJHajuh6PhqSLuAJTZE49EBCqkgAbzaIb3DdJNLsYAjSgm64lZ4aTYsoq77k2D6pIOaQGoEyyz50dJRWhhEmEhESVbD9G4InnRMQAimRACcigGgUDiCrQ33EV0KSSF0DI+B4QAU2gDMqghJB3FrkIpwhRMvu0FSjrYVEM2nYGsAJNhCqpswj7e7tVPTqfzm7funHv/XdV0mhQ1qak9Q3sFeRzgwqZiCxZ7Gn+xJCC9D+aqzXa63wiAKwBD1leCFNO7ERTL38Ga02sfr5ZVTiRXlolZU520pQwkoIt2XLbtmez2fl02TQaU9/3k357Nhex4yXa+p/+QCElgjzQJ2+Na/u8tOl/T6EnImACBkIkRVVMmZGwMbALrNYFxv0pD1MaAEgplQwe4PRk9vv/9nN/+Aef/5m/+LPjne3t3Z1hWfgQQggAZAubb4+RvsmWMoEACaUnnuVnEMoTAIqybDrvnDs8PHz7O98+OT4dDwbX9raremg0offSrVLbRUlESMYEENW4roniBhmAT5vJwYDL1dKV9f7ezrgeh1VLANuTkSuMSFi2DVMaT4aT0ZBxESJYq2SISJC0r8CBGiRCccg5MLZAltjmTjsygyMgAyYLVgmwQhKIDJxyxgegxOtykhZGcI02FgYR6Hsh+JQZXNoPQ6Fs87a3RiTIc7z6ECYKG6WQQqckIMJKSpC5hEQEwrqGA6MmgjVHLO9jMJlsDwaD5eqUGQeDAUqytrDGzOar1bKzZbVarUSkaVuDdOPWNUq6RsX0MzBU1doC1pIIIgKJMCAoxRgzy4fWWlIZwsO9fSkhiCKrJlAiQeCNEodupEYAoiiTtYa6GH3TBklMtqyrpXDn02K5OD8/P5umVoABjHn6dOYf2Pj+xz2+ywjXvVFGMNiPhVyPegJWIlJFzvopufSBGUQhfTnr8jMAtE1nDDtrLLGJIUSVoCr+l/7f/+KFj1371Gc/c/fZZ4uiAEy+9U3nsbTIbJlFJAWfQkyqBMjW5f0bJYEqkKCgICyXy9Fkyzftcrm8dvXG4iOz5XT67HMfYRVp27BaJFRDjClJ8DEmJdUNS31Dmka5TH1GhSxbQKjdcnEOSKLj0eDunVtMwKBns/N64NpuBZJUoiEwDKpAhMR9dksExOu9DMkS5zaDI7bEhpiZDFiLzGApQ0JBASVqls4jgyQAmZnWz/jSaFgVotKF9liGJFzWz750M3sJXwYmVKOYkWiE61owoqgCpgSowqKJtWNlVmBhFjWSEmBSZJSEwEqESkSYJQABa6NFUeQS63hcFwVL9MzsI6QIo+29v/Az/+4//Ef/aGu8XXSrK3t7dVmhZKnRFGNKKSmt8zKA7KzWWyCRADELgkFcY71QkBggq6kkUEXIwZ5RBRCTE72+QJmjB1Kk5FPKUjBkTDnAlELSFOR8tpou27PzdpVAACz0EFNcN84lNxowxziSN7wf1LywJ7RtzBcVaFOD2YSjF+XSDzkBBmY2GpAAGFXYMpKACAH16KK15hIoABnaHG+eAcCUzhgDTDHGFJQYXFUUVVnYxQf3Dh7c/xd37l7/4c98+rmPvrA12lnFeNouwZicikcFILBsnbHiA6qQAFICUUDBhILgSkAmU7gCZDysi9KeHR9duXZjOT0Xy4ZJrYtdm7rWi4bUQdI8tDMLSPe9WSQQvRiQiiAIBKqgN67tL1rfhtAuZpg8swFJEpqCy2FZtF58s+ralTNADMYQgTIBUa8Rn1sRBlKJyMAWqSDjkG3Pw2MD1iAzMmOW6BYCXJ8d9IAi6Jncihg1yFqOtEcE5bJSfOrWzdhrANCmAKiAgphSL3ghoEk4MSYWlaAaWIWVWIkFbWJRFFWPwAACuQGjCVEQiNUwrVarZtUWRTkZj51V71tEHlBRlUNAe+PmrWefffbGnRtf/epXlrPF3ngL1mK+/UkiiCoQikiStbK95KG3kEej9XdlbYTQg6yy3HOfcQEAaOq/qZhT6CQAQKI4GA+a1rc+EhmyNmqYTaens+XBacw99wKADACAj9AlME8YmvQhaNZf/oFdnOjF1o7fFcdu/mvgwgU8AVc3REyZjUSKIhlPSJK35A/FopcPPvQYbo1927beO+J6sqWq89Xy9Hw6HLvta2MgPHn0+Ff+8b+4dmPrJ37iJz752c8EBnCFZfTet6Ka0FpTuKITQWUURWAQVUj5royr4ePHj4uisNadnE3rsrx995nZapVhllVRats189lCkvoIJoXYomqu821G6m2cYQYsQRb5RiBUy1oa4sLEbplC0kQGoS4LSbF0jlCaLsSuI4DS9uIHZu0DicAgMqoFKpCZxCE5xKy2SIYImQQyCBQNM2oCYGXp5Q4l78TmQmiWNOasKWPxeNPuYpYnNdbyM3AeQQGACFmdmiDjc3v0HqqKJAMqEDAxMwsgqljhSJENEoAVZkxGQHqxQzCoipAAU5TZbBZjrOuKEUPwIqAaybqt0dbb99779V/9tcK58WDIwNPp1F+5kj3hJhztQ+vePT4x0VoQbFFcFP+y60YCgJgE1hKBshGAAiLGnOQmhSiKhEkIEWNS4+rKwGK1mp6en07PV6vUBmgALEBlLAD4GAOoAlgAyhI663Ut/cLAH9wC4ZIQwPcfcmno0s9fHq+NqEREChnHrISU1RxyregHM0JSWE6njMiqyfuma40xW8Ph1b3y5Pysmc+jJFKdVNjO5r/9r3/9N37jN3763/tr472d3d3dQVkWFfl+7ociWwK5pIVO2dEbZ4fDoarawnDo2NnhaNg0jTWlghIKMlfESdF30rWNALL2JZBMw9+4dFhb4KaJj0Czs1NyhbNFCKkuTUoJVSfDarmcW1eWhSVCzoqqqgzIpL3sTcYGkzIBAxaIFtgoWch17Z58pIAJFVjI9Gw1EZV1zRZRlBCw13owwAQlS9/iuhxQJ5Qno5AMP0kS2x6aDFkxNmd0lHLwi5gQDGoAIRQmbQkIgBgoARFwTyCGtYqPEoJBTIiIQCohASJubW0NBty1551fWTYxxnYZRre2rl+5+vjRQZSwnM8M8cc++mJsW7jQ0r6YLZe78JIB0Ey5kmmYXFb3gw0mEzQjf32AnqKinNtxmvtdpJqUECQpImSpLcXFogVOPurR6fnB49m0AwYoLFRASBYUU0p5/qFFcrZsfZedWa8S+ANHoB+ygB/kh56SE+Zfzd3GHIoqoAE0a9F8BaULsTfNwm8MnF+5/AwkiJRSQMXCsnMDYIhBFudntSsQVRSDhBglaUQgi/Qb/+RX7rzw3Cc/+aln7t6tq8oaaINPIRrmBAgo2td5CQAo4eHx6dX9/dPT47YLO7t7vmuni6UrKsMYmib4UDtbTyZAOJ3Pp01Tl0bXsztIMREgsYICMaqsxXZlXT3X0hIahBQ7703tWDRpKAzPfEeGi6JkYwtnIEGMYIywQj8tAmVjJKxgFC2oRTDZ5AmFUFkBJFFkZjaKiIp9IIYIeZRAXpH5IYBMdi3LthH+zOKvTy0bpLBcISXQnhIMvXS0SMoQZRVIKUnE5GNKKhLWc/5ybQkjoypSLlUwIvV6YNKrTaIOq/ra1ats4sMHJ6HzbsAAMBwM3rv3DlOxs7N9cn4mMTrLi/lsI42Z1Wh6C8Qsa9Y3gQGATN+uMMZc0su7MMIQMzw423NPKwYARlQlSZnhTJIdBqIgnRyfPTycLlYgAAUDKHQBBEAkIaBlO3YDJA0xhhBwPXlBNmDWp+G//5QHSh4mssnXac0tvAxnY+pFoBAAIyKgMEAJ8LHd0W7hKtSUPFl0xhhRx4SgSGqQkNQQEYMlJgZGRNIPPROqQS4MF9Yak7vvYoidZRXJ2n5EYNkUhh0bx+SATw8O3/3aWwcffMCi2+PxeDi0lgXEGCJrwHIijKBBQVUng1H0wVpXDWtbWOdsFOm8N84SkXGOjRPF2Wz++Ojk9Pxsd2d3b383psTGGOuappGkq6Zx1uJa06HHGGZ/w6SgBOiMyYNQDLOoMJOxhpCbNt5/79H5TOsaJYhlIEqGyTEWzhQGa2Mqoq2qzOHAaDLkwhXj4c7Na8O9yTKu9m7vPffyc+fNdB6WDQQoOVlo1LeYzpqpm9RQmmt3bz77s39ub2+y+4mXGm1O4qK6tkXb1ZmsliY2ThYc3P5Ix05G9iQuxrf37d5w77nrC2oXJuDOYM7hODYyLmCr5v3JqoTjuLjy4q3hrf0Hq+PrL931tU6u7r3y8isP3/+gqkrvu4wV953PckpIRGgEIAmIQJZcjgHG4/LZZ28/ePBejI0xYI0hhNgFNsaw8T4YYwCUUZ3N6C7IiV+MKZOJVTWGZJyNSURlPJlsbW8bY4i5LEvnXFEUtiyMs5kYjYhFWeZ7ZIjLorTOEZGIGiQRFQE2jo3zMR6dnD98ePSt75xMZ12IF0zC3AMkcogOgCR3DkOIKYjqpQrwRi0QAME5a5hDSIaprqrzLhiFQV3lqTvZYa8FnQABo2gEjZuGRy+/b2NKm56+2RjodxfXsqJWAlUQQlwP5RYDCCBm3WnLx/10qCefMW/uFywxVaS8c1ncQDQpD7zu3zWm7fEWWbM4OPzc+//qjetXPvnpH37xEy/vTiatRC/JWiqZokrXBd+0MYnkqbeBXGGYkYwt6wET5gHtSISkbjgc7ux0wV+5eXNna2LKo9VioSmyK0XEh9TFxKAGVQmI1mIiiCIRsB/7qRIhp2EiRGSsLcralnZnZ+fh4yNjjHUGUptLF7lCQL3SlIa2G1je2p4s21bQkudrO1tf/sbrH/nY3Te+9c1vPHj7Mz/yoy9duwZ1fX7/PhqefOITYBiWc0B8/MYbX/zKF/UbX713/+Fzz3/EuMI51zbHn/3sZ5/52F+Cd945OTravX0bVEHktT/+Y94t//nv/qsbN248evDBybFeuw5/9X/y1175sT8DO3sADO/cO3znvReeuQM7W//kv/mvl/N5iN13Du9tb09u7lxfvPOt0+n5eDC01jrHabEgFVJgVFGK/TFkxiJiFq9IIpFAFBVBUBKpKiKDgkouIxEqSFKEqqrShl/a+a7ruhhSSvVgNCyKqhoowGg0MoXzTetT5F7vrR8n3KfGvUQb5qjVWouIXkEppaT1cIBsZ7PZBw8OHh0czpt+llBehqI9SVF7ZXkEFURaRxI5GkrrxEw3PjALC5y2foAgALMoYbGaWDbGTJeNXXMAPvQoXUExGRE1FAW8xCQCKdGlJsgT4eimtdAzO3tuq2rmFqLSxYRa3HDxN9fl6RHxWn9XL6p9kMOGHtiKT5zAzniiSaKPQGwtNsenv/dvfvN3/u1v/eWf+/fq7fFgd9uZKqSUYiDVyhUjW0uXQgi5vw8gAEGZ0FhC0CRAiAar4WTnitjCbe3vb21PxJiER9G3SC74NuGqjbk4oYnAMmYZTQDVJIqisAY49CVJaZrGogY1AimqhACigUq0gIxKmBht36gAZepVISSmu3fvfufwQULd/5FPXY3nX/jGV8tR5ar6//h3/39Xr8CP/MhzN2/e+sM//sJPnhxXgzqlUFXV17/91u9+5b4KWAMP/vCdn/oztxfztizLL33xDxa/8+uTyWQwGPzB7//WeDzuuq6u6y984Rsvv/zM66+/d/16Hfzq+Ag+9zt/sPP6N2OSoho1TXd0ciwi779/fOP64BtfW37iE86w/fIXHvz5v/1j7bHvzttmsZzP5yDRt11dVWzc45MzylJrveCaMoAiEIFITBKyBC+oKsTcJ+/3fchDPLMGJPhmpYpRLqovWfTBWjsajerBCJjKshRQZjYpgihsxCRVU0qYNKVESnlISUopJU0xGmIzGAnQctWcPH788ODRweF8NocoAJn3BUA9yCb7mCwYI0ikIkjaowcygfdyjR8l8wQVYEIITMOyJKLVagUAq6ZzT6Z+lwslre9ycumUDFJ7qRex+SVe83dZAXLSxQolwPPjatexo4QSyRITsqgjk2Gqvb4U9o2x9XFPKb/8bDbsEURkIux1SDNdL4s3G+ifDRJ2HiURqLXsrCFUSSl03Te+/ubZ2RkjVkVVGOuQLFHJ1rFjY421bB2ZjGpWUSFjcgyFvRIrG+cyXdq6Ik+eM86JyKppUkpZvzjX2uCC1kRRggKslY02SGK0pTO2CFFWTTw6mU/nrSuKwhYGo0Uli9aQsVgwlYwl4KQsC+bReHxwdiylvfLC3T/+4h/+2f/ob/7xH/3u73/xZNaeqoGrt8pvvXt03szBuqPp/Ph8dv/g6Hg2O12slv78+p29Vz/9sWfuTprYbe/tLWPXeN9q/Pa777pR/Y1vvxspmbI8XUxfefXj9w8f/Zmf+mxQ+MqbpwHhznM3d6/fTKZEV3aKTUxq2RR0/8Fs9yoESe/cC3/5r7xy8/qN+cni/Ph0uWpAtHBF17UiEnzyIQFkFBCkBBG0x70DlBXevXvL+wVzVI0GAEByAgqKkCd4awJIqhJCijF1wecuvLW2rKvBYDAcjfeu7A8nE1s4Y/vpvNZaY421NusArAceEhFZYxExswSNsdkZKsDjk/P3Hzz6zjv3Dg58F4AtEPeiVGu27Zo3qD31OXPJ8ZLCxIcdCl54iqKsZp1PIeQZz9baJkTQi8rNplaGvVAqJVUEsNYCUidRYIOye4onzHNXN7T6nsWgqJoB0L0QKubRKErIgBvtfV6/fvkZAPBSXelSbr1G38ATzX1SQCsEvUgRA5qyHAwGiTGpPHz33r233rl++9pnfuxHX/7EK4PhsI2y8kHQKIioigAQGle4sui6TohEsu4RZQqjda5bzedNy2gHk53ou/litWg9ExfVAFOEGLPKSVIkyXj6zZwhREUEBhRAKIoqKITYzpftfLUSAHY2pFQiGoK8v3NWFwEgwNI5Vj07O7vy7I13FyeH58ef/PHPpuXir/yNv/7pP3s4XSwH9Xi56J5//qMKPJlsj3f3YTCE5RJUYwiHR4+NMVeu7oKJMHBwOoWtESQACTAYv/+VL/7kX/15NGh39sE3zcn5j//if3j07Xee++xP/vm/4Zo27N68DcbF+cqUFRBpCKFrHx8+TN1qNjs+O3n0wz/0yqOH7z+YnV/b3Xlo3mfGCAlQC2vb6DvfWgRQipllQGqEEqmoMkNKIcbsCVFSlL4/Sgopi8+BCGhUiAJYuIEPCVIUESR2zpWDuiiK0Xhra2sLyKzaJqWUQNEwM1vqBU+yG4wxEiURMWjypFfnXFFUXdednJw8Ojp97WvvJQBV4KKvpjCBRW5DyrA3AlDCpKoEgiCgiLoZBrwRCXlykgpuQtX5qtkdlEVRnJ5OlwAWoETICm7rcRWaW7cAoMST0cj6kESAyYeUf+RDLd0nQXGXfSUR94J+PVObARkVgMyTapv5t2k9KuHy8+WN4cN2yE8NX6WuBl3XxCjWuaquFel8NpvOFqPR6CNXr4WkJyenv/7L/+xLv/P7n/nMZ1785CeL7Z1krKCipBhjFgc0xvgYiCyRWY+VAiRGZqcafOuss4bJGHKFKNblYHtnT3wX2ib6DmJQlQQoKZHlfttAzgLweWOMMSbA8XhsivE7906arrOFYAxckmHCzYRNoqwrv1wud8bj3VF9cHh49YXbswLq3a0HJ4erprty+85VsA8fPT5fTN94653FvHHFQBXr4VBCiirGmGWzjD5UtZ1sDRaL+cc+9rHpm+89fPjwypUry+Xy8PCwqu5fuXLl7OwrVVU1TTObzZxzjw+P6tH46PhUFZvWJ6XRaKSKRHB6fNis5tbIow/O/vb/6udPlyu0ZTFwhVZd8HVdh65rmoaZmKAqSll1gsp4oTWOKKygDP3IYZQce4smyjqcAoqCCVByAyImwJhWMWE2nrKqx+PxcDKu6pqts2XhuxhjzJ1TJMpyrBu6aYx5fmNKKRWmKMtSRPLHv3///gcffHB0BrMlcAmlM2xQY0xRDbIxjqLPm2nGopps1QgJ0prup+t5It+vEhoBlst2tmwJ4Nb2+PHZjNaTFy570U1jcz6fR8CYO0UACFAAJlyPj70UjiIDZul2QDEAJcALk8FOwQWKpo4sMoFJObbkDWe0l6OkdZC5eeXS12WO6SVl3l7MCy5eyPknLFYzZDCFE5VVswoh1FV5dW8foqoPGuPQFXvDcaH44O13P//5Pxru7y+9zwpiztks6ywIomANW2OsYaI1VYqImAHRFaWoMDEAoure3t721pa1lolARKP0LDFQW+Seus1sx6yIq8zIWNT1K5/41Edf/sTh0fn79x/V9WhUDQrxjEKWrUW25BhKZAcwdpUzZr5ajK/snsX2V37nzU/8xMtf+tob9XAsimdn83/4j365WcbF0iOWDx4ed53M5+1qGZcr33UiwKUbjEd7e5PrGMvDh9NRtTcodtqFbo+uWRzub99Knbm6e+f0cImpJKmmJ230tFqFrpPQwmoVGFwMeHI4a5tQFZVRBp+mJ8v/+X/wN/7k8384Ozk3Cf7gX//2n/z+w9u3hmXhxIfSlcv5UgRSUgFKilE1KqYsl9AHXPDMnWugnXOYQguaDCJnIpKggmZlK5Ggqotlp0ClK4bj0db29vb29ngyqeo6ibIxvgsxxaIqq7rOIWjhHBvDxuRcZr2TIxPHGGez2f3799/+1nfeu3d0fgpdgtGOQWtVQACQiIwVgBDXYl/rgSn9sBDEhCqka4n9zbyddZN9rdl0UcnMrEOFT736iZ/7uZ87fPTQe3/ShuLJwswGvMrGurJU0UaSAjCgtTaKbCjk+W/maZsXcJmUAW8gpKDUp8Xcb37reFchj5LM3EvEjPp/2gM3UwRkPdiTAIQoT72nJwk4WQWMco+oUI0xxs5Pm5bJGiSLqIQGiYwZWTsm/NV//EvXX3julU/+0Asf/ejWznYy1IYoMRaWN1qrMUZJQQRQhRSICzDOh+jYbl25SsZuDSsNno1NAui9hBA1gSgpVGhywA0AlMm/CAgwnc+HzPWtG/Dcx2/8weveQ9uuBuNRP7+RFAAMICv2AkylC6iIjBHGw8HqFH71V//lz//Hv/Dg4b3xeA/JvfjRV2Jyzo5mSz+Y7CJwUmQuGDAGcUTOucl4bLmcDO3WCAHAFWxpELt45+bzBwcHZTk+P1nV5W7TNIWtd7bq2fL8vYf36tGgHI8HbWdtEVIM0U0mo+nZkUK1WrV37lxbzM5+6sc//d533vmhj7/6u//ktw5Pwbkhi5w3Z0VtrbWjavDo+FgFSdT0tG+NiJLnjAqgpixo3+PiFAg1o8/XUvWaaeOFLYuyHg5Hw/GoGgyMMT4En6IgYYwBRJmKuioHdQghxsgZS5ZVbUWZrSaABNH79+/df+uttx4/nopAWcJgQBHovIPCsCmLPBCu67rVMngPZYmCBCoqGy+lSAlVzToIXeMBAQCVlLRP0DJOhhQEZDIe/Mf/yX/0oz/y2cFg0LbtL/3D/xdpHEM/z7M33U04CukTr7wMxh6enr197/3zEI2xCuhVDRBCD4IzGWgtoADIAAoqBCnBzniAofEakYlESZCBNQGzZkiDIvCaAQ95hta6w809rk2UeNOQ7SW4e6R8PzgaeuHzjIUiAFEeZRPP+WThHDjIxELVPM80l5lFQR3C3a3h8bvf+dx33nrr+rWPv/rqCy99bLy3I4bPlkusS2UXEBOxGovAJBrO5uPhiJkjcudbIix3d5fRLxdLx1zu781j9+jg0WRQ7022p2fHPkjXLuuqGg7rFLoYfYZ3bI+rFLs//qf/rKh/97Uvvbk9BmtZYqOccnZrCCvgAVLBzETHq+WwqHaHW9KKP1rdGkJcJleY7S3a2sbDw9nh8bnh3XJAyPVslaraOOOWy7i7s2MgdO15wS52Z+oMWWqWKwAYDEYKXjS13XI0GopINai6EBLYpmk68WjN1v72qmmWrUdw54smROmEvv3+o5QCo3G8f3x+n8vWFk1sjl/7o8+fLuVhhGYFZdS7V28vllPr6Hh2RBVxEvAoohoxqXYKqsiqoODIAQb13ig66ySqIdO0IYm4clgaXnWrNnUGuS5rJmOUYxtbaKMoOQuWASUx2kE5GGxZ54RQDENQEbJIElVjMMYx2LP56vHB0R/8/u+roKoOKpNnyksCARgUHDGKeImQRAmkqqAsgYhEMQFJ0qQiAirKAA5YADUz3FSCqABIUiIEYkOGATWBxBggJNUfeubmj336E/OzAwjDqipW0/k8wk4BCJA8iEJVwu7OcH9/f3s8saUth4Np02h0r4c4MKaJKQJXPIjJEyBCAljjVLXX7RJFiAiy3s+UhNZC073FrF029RkmYo9qzWJRGUSxToFFgFCAQPse47otk2e4rbWk18dwITDeO9HNwVpnO59VbhmBAR0S7ly7CkzT5fxLn/ud73ztzZdfffX5V1564YUXjk5PF95PJhNT1/OmnS7mGqJzxcl8LiL1oHTjUeja1kcEFsNuMC4Z9fTEVoPxzt5gstU0DZNQCEnUe59CKxqccxZRIaIaAiEQVmEFhNjXtamnCxkRo8yAirB39UpdlGOwoe1YJS2BBb70hT/56EtbZAIRIdikJolRxSChBCNAorpatoURw1Q4Kq2m2DpbF6U5O5say4BQFByjt9aKEIhGIWaCfv6GAqISZ2QQaD4zp1QkUTIlwTAqhbgqxzKqeBXkyvUre28fVuVIp2d+2cSms8T1sJy1bWZKGtCgSqCMRJqllpMlFjEGYwRGRdTULFfWDR3ZJoRmuVIUzm13rIgMZaFoa9kYZFYiV1doGK1JIhoDGiZm55wug0YBAWaOjX9w//6Xv/iVb3zt0bVrVV5WiJJAiRAUGVQxGdCIAggWIaISQkKAPFxatGffgCCCKjjiKBAk90LAWkuGiahrA5Fh7FUrBJAjCnTT06NxZQduF1Hn89kPvXTjzTcfnndwrYCd6+761Ws7OzuFdQqiUZKG2JwaJWeVAHyMqe/9ca90mgszlyRWlaDH19AaoLRBDNGHg03pQYgAkAk3sO64a699kGFNgMibvuIlXTN98sWnNhsv57hkNvPfNxUsSADjohbQFGXkqsKWoYtv/MmXXvvylz/x6c8899JL127eXDTd+em5rer9sg6cPMZyv0LEmHwMPhHk4VD1cGyZrTGT8W7ca8ej4agawd61bjXtui5BDKIhCQIaIMNG0zqNAMjjR1kTK/ftmc38wH5osC7mU79cALqqKMej0dYYXnrlpWc/9rwx57n4nllFKSVFTDGmEA2xgqxWKyhwuF1mxlAK3hS1Moa2aQjreliUpm07YBQBiVFSiKFLvou+i8nTxUAABEBWzoWrJIQI1jAihtiRrYbjUbcMMcayAEIVheB9jBEMOOew6zjPfNvMv8hYhqwTmwREhEBElEgU2Vo2Vsii4GBUmMoKaNM0k60BIhMzWcPWkDFoWAnz6mfnXFmws0mk67pu1e7Wo4LMcr76+te//sU//MJ7905HNbzy0vXpdJ6TrphphZlVCSBoANSIRMq+ISlcDN/clBQzrhIAUwqgWTUfRSXFELqQFIrCiG+6BArgAAoyw6p0RTEe1oOqWK3aN954/dd//dcffPDwyh7/yO2bxpiqKKqqYuY83w2RiVEArLXOpbW3SwgiGi+NDAKz9jb99JKM2O7VTwHzuPbs9Oh7M4DXpiLQAxky47JXMNe1AM46Lv2eB0997guntDHCNZEOgFXrqu5i6LxHQVIlURTRoK99/g9f/8KX7r744md//MeevX172TTtsq3rQWOs5NPqNEafBCwbV5ZWdTWbdirb23smUew6Abezf+PggUdbEFqyiCqagiiFqFnHeq17JzmOQFAG6ml7RIaIQQmVEetBoT6K7wT1/Gz14ANov/TH13/o2tZunwD3Hy2JQIoxrlYLg8TIUTpEW1eDLMRGajTF0HlnebWc11UVQ4cobduISAix7bp21TarZds0bQzgEIDyEs2Ak9wfd84Fn4SEDQkkYKjqoqronXdPZzPoVssSAfpRXkli4l4OMP8FJMrIVmxXggDRe9AIVhAJyZBRBIvOFK6qt8uiKgFxtpy1MZi6zFW8nmq5ZhBYYusKY61v/fJ8xsyjrcnO3tXZ8elrr33x9dfeOD8/d+w+cns7+biaTQs2AqSKRBJFBVQytTAXXRARMakCUcqVDkVB7YGzBBEIRAApz+EGRQHJUi/IwAqYomFwGR8VwUtsmoU2kMLs//Rf/h/u3XtYFDgej370M6+2beuMLUobYwyxi0mNMciQQue7MBwPWo0xBQIwlmOACKIJLstPGwHJQ0YuOx9YE5pyXab3UQoMOdSU9SgiwV7COE8rwYs9sucK5Z439PCaNfJhbV26ttiLtyZ6wvw+dHDZAnsOPl7YMQM4a01RonWPjg6NwYdvvfWr33nnox9/+bM/9qN7u/vL1Xy8t/3w7Lhpmqqq6roGAEzR2QJiJHSiSGSLegt0IWzRcOIC3cBaLAoDZEK3jKAphqJw0te8hVRYgVRY0fTDbckoGlCDmGf6tavFVj2YOK6KEiv3mVfxnsRbN6+twqN1uRjXmnhJJDatL52r3BATF9ZWVSUSQ9MMChfbtlkutsbDg4OD2LWh1Xo0bHyXbRgkoUaEhJBQoyROUTVGBU0pZeRIFpJYLVuvLWSpiJQQdTis2wacAUkhA9MMMWkUkXyGks2PsmK8GkKJwAioRGwLZxWoKApVnM0bAqrqYTkcJZV5uwDLu1evgGVVVEIlIAKlDB4DQm2Wc1xAWVdXtrdE5Pz4+NG3vvOFP/jj2fnUN21pDIlEHySpYWOMVVUBTIqokHStH5FEAAUkgUCeeo2gCpKUMEOfcpFUCUhVnaFMoVIBQnCuVz1YLDoRkAioYAnGDorCWMM3ru+WRfHyx+5WVWWtRVDSaKxFVIAIkLJaNRk2FijBolnMVuH0vEkAlpmTROld1IURruE5eS9XXQ8nJERew1wJATOdfj2cKheLLnhPmhH2uNmEej4eIBBtuEK0xqF86JVsdvmVPCxpY4ibn+RMvc5Upk1gCiAhxrZTlVFRlMORIkzny9Pjw4/eun10djpfdoLh63/0R++8/tWPv/JDL//IZzqSvfFIh8PFYqEx7E7GKcT5dEYAVT2CJKumTUB2tKWis67hcsCSrCNTmKQQFSR1SUSBN+oBGdLGCqxqFI3m2a6YRSUYiFCZcVA7bsP8/NjK4M6dq4/mB+1qBqygG0qx5vm+SCoiIXS1qzOTwLJJvvHeD0xcLeca06AsLXPXLgVgMKzyyC1itQbEkSQmMcbQedNGHyWxiqaYVbT6VauqXfASup5LAVrV5XPPUjuRuiywaVSSZTRITk0T4hrRnOn6mufLlRaYoCgKYioKAOSiKlXQJ+qSns0XFQIxRxE2phjWMWE2YrqQz0BE7FZNURSj4bAqy67t3r9374033nj/7Xf3J9vURfIJEtjCFkWZyzDMlBQFNPPBooiAJsSg8UKyRPvuggCoSAJFQpB+uxcUVfQhEYFhYIYg4BtZLCVCHFogBHZQlrA1Guzv7e3s7AwHZbOYq0TnzLJZKUlMqS4dkkjqXGEQjY9h1S3CIiAqs50tFz6RagKAlAKiyYqzcEkJwVxaSZglrXIPgaXnAhMgqeYWTT7GzG9e54R9MIYI+YpkaIn22G0GlkzKRshow4vjjLZB2CBvspDBBpGzeRYESyQIKJpAs3wBigJATKEeVEQUYlycnwVJ1pU39/bODg+3RsOterhYLWMUa939r3/jtS9/8aU/9xO3X/zo/tVrlaIqDNhFpZUCkbFFFWOMbZSCiK33vvOdG2/n6rgwJC4Se2ZjyWXVtzy4K6uAEvSl+fVMeaU8VhoVEQprNHlnCAuDqDuj4adfeGVvb/vgZAbSV/EpT8NDMIhcWFUREU1RpBARkcCAKYR21Uwm2xrDcFCdTc/rwSjHonk3ZBRD6gyiNURyMo8pxhRIVEIMCAhGRKTzHTMnn5arZZBEbPLsj+eev7s8WJSOYyOqyVp2YEJGwSDCWvQwzy5DRGtyqYEVUkoxaRIKSYHLErvUxhibZjgaVaMRsAgoOQdEWfjYEFtmRmLA0PlxWRvFd77xzS9/8Uvvvfe+Zb4y2bIJqsFA6xoADDsi8j6uWm+IkkIEyuqx2vPDKERKG+sjUQUDkFQT9UkjkqIC9QqX2IfDCipACmbdrb+2aweDemtrazwZlq4QiV23Ojs5Y5WqqgwBaJIESaICLRdtTL6oyrIsiRAp+dR670VkMtm+tXd91+Ob3zppRRWEiGNKT4SjOVJU6KcX9UsKIBf9BARBSJFA+hLlhqi/cYP9v3oR066VdqhXnO+f1xMhgBSIUPtYN88rzyPg+ucPJYaYpUpzdqkKWXqKUFRdUQCKJEVE56xBS0QIevPq3qptQmjHlSM0McagaW84fOtPvvDGV778/PMf/dEf//Htm7e62WzZNLujSYgSVKMo1yUqrdq20WSKsjB1CEGiD5q8YkLDxljrurZBkMtXAdc8zLWehPaz7EERNPh21i13dva2dneOF9MP7t8f3nz57OQI0mbwOgDIeoK7VlUZfUoppBBjjJlMbI1JwYe2G14rm64ZlNXB4ePJZNJ1jYhkbRXRmGLKqHJU0JhJQxEUJCbElCfLd11XFnUK0jQ+xghcA6GkNKgKKAOCsCiCWjasUZPyBbdnnVD0ND4QhZj7uTG2sTHeexFjBvV4MqyGAioMaI11GEWUTA/+ZGOICzZ5vvfuaPLOt779ta++8fjhIya6sb2LiBCjb7tBWTFzioISuCgtoUUwfeQEQdGgqlJCTYBMhIqioES9jjf0BB7Ok2Gz/gxKVozY3R4sl8v5HDqB0sD1K+769WtbW2PrWFVFokgK3RwADKslg6KF47brhnVhi4oIXFnY1TzGYraYHh4/DqGrhoOdne2trRtVVQWfXnjp5Xnk3/3jL98/8qqKpEE6vpQVmgSCCkymLKvYtEkhRbi2S6zrceGacXRZQkCZmUBx4/HWZAtIWflCkKgnUmYWvqDkuJSJtEeECgKDbnyjQdygT/Prlzxk7xVREiKQZu40KlH2kEElz7fIlMa1FAI17QoBLJOCggZDagp2SEbJg7z35a986wtf+uhLL/3on/2z+1euns0XSphlL7uQOomxYKXSt20kIlvEpIRUDiemcBZ1ULjVbHr6+AhFY1isunYyARDwCzAVEGSSQU58BLUHPo7HIxA9Pjwww+r27VvHwZfWoSk0gWNj2UznjfroSmcMzKZnhasQcW9vZ1SVy+XSckgYtorhaDCcz+fs7Nn58fb25OzspB4OyBhX2LqoDw8PRLRploW1nY/MVFpXDrbfu/9IESSG5Sx6SbNm4cralQVZJMOL+dJ34eTosYqfT0+XitvOItSzxdRT5vrniVJ0sV+QgqgItC0cnZwMxm5/f7eUthrUO1euzmZdSCCAxpqycmQgSSciRcEInPFoFkhiXMzm3XL1W//6NwygBRpXVS+ERcTGmXqEuYdnMOU2NjIPawWKgAEERdI6lAAFg5Qo6ySDSB4+JEkleg/EyGQs//8p+88gW9fsPAxb601f3LFz94n3npsnBwxmAAyAAQYmCZqZokipSrQEy7ZYZcvkL7PKVbarZJddVqls0yrZFku0SBFVpAjRlEAQBAbRM5g76aa54dyTY8edv/iGtfzj29333MHAZX8/zunz9e4+3Xvv9a73fdYTmEASEhEhlVVptLh8KR2NRsNRP0kSRA7BOd+svW+VJOIOdAkhjAdDopBmcRTpunWnZ6eL5dKROzg46PXzja3NJIlVZIh81bRn07NIR8yUJFnb2hAAJfsQDJq19eb6TIhADLSOYQtr9jayRJYEtAZ3z5k9iMj0EXrz0cnwwgsLnz0rAgAgCQAEiUAXfwqgTgRzfkf8yH2Bks8/e/7xR/cv7nRvBYaPbakBGJFlx02VF9lhCMQKoRel83KV5T1W4uTO3X/y4a2XPvXJn/zqV+Pd/WKxJGsH/dwBTosVB2+yqJ6XkUkJoKlWTKx1EkJ7Nl9kUaziRIEUBMAYQpeHDJ2AoGOzX0BKAtgkifceUEdRRIjBruMKi7JI8o22baWUeZ74IKQSjpo4jmJjkkibLspZBimlZK6rNosTAVjXtfc+jiMdmThNy2qVpJFn3+v1VotlnJi2qFrrBXLT1MXKz6dnSZ6ZLDdKhwCDwaCu68l05h0ncZr3TciVITHtrZr+MjXSVY20QWsdCy7rav1yA5x7Z66JYFGCzByniU60NBHb0Hpo2rAqmyTLs7wnhLC+tk2rNGRJksQpgJAolFKhtSdPjz587/3H9x6kJtIgFKACYUCIjmwEqIABxZpvw91bjQEEIUsA4nObHSYBxOswXCSQiCxBI6ISITDFkQ5ErXeeLLJQWkpptJCXrxxkSZplGSJ62zjngCk2MtaJ9a1z1nvLAo0xWd7XWhdF1bZtUZw65+Ik2d7ZfOWTr/YG/bqp6qap67r1zjfd00Wmy9blgMhai85RtsvqPYcAzs+EF6hjd0sCaJSSQZ6Dnd22qmOrSYGwRkdRwNozATpnJF7nfq7hU15/yfrxHY16bXhOnZPx+R364/c7KhyvLSc6DzJGJsTzP4EBOXS2tfisLhgA2OiP2j2f8+KZmW0b+yCEipM0N/HRZHr7jTfv3Lx5+YUbL37y03s3nquZbFP3YqU0VvMlEEVZmmSxNqqql4KDUEpKqVDGeT+RmqwDIa2HWILScO52ic9KYwDIe19VZRL5JI6rol4p51yyXBY6MlFvaEw9Gg6jeKuoHWpelQulRKTjOIpibbRUUgKiRAh1WeVx7j1VdeMCZ1KbOB5tjD/12U8KIY6eHi6ms+Ojp1oqhhBFumcUi8i2cjqZNU21amsZpSSlZy+E7rZmy1VdD2i1LLFWPthIYxxpW9betSBQSoXnyYQd+/FiOwpALJAkqzhKe3mcZF6AUJKE3Nrds55t61AKE0VpFgM6DuTKemNjSwl57/ad737nOw/vPU4jtbe57epGMXaBpLrzjlzzjQGgA+M670DB61UXu9i0btsf8Hy/prXzgSg413hPPoQATMDWWqEwiUyU5r1er9fv53keRVGappPJ5GxyCAD9LI8jXVXFZL5K4wQ6dwijPJNzbd1WXdL2eDy+fP1akiRpGsdpEkIo63I4GomycORa33rvGYG5UwaTD1YhJkkMUD37hvzYmXB9lwMAd+9cI9WaYdFFizEjwnle44Xsv8M3LxofwTmr5tz6BM91yrDuDGsDq/NN+fpPfPb+Op0D1ncEInS6/k7Fv97prk/YAlAh0loV1eWbryclXSdc+wjxR3VY1sXmIAcWi3JJxDv9LGnE4Wx6fPfunVsfbl46+PSXfmL32rXKeyA/2hi3svZN6z3FSaqMbOpSkI/SlGyb9IapMrasWSofgCREqnNrp4uN8cW5NooiDN4kaRqn3ta9Xj7YvRyZeLI83irL5WLhXJv3ZCqkSRTK4IM1ymitle5MhBEZKEAI7JzzxN57IQUDCKWHG2Pz+S9CXW6FMJvNvPeutRQCIbfWMkgiJnZ1UzQ2RH0BWh9NTnZ2drXWoZUAIkl7URzqVe1tG3yLELQQjpm8JwVKKQwBCcQFbt2xTgCalmoHqGScpXEvC0bqyERxZj2YWEeIRJ7BSxRZ3uvFabOsbr/z3jtvvX18fKyVuryzleoImLWOukQa2Z3rOoMpIJRAIARfDOQ7/J6ZGBElgwQMCBIEIwSG1rUEyOAlAkEA9kyBgJ+7finr5aPRqDfoSymrplmtVovltCgXADAY5UpKweDaJniLQOu5X7AMoCOT5lmv14uSbGtvBxGdc03TEHkXPEgRpcnJ5Kxt27ZtAUAouY51dC42iffWSMjznKE6l/R/zCtbrfnkXdTWOa1bq7V4lztWLnYTi2c4MR17HrlTO3V1Ah0vY81QA0Q6p9rwemB8/v0BQJzH9D77qY/un5O+1wPmc3j2GRxoXalKinPnwgsXOAFAWoqPlhz6aIvc66VE3jknBWsm5LCZ5xuj0dOz0ySOV0+f/NY//ae716999otf3D3Yr53L+r2J82Vda8YoimIA29atdalJkTDSEXtGoQiBAEFKgG6G3I0ckBBZCAKczheGoQGLhIVt5TCNk7wq7WAwEEoZY4ioaZqACmwI3iophewsgS9WEwZmY+K6tdZ5GWsZGc8UkJMshfffq6pquVg0tt3e2QnWaSFr6/pKn06KR7Ozpi4heGJq23o5n/eH/eC5bFpnAwjZ1H65LFfTxfUrV2+fLW1TSQqRluTYUzcGEB3ZUAAChosVlhWQA6G1ihPUWiF1c1rBBCCVUnGcx5HiUJfVfHl89t0//DY3lut6nKYCMGaIpTBKB+vEOuwdcR1sBIyKJTOEc9X7ebgzCwaSwIydmV2nHEYACN76wCEElGI0GgzGo/HmKMmzzjio4/06V/vQCkkmEkLJ7vjoXMs+UAiInEaGvQNgKbQyOsmzwXA4GI/iPHVMLgRAUFlirZ2uFk1ZMXMg770PXUg9MANxgOCITaeBFHkvvXgXMn/szPYRCYafiXRRqvNq6oQPXWD5BZPzmU54rnWEj18f/+z/3+bhzxJlfoRV8+xnu3u6O4SKzn+gY6x22+NzLcoaayUAESCw5qaqXXBRlIzSAYMoy2q5nF8aj2erApgTLSe3b/3LDz+8fP25lz75qXS0l2RZliVlU3tvlYmjKCLbIgVwjqUGoUBoFIBCMxAIhDV5h/mjISjGcdpL4gS0QZ0qLfvjZDBaRkGIpq3rju5U13Wc5gJQSikEKFxD+VJK2YFWIE0SlUVlvcvyVBkDUlDw1oU0zSOiNO9FUUQg5vXENe1kvqgRpvPy5OSsKJYmjrIsGW7v9a1fNeV8Phc+TtN0PN5u29l4Y+v5y69AUZ3dvmePl6q1kU4ToQIE31pEFPTsVnudXpZkkaVWxkZoFYA9sWRsvev1x1Joo5REaOvi8Omj23dunjx5CHNrhIy1ifPMGNPlgTd1Oej1Lmwn1wgxACERMqDsUE5ByOeAZ2BYh+ZRZ7QhALs0e9raHl+6dGV3dzvNeoHcsiiqtnLWeg6eQgiBgAFIa6UjaYNv6qapasEi0UYpST5Y57z3KjJxkqV5luSZjhMXyJV13M/romqahpm7sGEUnMRxZvK2rquqstb64Jm5oyUxs/dOiK4TnoegfLwuFF1MGHjtAiMQtJDrsOXzepUXYojuMeeOKx9tQZkuSlM8cyaEi453wQI/f6IvOuHFp6AzH+A1peCCNd4F163/82c+EAD6mZUBuuCGdZNGPgegmLkzn5OCG/K9jQEQL5fFZHqsVRRFydawX1b1RhKXrZ0XywGgjKPl/Xv/7Vs/fOnLX928cnVnZ0trjVorJWOjRJ6upnNicJ4CMUoltWQhQ2eS95EsrQtE7wIomQKUde0UWcF2tqzO5qWlp6e3ojjXar8oCgqc9QZSijRNnWuVElpLo5TRpotGRlLGy7JoWHQiSVDGOMez5WK4Ma7aZjKZlHVN1mVpTyOYLDlZLlFFdQXWMwHPy6aqitP5cri5UazaLOuV88PDp8dPbn87avs3dq5tRKapq6hL8gqEQgKDtw6kOmdPrD0Q1mR7KakzrgB2xIwgtALUxJhGiWB48vjhu+/84P69m941faM2+wNNqLrGFFgIYUyEUayVvjg1XLxqnaoAO5lbt5oyA6FY77MYaS0cQ2IUgIz/3r/379a2Lau6LIvZfEIUWGAcG+99pHWmU0S03hXFcrValU2ps+Ty5YOD/X1B4vTw6Mmjx7bhKIqMMYQCUQZGFCpLe4PR0OTpo5MnJKSK4hCCQkDEEJynMMiGRCyahmg9MOsowT7YEAIiJkn00a/28a6jTMDATADnzqdgADQwoAdJArw4J6l1yZprk/41bwYFinP49NwXgzsW0vprOqHw2jjnnKzdlZu42I4+U5ySaX34E3juJgXQ8XG6UhTr1woRgYUmdV6FHWqwBm8DI6PqXlfBhCyAAjEOer2ybYggy7LURE1tKTgtVRbHrXWJFKY/aAM11hlpsu3evTfeuPf+zf1Ley994tVL1y7LSNe2bbz3AlqUzBxAMEqBSsJ5IAeiYJDnxOHuyrPMCMWNl1oIJVrX+LrkREdCkQ/DzX6WJfNFYMZiVXoO/TxWUhqF2rAxoIQGZEHENrACDoIEEFNsDJJfrkro5RGFyj+qQzg9Pc3SuC0r672KDSIPe8nuJ1862L/cBmgZfnjnwZsf3HJNa3raJfHVa5cTOEnabDMefeu3fqc6njw32FYGXespUEAK7Nes/AsyCgrkACga21YNdKu/CBwJ1Y8iIdTO5saHH956+wdvPHhwn2ybJioZjAyAaEOkTBRFHY4J0HmprbM1xHrpFMwBUBB2bKz1EWoNjkrkTtXG1L0xCEgAEJMAdK4N7FGQMlKh9N2km3m4PV4Uq+PpWdWUysRb2xs3XntttDEMnXKCYTFbyshESdy2zlvXOGtMrCMVJ0ZKWbVlc2ppyoWtdBwhoveWmU0SE5mmaZrWtc5aH5g6ym1HRAmBApCXyFrrdQXieqUW59WoctIthBK4AdIGvIeEYKxQ64BMSnDHVhMgBQtGYNWBxesyE8wCQHVsDwBBLBDWM0YWJMhHGNYpAp32YR1/JJXENdDD67w2vJBTEQkJjEEiouwO6+hIMsiOh4PICCQZWAEJYBQQUBBh6L42oECjCFQn5kAmRWQEBEFtCwYTkATErKTODQAwofWNVEIjQMAIWBoVAjPhp0ZbtW1P333vD97+/s7zl1/70he3rl5xSq7KNsTGtV5HUeW9EMrXVR5JaZQSnILISMZSKMDAzAC+bQSIPDYyVi21TuIPv/+dz/zClzb7w5c+//mb7x0pjTs724AyzTdG/f5k8rTXy7c2+1FkWmeb1hKAUYqsG+9vl3WT9lKdxFGW1uBJibYqDqenBYVoY7SRxvfu3Tk+PUYWbdW6VeVni69+4ctfvHZZ6+jx7DhTl9raHfZbS6xiePTk4WvXry7uHM6O773++slPfXK3qYOyLpVaCLSN7UIy1usmg0LRQWISpPVOR2BMHCtzfP/J9WuXhiAguP/y//R/4EAYYBMZY62V1qgNyqQvBF/Q/QkRgYAIjNHrMQQQdzEHzAKCYAwQumBw6HK8oYNnCLpCJA5EIRCF4ACSNFqcLa13pa1b71rvZsVSRka7OMrS6wevDMajPOtHsRaoCAIBhxC886TUxt7eB7duW2edbWMTERJzsL4Fh2mESRrHWdocLjTIEEBAiNIUhHz05Mn9+w99a4H50t6+kTJYF6Pw1gEGweDqRgTu5WkkoWXoINAuam59+pOd6ggCIDgBEYIGSIEVkMSg1kCLREQFuD5vdnE161YIgrqdYUfUEh3KAuesNgQS5ymr8pwNeu5iCt13xnNzD8EkGAkIueuEYp1nTyxACiCJ3cq4tjQlZEEeWaAIyAHBg2CHAVCdm6MLZu5oZcCh4w6LNVC6Pu4DQECSKAhRErBgJMFrBjq5cgWu3RtmB+nweDb5xr/4tZ0bN175wk/kwy3PiiUpR3mat1ULzhqlGJDZS0aBIEInekUAohBQCxRQtFVQAEJNJ6txv1f5AD5QsEkSRXHmgmHQQuheMoiiSAkO1PrQ2hACSgZKs0wA53EklAgIRbXaO9jNhnnUz669+jOXHjw4nc6klNdfe/Wf/bN/Vq7KlS24cdcPDl5+7tpAR0+ePKrq6dN7j/rJYFaja2tLrXMtYJxGEOVREsOyKHKdo9SBSKIKGIReRyyv9xogAUJnLjsabdiT0+VsSRsbW6MNbNwf/ua/fuMH7149GIr1sU0IIRVKybJz5Tu3NjvXeq+HWF0aZxec2AEUdC5Q6gbxFJgFr83KELp8LQY8dxIHEEzMoahWk/lsWaxEFA+3Nq7vbW8f7O1dvgJSKGVYIDN3xqccQhpFzjkmEkKFuo3ThH1AROaOJtbNx9cJ3gAhTSITK+uhCzn0HJwLjW0FSuywIZQA7tz+V3ZMZwQ2Uq1RwosD4Hp3DyoAfCSlJZAEEsBIpQA1rlsciAs4FOVaSvnRiU6IdbhKZzrCCGEtn6DOxkJcOMmtcRJe2+yfb3HxQl8hznk63fAVSaDotFAdNthBhF0wAgkECCwaBAIIgIwYGLpJpmcgZlwrxRhAMHMgFIKNWOONHR2dAEAyGiGJ0SuBgYHXln0khY5lXfhVvULPSopc65M79x7eeZgMty9de+G5K89HJvJ1O5/OEuTxMCdufyzaFEIgKVFhXdWUmqqyZQnD4ZCKCrwNwSVplGVZ3WrrmTnkvTSKFDN7523rnesEgMhKLasiTWOjDSteltVoo+/Aw/awuf1BfOOFMXCUD7eJAeRXfupnb797a/Loyf7erk7y49n0ycnJWXH6wQcfDK5+QSImcdxLsyRJlBJWYGAaDmE6LS7t9ZVS1DQSoDNlahv7x38pAfDo4WlvGBmlH95/cP/W+8GW3DbjngIXhESljFZGKSPlOv1TShTwUVIydq0QpGBgJjin5a/jw7pdWFeCTJLxYocvCYBZMoTA51Zp57j6ORCnhDDGJFma5blSitZTgPWBTUnNCFIKABCIsdTeNFrrutPNhfAjGGH3zzzPhUJ07CiEji/rfdM0aZz9yIM/frhFY8z5P+FHHqdCx5/pUu7DmsOaSxMBGBBKyHN5FsjOII0JUcCa63lxQugcO4CwixRYPx0COg7Xj1EnyXU77WDNCzz1Ysa4DhJiDNgdO0UXxtpJ4jAgkAQAEhA6oWQX7ocAAqQApi4pBLrkkq6sGEAgKEkI3R2+eP1ICBEAIQALZomEAgMH4Fm1ioexynA+mwhP46wnynb6tMb69IcPT9+G1/tZ//TwaWJUHKmwPjZfkB8+mlUCgHOOddx96jVyFzoAAIAASURBVOjodDBYiyQDuRAcc0CFkYy4cU3TpIMUgFsXfHDWdhlEglksi7atbeNDX9J0MWl98Zy/KrWo7n+QbmyCq6PEAOLt23f+xr/9N7/9R991rHTSG2xsrxo7na1YiMq6g0uXptYys5ZSy7WasaOwjsf5/XcLcSCEYH9OB9Naw48rQgC4sj86PJ795r/8/eBgM4cr+7lJ0zzWGJySOpIi0lprLYTqOlonn+2SLQV0WJoQTF0F4oXx6xquYziX7kgGJkBac5s5QEecEeeQRMdnFkIYY7IsI4HSRFLKtm1Xq9XuwSXPZANRoK4qpFBCiAAcQuisS0H5EELbthzIqI8GB8+C88YYgqAUaq2DDdhFcK8RCv7jYH73xAJAkiR8/tsI8TFwRllg6t63ATCABjAAuVQGve5cZDrXZUBJFwjKOWwJa34sCGAkAkDJXWV0AxnBKJkVfexH5HX2GBOsmaLnYA3LTsMGSNBZEnQOqCQ6d7a1Ohqo64SSEQnJdRW4jlIG7IJpKAQGXh9UAVB0BESW3BlQdGnUF6vv2qyfACWsI4fW0SeJaLg1CkbjnivLdj6PWb26PyhaPJzMJ3MokxUAyAgDcNO2xnxUdRelyMxCSmdtCMEY0yIeHcELP3upaRrrLZEHZOestW2c9YlwsVi4EDF5BBdC8CEQa0QZgiyLSmnTtk19Wr13883+KF4V0+dfem65mkN/DzBAGgPrk5Opd7PXv/NGXfhxkqaDrThLymm5atrpavG5L3359793Xza+9bauirJYNU0GAk0SD4dD54o1F4P5ImLhx17IsFosYwPswXmQDNWyAA06GkjE7r0UISoBiNyp8rvC63zyBXN3LMS1HS6ttyjM0EUyA3VT7AtVMhF0PnhEa5tCTywJPIdup4SIzBgCe09gGJVMkizP+73+0AVfd777gZiZgAUzMV200I8WIyJ4pjc8W4oMQERdKxWetRBdWsZFd/l4k+/eZoyIXRF24kYhO1/y8yJ0wCAIhICwVhIagFSZKHgthACBSIQCcU1eE7QeIWDnY8HEovPJ4e6J7lz9u0m9JGEYJeD50G7NuIG1bQzAOsz9XNELoBg7QYcAorVVTZcJtSaLd7RoEFJ0uZfACLR26EcpSAiQioGoc73kjkTHjICSUCCD/Oj8sC6SwITrk/463ge7FDag0aA3W02bskilTFFKAcGTpHByVsQM+xtamqi2bdtaYIx0dNH9fmQgS0RSSiIyxljwIcB4PG7bukvXA0Rib10TA+lISyl8sAQBQhuYAmHgQMGBxaqlCGRVN4ELE+v9K7uNW3i/6l/ZgtUUepLLEvP00sHlv/O3/+54Y0/KZFnZe4+PossHMklPH90zaXL1uevuj24BkxYYaamwa8jEJLJ+r4PxuvXbWgsCvPd/Uh0mURxCaH1jNPQTyLRQTK6u8jyRUihgDB58tx4rBcDBryn5FDqS7TrfaX3G62y88PyYAAS+21p0+Yu45q8JEbwAIYgvEkMFAwjuTLX5Y4sgAEBd156CC566Nihl5+dN3nYO3xhYCBHHcZqm3rqP0Z8/XopEhLKb5QZUIooipdSzne1jU3LmThKdJMl63V9vd58pQt8dos6ZJqozFVZKMsruQCjP25QASYzrvIeu8zB2QmABqvNBY+hGNxCgO5ZqRslrDhddzBbPd8rnu4615QwCaUZEDsQssBvvCaRO3SwYECWf62jDGs0B0WXmgUJWCEKQEAzoQ/daBBQsMCD6LsAaQXRumMxIzNDNoJiIEAC6cTDB2s8bfLOoRnFslKoWM7tsJEGkBUjc2+rfP1yenTiSbrgh8zxT8lx1DB/rhN3lvMt7PfLUaW02N6Ft2+5VR8FCgtIaED2FyMT9fg5kiTwQByIfsPWu9eSDtQ6LqrW+qJqz1z754qc++1xRn51NnmyqVl15AY6Pz86KLdnLsmx7a3dV2LTXnyyWr//gHVtU13d2ZmX59T/90/1hz3snQcRRZNMsjROtVSswAMdxnGUAACEEIYSta0yUtT9+Lwqw3ivZAOCBHYiIx7181Et0R2MkZt8SB5QkgEAKosBMAuSax4SATJ0q5lxM13ECqNs0YdepGLnTCBKGj9R2AAB8ntyLsPaDUkpprZXRgNI7WpW1XhbPGyOZ0CtJ6yioQNi1wfVAz7bdEpkkScMQnPsxnQ1RKuWCkKobsFs4N145l+Dhj3RCOD+PfHQmhIt5/XkRwgVcwyDP67CLdGVEkoyCGUgASiCBgpkkrkWUaxb1einqVPi0Jh0hwFrRc76DZZD8zHAEPrJd6wzXaG3UyYJQCGAiBgTBglEB6y6jl303vcAOUhF8PskHACRUMsiOXgVdtjYyCPJr52zB52gMwHmD5K5ZMnFYx58SIyEQETECD6PEVaVtyihALzcIsg1Qe29tiGLoj8ABSK2aptJKiEidswd+9HLOJUniVxURAcL2dr5YLIwxUifAAhHjxLDAELwQotfPqqUDEN1ySQGcC1XtassMhjmg5JOz0y8PXhmNetafaR28K+/+zq9fu/6ab9t6Pj89nM4mkyTbYpJpNmhWZ0dnk9yYh0+fPPfiC/cePe3lKVfcKR29twDKRIlBo9Qqjtfrt0L0PiBq77o4qh+9BENjLYdADnoGeqnsx0YB1MtFPhwBWd/phYglMEsQKJECXrQzWJ8ABJNE4G5x7BC1c/M+7owNu+HamtrcyV/FGlPs3DsZAl2YGrH33lorADvmitZ6tVoF0QWGcvfCAwum4JxXiOujoHUXZ7yLQvqRX9kY44IVUkr4yPHoIsvkx15rHxal+Py9/yPfVsnIBNugjpghVQAeACBOI+OiWHBR1ogUx5Grmum02tsaEwlAkiAQO2M/WvNigieizqYNuiAjYERQkVwfxruVYZ2wQ4xARCF4gg6tEpFURkisrAAUqosmYwkoEbqNh0RSSqPSLaJD1EarRNRVrZRiEfkgyStUGkBgoDzTxXwiEX3wRd3q3iDORgGhrVbyPN8cmCk4CF3F0WA0XhQVKClQNkVptAqO+mDmy1kkhW1cnMetsyZOpvMVGYMBJQKDcOSAWQhhlBQCRGe+88xuBJDyPD86OkpRxVqixrZt93ZvVFXjZCXzjBG11vlgrKMRiig4v7G1eev9t7e3Np88PWSMonQkrEUMddWWbaFUOTk9uXbl0tGTh/2hjhVrsC++8pyvrEZazs8iqSRTHie7V2/cfO/9Qd53xB/evZ0N+++8904gsb+7OXn3gVAyNtHpycm13X3PNDubmDi6cuWgWTaZEADQ6+UTWxljnPXP7u7Oyb3IwSFDP4NUdgYfkEiZm8wggBQaBSMERMJAvvW+iwUgxA4T6EZ9zEzWWcAOTFhbmiCiEBxJFUKwre+mBCqO0iirbVgtliAVMRtlvG2C81KCt21Z1sPRxmxVoFCBIErSjpertOmsLcI5A7U7QVprtTEIoJTKkmwdLPPMqf6PF5VSihGJKM/z0jaj0WgwGHCASGnnnAZhjAFiIQRTkFJWVRVF0UbeMwqIQDC0rX22ZBUighAKwTO0HtKuUyjhAyzaoqVWSY4MjHubFDVNWUVRJLoIRSCxNvYDwRgnKRIrIZl8sE7HWgqorAMpO7bvmiMeul1giOO48xKVDIgoERWiRlRxjAwkmJAYPRAxBWJQQnZKdhRCK0OI3vnK2/1XnwONQFFZ0nzeVJW3LkSCXGhI+zTWsZCuMU76eTuvGtvhBBqFRBACBK/RJWS0deXaViYxAXtvg2ts4xYPj4dp2hv25nVTl40TIU6yrJeXZUvdb76eVoE4T8/7k1bELMtMAGutyXpXr17d3N/3IQSgEAhAKB0pY6IokioJ2tarRT7ou2D7g15rxaoo6jrUTahq613jfb21MQT2An0kjSQrZQwUqG3KecFkfch2NwazxezoydPdnT1s56dnj69sjwZZ+t3vvR7F6WqVFfMJSKVV6KUZIloXhFZ7e1uzeyftrGrbkCBqrUUQIQT4k68LwwvFLJkUsASWTHDunLNW/HVzpc4SbG0zC+fG7SSZcD2QOPcOY5bIEKwiDmIdbdCpilqG3saGA7KrEhAka+VcIBeawMwXyQv08WMhPRMHv3YpWiNB55AhsxAiXAw9/uTrWeO/izvPXB/duWh6QghjoGl+zHdTvqkBwVkrEFIDUQsDDaoXW2IQMh4OjGJvfVGtMmUEk1zPAM8ZoWtvNairFpmTKAbmEDiOdWyiNhTSRF6cs7fWf9HaV4olrz3ZUEjQAiWCULLb0ErBKCQidC+qQcmevadgnfVcene8mJ8UtRzZw+Xp2crrdLy1d2Nzfz9VxnhrfNkuzuxyVjfliq0HY7JhnBh0JNaKSg6BgD0TcyAhRNtUTAxM1loOTkqdmHjj+v5yOisr2+uP0lw/OT2cLeYcZ3LtUhQYEELntLf2p3v2THjxqmutg7XWBtKyWa2O5pW4tLm1eWDiXKvEaBdFAVG2zqMrbdsWxUJKcXz8JEmytsXZbFXWBCJarRaAAXl544UD8K2BkChkb7lYomxDSe1q2aHCr964/s3X38/jtG5bTaSUiGL9mc+92tozRPnu26eDfq8oyrYutVRZ3qcWhbdvvv72/ORkU5tMxVRVdV374E2WNvWPn3+utZydx/3ahYgEg+CPTOV5LTElWMfddndpTTmGjti4BtrlOp51DaGrQMwcScUgLMs2UGVrUjpSUNlwslpqrROjpZSS16m/ACBFNxShbiRB67Xi/HW5sNRF6hDRrki6LtelCP//FDb/8bJ8tgjPkw5ZCtFNuKWUWaaXzY9Bm5WUkpFQSOJQtiAB6gArarJEKDBOWgYHPkzO6iu9fHdnu1gs1wdkkOIc52SENM/a1oLRSsQO6hYFShmULuqSBSKi6DIkJAhgFCxwrRlDpo5ppxAZReDOaIWYA5DHbnElQm0osA8ESunIRFpjURQWQhoz5E2wd2fzbz74jvUwzpLtQbapaX+U7m/k29vXt5VpVs289tPTuS+rGEUklJCopQRBDETAzllEYaR0tm2bVglMswRk/OhomqW5ADutl4UrdZRIFK0Q2kEsg8VAnaclsAJez7vWc0JYH2oYmHmxWGAIA5OkaepjFbUhTdPxeHPlpkxSCGW0AhDOOQrc1FXTVIJ9IJemcdZLPajjD+5p0/Ou0SqE0F6/vB/aKo7ACLS1JW+FdIpNJkVZlmXTXLu09dZbt/JEz86mlpfjQe/y5b0oVkoZItCar1/eP3x6+vDxPWbGLJOFXVaLn/6pr77Z/tHi9iOqXa5UmqZFE4qm+bhdwkfX+b6UJYKELkIU145VsCZvEAKKblzEQAG5s7Qm7GZXEASxEB2T5oKV2HGkvAwBBbOOPKBFYRs/b2wURSez06qxDx4thzkc7G4oIYTWSgAHgkhLraSUnX9PCKHDJ4VAWmvl8KKVKaU6NEUphYxRFHWPvyjOH1101kFbHeG1+wuEEHQ+G3/2mWEAKSUGJqJY636/fziZQCfr+ZieMAREMJEK3lKAWMInPn/98z/zlb6qDZaHR3fL2WkO6vbsZlkXlVBKkDgf3wAComQARBGPBr6sg9SspEVRBi+cCyiSLOscLtadc/2irKm3EkGuswoZmQihBgwCpESlI6UiJSHugpdbJzVCYBJKZ1mMoMqS9KqWCYyS7f3xdrq5DGa6qNi5ng7SLs6q2bvvfNCuPmAAaWD78nO9KH351RexrOpV0a5WbWsVUYw6irV3DhgQyVknAdPYeNtWELKrl8/mK7ec9yMtlVJAobECKEMVKAQiz2ARPAAy4R9TdV1cURT109QEmK9WzkrSdHh4ePPkwWd/8jNeWmKRJBnoRAVFgEKi9wW7cPXq5e3d/V5/a3Q8f/Pdm7ZapImQgpHl7tbYFmXPCPAE1ss8hcA6sMEwK1azs2Zj+8pzl3dvPXwwGGzZutjd3vil/94vHD398OhwKVi9cP2KwqFkmE7jEEIzXxwdnz58/Pju8f3iwclOlPSjzBdFURSWXJQl9k8Y1vN6SrQm/0pgASDXaCb9yCMBQLDEziS626HyGhW/SOPtOI0dLVlyh3OxUKrmAEJ6TRUEk8fT5bwN7mgBAWCXSaPQKHW3twTZpUOC9yGQZwpEQivEjtYP4qNdIwpkscY2hfCUJAnRn/girlslKwKlmBhBkQIGpRR57mYeUkopUBAzC4Sux4WO8DAcDpkncD7Z/+h7piry7OuykgAKYBngB+/e+8e/9k/t6nB3UyUJbw37r+1djXM1CIkBwYFlh6QKoI63h8ojTIqCtGbgQAS9BFAEEFKwgiAoAAUgZvIcgicSTNx5sAgUYh0JT0yBwEuwUghBAoJg0oEdgGZOtFaoQusb79umboQom3ZagR7u//D9939w54M2Gg8uPT/Y3OvnORlohbyyu/f8xnY/MUzy6dGk9tHT+fSt1393P4dL2xs7o41evxfqtpwulosyS3If2HtPPmR57hBnJ6dVnE/r1Qpdlif9NFrOJyOtB5kRIJerNrB1gC10IZjrMJzzzscXbbD7wFrbCNEBoWmaqkF8+ZVX9PbAiZaEiiKlZD9gwi0ToEXu9Xp16fv9fiDHTEpJrRUF3NocATcaZBbranGyNRxBY9EFKGoOXNelLZyvK/Bua5B8+hMvPTx8XzKNB4PxaCAFbG4Mn7v6hcMnJ64aFksUgLGJELFuXX+88fKrg+EL+Tvu9eLeU2p8JmWWZUUdyqb5mHnIR6s9ndMw4MJOQXZtUHCXQEJi7SDU7TCZCRglrKH6TmLWkUjwHNWXsBbSSAQjBRGgQvYIWhKT1RyN+6ltjQ2YPgYDUim2DkGK9SR9LSMC6MC/0DHvPLBcWyRenOUIWLL3AlFKAPSd2cyfREADAK01QSBQXQyV5oDdTc/q4jo3QWJCKQlcICKtdb/f//GFDcSB1qPJOIYoACh4fHa0M5Jv3/LbW3D5SioTXdZeZMpVLgYUa86l6J77IDAI8eHDx5sHuw3RtFjlw1He77XByba9lGYGoQvZUKAlggIUTLPpRApkIdbyO1qHGVz95KtWCh9a7xvvK7INOsfel3UbayQBLQegQMaIJNY9OJwzp5d3b1y36Xgl87uLRiybcSJ6zlYtNMezjSTOs2FF/f74Un9w8LXPfRJXJ+Vs0cyW1XwegciSZNTrV0UNyAbQg4i1qasqNtHzn/9s+9InXvz5r8HWGH7vd379P/173lMaJeVkmZJ0LB2FblkN62zXj8nhLgb3CGCMCSG4EAh5uVxOikk2vXywv9G61rYheAESQ+C6tURUVZVEC0BlWRRnp4uFna+a/YNdKfSolwa7imSCTFW5EtQPtcdATb1SyrjasfUaOU+UrVdKhM3h4OHh8aX9rFgtfvu3f/OF69ujV/aCbZfzWbGEti4FQ4e7bGxsiL751n/ze7PT077WmYygaeq69j6YJHL2x8/rWSBzZ/rc7Tl5DWw+A4Ksd0HdmZA/Mk8ADuvaROoyM7qJl1iXAQvGSGvnLArZqXdRK451PB6kzkGAqPdYGkAlqWkFSgGAxHA+i++KkAiIQGktEJixM8yHrgcDIXjqMgsYiTFJkq6bwZ/QD7siZNQBGCU6IIGgtQ6OfrQIgZlQCN/BrUqprJvAfuRrfdFdJUudLp0l8mUDDJCP5NXnrv5PfuWv/e//o//dbAUmS1hB2UA8jCNJ6FvEbnIYSDChJhRWRq/fhOvi9LQKNx9A1quHY1itoFnA5TEkCImAJIY4wiTSsUEjeHMji4GHwAalYCQWTMIhvHnzzTpSQsbCaBWJSMk41hH43YNtqSKoASYrS0RCmkjHKt7avHLIq2UEyXA37W1kzmNwQ42pne6MsrlIlYTS472zJ+7wfjt78upf+DwaryV5CUFqJAAQkkSMkgXKyFgZSpQTj/2961d/+S/Ba6/Acg5tA1/9qS/98K13vvG7J8eH+9nQVd4FqpgsdmdBECwEo+DQbcYEy45m3AGEVbXaHvUTkIu6jpJklPdrz2/98P18nAYUjTdJLwoI7KgTRU9m814WO6bQso+creoXr11DRPCNbV2kI3DBN7VkCtYKwZFKMOsl1FjXRJGtrb//4MmtR6v7T4tlHQa1jApKIlgU5R+9/j2tE0+jeDge7u4/ntybzVd371ahfnB09/iTl1+rH89dNW9d0IxCGyTnXOB1dl23AuMa52D8uK8CARKgh87pGgJAp9BZBzcLBslesCAAFkggBJAGRgLBhAJkNzpGFCx0RxdRigShkMxegdRIUsokS4VQKAQpIAGCBfmgFBqxXvLwPG3vfFoGoKRA4YGx8109539LIT2xEIhCcAg6UgJZIzCRWKd2IgN20gYGKZXpUB2lDAfSQrP0SkgtUErUomPiIDIIIKYOkoVOVxAb0QluBa9LvJtkqdq1DoAgiqJM2EVi4Mlx+Pzf/Akj0sf3gADyPGfFykAWbTSn83pVxREmPRHQSlRC62WNh6t2DjAxQ7lttncWAHByWvU2zWhPzVQ9dRwmYKewbNkYu1yBA/jKJ+wLY/j5SweZl9SIsvBC9pbVWdlror3t77/1FJMR5HKxmoeyibw7vQeXevDlT+zuD3YSIepi2c6mGYJphXF4eW+nHY2W0pw+PL6yuf3S/v5B+kozn9x+7+6LL77YEm3J0a0PHwy2trAP/e2NwyePXFknctBLcmm9aF1GwlnHeU8l0QNrJ/3tVbL/8hze+tV/mmZ6J9b7P/szyagXD+KegGEUSRJQlafBm3FaNVXrBVmUlU9zEsyCBAD4IKVEZic5SCByS88w7OVPbbNqRV04OU56EhT4xESTo0eEg0XhknSQpnm6fZU4uLpAoNnJzEiTo+z1U08YHO3vHtTF6UsvvMjc+lCDZ/JRNZmsKrt76crSzZYnk3fff/TWh1OXX8l2NmdudXjr7u7uTySDrcOT2eZgdO/pajFfLBcNp/0oHYW64MK9ev1lV1MTAAlSE9u6QUAPomwdKUOhYxRJZoG09rgjDsERBdAGMIbIyMigkp6CHY9Hk+VcoErjOEhZWV8tV1cHIyB2WpdANQJ72japa8sgPLPPjFFKls5Vy+V2tp2nvUeTSSNVKkzw7VglrGAlzfRkujvaWq1qG+DJKXx+H7fSPA7tnMG27bjXOzw+rstaIzIFBFJKVXWV7u0qVG1RIUrbuLw3pNWKbaU3t105l1qp7TG//45gyoVEhcEHsj7EyKDJsXEiEYmM8zgOdV3HOoLGek/e+52tjbu37+RxxByEAFSSmdP+yLWVs5UKUVktpKBLOxuGIUtxWTGe69ABQG325bIOSwdtayMAEPDpz+7df/zwwQdv//zXLu3vRb5tlM6ohdVk0RdJtqkZK2VqBibggIFZF0UbAE4rN760c+O1V6WUtnTNpNVxtJKrzfFok8eRyiohjs8O2+nj/R3z9OgtNMTC27YCrztZr0dON5Il2jPbsvTbWwdXXnrJLopPXN2Wq9s4nQ9oNxTsXGsExkb2GLlebPWjsJlMjMPYfOaTlz7z3CvXNzZXT45Kil/+xIseeJANK293Lm1jUS/tou8KFDwY9pTpRVFfe4DA1YNH6d7eSdt8OJ+mL33yc69+4fmv/jJsbS7/0+9OTh4d1dX+lUuT+cwCFbZyUVyupgiU98QqEq4FNlKzFsAA7Vp7A4JxrbUUCAGgseRakH7pRKz68eb23ubz++//8PfTLAII5cr2BvnmcCBkWtUNERFb8g5Z5HGSJekoz5NMz4uF1CpP0qcP5v0kCuRaW9Rlc/nKJ7KeyVq7KpqyaUDp/mircadprzddrXraD0cbq6q9d//R3uWdO48ev/He07JUribXnlq/td3LuW19ZZkjG0iCrJ2n2kktlDRZnKyqtiOkMJxTM0EAs1GGgGPpkwjSJIpjk8YiURRa8t6maWzSfFnbxWIp4qzf7xfLVZ7GBOrRyYntxWRd3c6f291ihYECoCcmYdRoayycOpnP0r1dGRmdJf00nZ1OWxNRJK7feMGI5NHjo7gvJJGJotDUrqmJIbBnAInrkN1OSsoclI6A0QfrhMijVEm6d/PO8eGRMloYveLaUwuuOXtwCHFWrmY9YQRwl/lDCHK9CxCotAAhdUBE5UlrHULQUqVRbIxB7qKmlfeemD2AVEoaj4gAPlYSAQTxR5tRFgCg/DIogBxEJwIsatg+2Lr/5PaLe7s/9bmfGg7Ce9/9ZhDck5ACJoqtbGo3EbVXXbaUASMGgkhL2N06yMe7s1l99+Gja5eev3Tw4mA4njaTYb9/bXhlPN7Wo35Vz84e/fDhre9c2t8ftnMM1rdLAIVSoVJsV1oMjYwApRdivLv9hS/9xOObt0Z9femSLO498k8gBGeURJ2w4AB1XT4dX70U72kFodJ+uLl1ZVuF8vFGP/QkZNnW05MjxmJ7g0Jpm9AOh9voFeLJ4+OT4+ZBOhj5yk+PVl/85Kt32+WqF3/9b/8v4KXPg8hh3gDWpp/tbPcHgb713/13fjkNSj336U8+fvPdVAKBiE3UaC0IpJJSSgRqpSIRDAiNKEQX+IoEMo6NVJJ92zix8vasOm43HgbNL7/4QpKa09PqyZNHSlW94YAprFaLODHeOyBnjOglaT/PekmsDbLqM4c8zwFAal1VMwheab2cz4XMojQTrR0OB9JAv5/deVLcnk2zrB8hJbFg3y7m7aufuvqDt39YloVSY1K8mJTIdOnSlQWdfPDmrVu3Do/vVC8MTb8/0lozQgjBsj3H9MMaczonk3R2B5JBBCDnQ4s1MCPt725OJmegVB4lvnbzwmYqbgONk6SWipJk8NzVn/u3/kpbN9/6h/9kzl5rJdjIJNJaN7VtiGfl/GiyqMrFWdOsLCQxVAt46Qsvm2H/8ovP18vWHR2XRG2AZaiD8HksIx1b7y/0EM9O0pumMSFIJdM0Zs8PHz78u3/3737jW/dFT82sDwmggL6CL7964yvXnouHcVOWwL5z4JRACE6zk+BirTzKDv65SAKP43gd0sQQx7HWum1bpVQgZYRg0SmbRZqmDPDHiQBKAwQAAZ7P5Ya/+HNf/fzLlyLXcDWNVHl1b6d9fMgNRH0dCArvAkhFXgNQC0g2iXWsDQQwkVot5x8+vf/kZJr1+p/+1BcB5AuXX3CN640GDfn3br+fpeLawcHZk1S4LHIF2iCIpZLCKFbIEMhz01gS8uDatfHe3sbeTi+Jx1yVt5+i9dBQxCABhUJPLoAHLLOoGfYII7MgGPZQuLPjR/evbm9HSdCahUwfPjnqZ/pe8QR9YesGlI6jIaj55vXsc3/mT0O2U9569PjB0Y1PvBp//aehN4ZlDUX55NGjg0u7o93tz33x83TrVg/pD//1r3/ls5/pCdx1LZwsz45OiUAAKgJgYu8oUiwUCLAgNJISYY3go2xaJ4KSnHgGojCZN/pkMj4Y4lYuAa21y+UcIVcqV3Ev0tJIKdEDyzTRg17czxItmDFkWYKIx8fHiNg07enp0WgYbW1t2dI1xaKHYjAYULWqz2bTWRl8MzmZ7l+O5oujeJQUkTg9PMuHIFGMh6P53K8WS9c0KCDSGCkJ5JWQRJAkGRM4FwiCNDKOTOMqhk6KROfUNQIWrmoEUReeqlBIKbUUUpAn2N0/EHF8PFuk/eGf/blfhK2db/7ar7WB0vGwQdWGGnZ2eDZ7Ml/0d3c39jbLag6RZolta+M4BYuS4XC5XCBwCi1DUCDzLEh5dDZpFu18uRAKdASgJWtZlOXZMljv1kO/zgq/O3p1NYPovVfGYL937aWXkiTp9SC9/opCKTLNVEK9hHRcsmoaN0CFcGGj7iUIBCvAa62FgG6QeCGUTZKkC5kUgGmaJknSNI2UUhupwAu9DoHtDNd+TBGeo1cBAGIEw8DFamdrs370YLGc5wN44er1Dx8eZjE0gk2cLVdtnvViLnqKPde1FxykYowUSGhXy7PJdFpaeP3Nd7/8M1/Y39kb9FBhEtzSgVCDEIRdtYUSRK0TLWinYugpnQfUjmOgpSTDATZ2dr/+Z/9MemnccugNB4snJ7mJVK/nZO19U9sKQVqg/igTwoIrDLR7wz4tq9jXscTtQcTlBDmgRIMui2gxOWuWpym1eZxDG4KVTRtQAgwlJFE57H3/jXdf+synIY9Ai3feendnuP/eD9+4ewuvvfxSPZ/FUm//1M/8AgZqyzZUe1/7Krx/93Dx7XJRkFQKIFBw3otIBVSdgQYjo3BCdAE4QpoeomFE5zxL31aNDH4jSxaTKYqhAOhleZYmFHzwTS9PrG2kYKNFP4+H/SRLIgQIIZSuTpLsrbe+R1T5QN5Wo1GyXBUYMutxOp1uxWZyenJyMnn0sJhPT2PBx4/vUjO7tvX8cnYaxaAk/uLXfn6yjH/7t16fns2iWAvg+WxCvr18cHD79sS2EEWJIGQUTNQRlM8bIJ1LSDvxDARPkkEbSGLT6+WjQTZMlVHU1OXTk1OZJIXz+fYuo0IVT1p/9fJBPBw8uf2wFtRa3wQMrKKoV7Tem2ip6ezo6Mnt+Ws39oUyQdlSqmx/+8qVS29893urOiyKMt3cMEqV7UoEyKJo6tu6rAZGR1mW+FXjbDfN6zDJrhkSUa/fhzyXVdk0TUICVISIaR47VOlgFI2SJIKe9CnysihzTyQvPP8J12AUI7BWAoXQWkspL/YDcRwLIYhISpUkyWAwiONYSul8S7ZS3nQl2uv1GH4M7KoWAAygRATk04i54f/mH/yjd//VPx8lJtEexbKvod/SYDudOhIoTiHS0YALHwGnJna2thbAByUhT/W0cb6FG89B0YCH2cmsXs3kL37t67Np4YTa3t6PFB59/3tkq1DX2JLmWKEESCVLz1oGnZkkTzRhvWyarcFQKA5l8Vvf+Nd/+oWtnEj7gJ4XrgZj2uDTuFcty+roNJ0t+wdXuFqcTJ9Yk6YsZquFbWuZ6JPZZDTe/PDolmTUYCDIZrpcrRywJFdN7t2sxHJJ/S/+4p+GF19r5ndjkaWDrSePD5/b2Xz+5WtLxpPj06vxwL/7wfDKtfvvfG/30iawg6sHPtW0AgkoCKTgyhMgIWrBALCO6ZQMCBIYYpOiiAWrGprQFidnkB8+WZ4dXH51Nxv0rC2zJNJal00lCEZJUpS1iUSWpL08yvIojZQE4YmaoomSeFGsbLVE5mvXd/uD/OjwUDDkvXFt6+Vy2dp60EuKIRzsBDXQs+WqFyWpxqcPnvy5P/9LP/3TX8rHW1fEwclhNTtd3P3g/vTsBK9mg35qV2FyVpyeAr0IKKRWETlunCsaCxKZOkUodbPQbv4ZRdIwGy2l0MzYWluglRgODnZPVktQOs76mGSPz6Z76ZDTfO+1VxTg49//7qVXXor621E8uLp1uV7UycbmK1/5IrxwefD7v//gzu8mUZpgsgzSeNzYv/zKpz/9zps/VLJUQvXjtJ6uNpNeNdh4bv+yqW5HIGRgsj54DudKiB/phIdPn+71chFFSRaDSSFAHMfk7eWdoc16FIU8M9u9QVwtjW/Gg1QUSwTfKVjPo62Jzxkz3RiDlSKibgaolAKAbs/Z7/ebpkFEH7RvQFN4thP+mCJcKlAIkgUQ+4ZjgP1koJfl8ngx87BqQAZ49QpsjmXvYHe0/+qGSPuID//od2bzaRTHSCG4AMTsoC7nRrvnr8L/4H/8102ef3Dz3ve//a1QVjvDSOpYj0bf/t6/UggbZR2BDd4nBJoFeAZLjpAFIos8yh43xa3798tv/Na/88rV3at7ZVuVbTOfz/KGQtWozgpaySYE5TjC+OnDeZs/fG18dXpULubl1E4TIWxRoKBZuZgs56+8mkyOGxGyOJJaJCLh/piqpgzQhNkiZFvXXngh+8zPQumllf/kH/zqv/GX/sObxwWcTN/4zZuf/XN/MdrdPXv7w8XD+2U12z4YPZ3PQlW8MN61SkRZCiAxgDZCaZIoVAAp2AApcBJIAQgmQLGcL4TyOurVIQSJtQUOIY7QtXVZiul0OpvNxnIAoJECcBACkiTq9dNeP4u6IFgOQoLW2jl36eDK/Xs3XXBp3iPEQBAoJEkmtHLO9Xo5UZumkGdtPBreeO4yt4vZ8ZNeYq4eHORp/MF779swOT099d7WDZTlSkpMtSHnn3vu0uThY6V0uaywrhhJJSpSWHvbOap2vLyuBqFTjAAEBA9kg688EHuE4A6P8o3NbGPr3Xv3jDSXtrbU1SulErQxHqT91ariwn3n1/5VqKv2aN7P40AAW1vw6ovjo6egfteXTfAQeTRogJWRCQY0Aeqz5fcff/P+o9PFU3AOQgL9BJI+JgTBhoggOH8hR3r2TJimKRgD3vm2VJagtkRULgmLQ7t6KnNpcGBknBMNZIN1o9khBQZC8ACaEWgtaF8P+rprTZGRMkkS771RujsfruPukFQcSwqdt1mSJPDjt6MavAeWGr234HOAX/iZn3uup3qJPjy+m43lcnrSnMwWNb76ta9lv/xvACh48rQ8vjV7Z8pIBMGTZwgAwNbu7ozzUbw/2Fi17TvfeUM42hmPf+83f+PqCy/9lX/33/nGd3/v6OHDz422BkAswAgUgMzOuaJmVNpLYYO389lSJ/HGzu7ua6+5s6dvvfM2Iw2GPSiCBAcMKAVrSQyOebx58O7jd4/euWO2nps1DkCTpTaE+3eOhhv977/3ASopo6dNI7iRKss9SLO50SvTk8WJBDGOsq2DK/jpLwJrKGpR2Jf3rt18+72XXv3Er/6X/8lf+kt/BjZG0zffKY6PpacsiR8+fFjKdnc8XpSFF5D189B0mmOpZTAA0pMWbITXkroYZMUEFEa9QRO0pVC2TStbltAf66vX9ibNTEMmhUqSZDweB4jKytV1naZpnie9Xi+ODQJb2wIRgWjbdjUrd/cPHj+539pmMltWtUcZn5wuonhuYhOo7Q3zk+NZW9chVMjpRn/z7Oi4n5uf/uIvXDrYAQ55nt+5P3v8+LH3dOPG3tVrV5q6PK1KIn/89PhoCkVRJd7HUjN6G7hqK1gH7NBFNiUzEYhl5SMJMmFhEtPL+sM0j6WUQSl178mjRArd70WD/oOjI+6PRJ6tyO/2Mhc4M+mj2/dtUVyN0tFgmIw3quk0ffTgtC5EDGmSJ1Zv99JBXTLgfL5czQusYbM/VHkfHOy/sH1yOlmQRd+myviqAOuzJO66nxDiWdbLWlDmvXeOUUMcA8idnZ1+Conwj58+LJ7Yo0fwxKhPXDrY39pLPLL1DGE9CO2cQjt63jPMIXzmiuPYWquE1GtPHeG9Z2atFLDwhIiotf6x6gwBAJD2giWlch1FCPDe+7c+vH3/9R/8YFrW7928c3K2mJwVJhn63gBCDbyAoT/2J2ooalhFGeoEy3LR60FiknbWRD66++a9Fz73C6qMwwRO7kyvbT//r37tD+68/YEJ8IVXX7m6uZEh9mIVfMHKljyzuoj6TpqFiepengwGgzv36us3rhUP7x0+frRcLvI8L4rCnp0W0ymA6I834l7fA8T5YFHY8falrL91//5RvfKuhrqi05MlsT4+W6lk0LJe1RSlo8YJEoaTZDI/U3/+lweXD1zj3/3u2x/+8EOYFfadm6sP7n/vN37vU5efH+Y94PDXf+VXIgrw9Knx7vDBPVssBnG2MRg1ZfXgwYMOf3POpWkqBJRVGxtlIJimMVWpne8lChiSCLQEycStBW+9b3qjJO6buQNW7mx2GqVJx6VYLovJZPbgwaNHT5+0znZeGGVZnp2dPT06PDw8PD4+Pj09lVIeHh4dHh5vb+1vbO2uVq3UGbGczVevf+cHi8VyY2OjtfXm1nDQT7UEjaEpZ6++eP3P//Kf/onPfSbW5vHjxw/v3b937957771XluWTJ4dnZ2fj8Vgqlgp397YTCc45Y0xZlt2xqrNzfybMtHNkQZRi+2BceQCjol423N70AiarxbwqZuVKZ8mH9x8H4MI23//hD//+P/x/ni5mD88OnYKNvZ2z5fwv/4/+/b/+7/+KB3z45KnJspPFdDE5XbV1FWBaV2T00jZt277w/Iv3bt8b9vvOgq2barV88caNcrlAoLopi6L03sdxjEItVs3p6SRNU2vt+lTm3IXBITArY5RS0DShKJxzdQtCaW3i51+4cXDpyic+9en7Dx8pra0PnR3JR6IKIRSKrs2ujaSILlw/tre3vfdRFCFiB8n0+/08zzuQptfrtW0bx3GWZQYAEZT4kU4IEXgpVBy8Xfg2AljYmpNBzbCYnZX1jJdNeAr7sgoYw2AEsILAK26DLY1tpRZREuXDPBbLJEl88CpAcTyDo+lPfurzNz+41YtFs1wmEn73N/7ljc+9dOutt/7cL/zSD58+XhXF9mBQOZDDnpOo0kgGWJy6oa2lFnEK77zzTmuXJ6dP52cn9eNbv3Ttc6YFM5JAalqsOO6VNYw9yyhmWUsptRJMtFos7aIoF3MpOKjg2NfUzssVtLRaLmYDEe1t3XxwcyOCKpKvffErZ5PJqYgevP6999573BTlq89tPvzg5pVf+qvH77x9/zd+3a5Olm+98fyNl69ujavT08XZ8aJdYetX8zO8FjqP7Y+0Z0wSIGHup5lIfJpHUQy2rdu5jbWUiAzcQmBgRgcAqMCBNxC8o8l8cfvuvcnMFS1az/NVceP5a9bFtm2U8BpRK4EMrrXv333n+GS+OTzwwQZqnF1muUEAYrNczI6PTg8OdqWUaayNKod5Mq/reuUOwzJGh8Fff/F50+iz2fTddx8slwVlyjqoqupsepoQJElskihNwRhltAlGSSkBfedQBtDJIj62ggcUqGFe2FVTPTk+HmfqU6+89OjBbevbKIqkBGn0qq7/6l/7K4Mvf+U//jv/YRaZ2eRUprpV9Bu//l8nQlEsdnf2bt273Y/3+40NjioPkKcPpmendTDjjdlsMpmcWtcIAUIL27qHh49MJOIoJ7t6egbXelWnLE96iWfiHyfJVUpBHIN3traRljJNO5jkgwdHzqS56Sepmluu2CwtbvZGbe3l2gipo/t0kdVd4Jn+EcEhIrZtS0TdefnCYiMKOrRl6123pGqtAwDTha38RRE2BOw2R7uuLZbVdAHwjR/cvnX79vXrSZzip19+Xi+rxepeT6SyM6CpCSy2HCVgENgHLJp6Wi2DhDoUPtQxxtOTRyfvfP8nP/Pa9ig72B0Nx70vfvkTg92Ndx/evLo9fHDzg2Gv75rGEj+crbYHYzJq2bZ9MsLEqI0AKw18/3uvz48fcrCjcS8y6mQ6iWqOjV6drGa6kJmqStjc3CJhF8XpaWvjdhFEUhct1JaCS7KIhRRREEABShQcpZwO9eHZIxhGsDh6uDjbHYzyg2ubN37id793y8SmmE+JqKoKqGYkXbY95LB8/Xd/d3L3wef2rtzYP4ifu/To/TcXq+NiWamqjQhF52d6/s6UBJv9fpKqRtsVeJkPnEBNpp/0feEhQAshYEDpohhkrJ331pOIuKrrw2OomyPWPSGjomreePOdONFJLCIj8zhKI8NEdWNBmeOTaV0q2xTjTSOkiJO+RGGicrGqnxyePrcs81wgCokoEftp1Di7u7n58osvxiYGojjJLl26ItTTre19b32aronFiFxVRRybNAOlpDaSoqiTH4UQQHRkS9F58HT6hyDg5PgsEAgGEycheESztb//zpvf3dvbGW5uYBQ9OD4Z7O2fPX165x/9V3/1z/35KJPzp48vPX/wU1//pR/WE7A+l5Gpiu39fHCwEyzHjjd3B5/6c3/GPj2jKP97/9V/vURq65VQWDsoXGmGiRTq+O5R1h/Fm8PmsN558fnMtg9uf9iEIJy72JHCM8rayWSysVqFtWMZALNSyiFcfvlLZyzbnn75M69+5oUr00/fjM/OPnjje/tpgtiF7aFgIRhkp5I5R1z5TzA47P7r7lAqCQlDs7Ja665dh7X/2seLMFexdX41OyNoWYDUsHkAkqGQtfPQ3xpGKJ3AGIADgQfo7wIJxRlZ7duWNWKqdZa0Rb2yxfZO79r1/cyYsjxNeulwoD+4+cYrr75w/frOrQd3Xnru0t/7p7/90//mX/jw7uOgEo7yNNs/nBe7O1cj692kWtqj6apc+goRyFnZ2n4aG8QyuJ29bXg4qdvWArz2l/8qiPD9799sa2ty5WnlySo16CV5P8lyNc7iCLSgBJfcHM+nzOgWrTBe6zAa5ydnDmyxtbdrIz18/mUY77z2yfjowemlnTHZ+cs//aVbN9+4tL298anXvnP86H/+K7+SsIhVDBsbUEzuv/fu2dnJRr8Hyzp2QEJ4oiA682gWCLPFvHA6ubqx4rZloeP+VpZMDk9GKlPsDAfHQQNmGaRJFlgwCmEMKu08tESx1MLEDHJVl8uyiLQY9FP2VBYNObLBg9InJ2czbFbF8oodxCkVlc+TNMvHxMracHR0cvXKZrcSt001WZ4JIfovX5MCVqvV0dmJ13xyurj/4AnKYVM2WrCJE1Qyj1NXloisNQRyzEZpQUBIDHhu9cJ8bj7Y+bVgkkTkQ73wJ4cnlKlxooB4lPefu3J5vlq+94O7+abaiNNRHF2/cv1sdnbn3R/euf3hMB/jMDk7PG1W5Wfy3t7VF/7FP//H94/nP3gXdAy7GwD/szHOliDkFz/7mYDCumKqxOrevbYqKekFIb72p37x7Q9uPjk5Ol3B577ypWu7e//w//p/efpk0nPrAJYLsTysU7Fi0FoiSBVDG5qidM55hpv3Dmljl9r2+Pe+/fo3v9U+efj1F1987vrL9uQpoUeQz1oyYefi9wy+2WEzQohuVBic73yfuoWgc47q5pbeexMZ7IaBPwLMkFtp0AKaWJtSgnMQJ7A8BpGAa2E6fbrj5DiO0NkH9+/c+q3fXnm8ovT8qNrTGwejIVE4sasnp3V6Wam+Guz3Mfabu5ve2aeTewT84ievsXBFORmNkrqY/wf/w79QH9bXnnvp1NMrX/5ZeOEzN//Br+587Rdh+xJ8860Pn571NkZR8TRNwUqxOj42w3wyda6sD89ORk0rPVmp4Od/Dm7fXJVQF+XOS9tbW1kU8s39zSgatnVrCJQCC9YhCWkZq7po61UBRVvORTuflIdP4Scz47hROXz+J+Gw3NpJbr/zgRn1rHRQzd769u+fbu8mVTFbFTd/8IOoqu3Z7OUXbwx2t3/mM58rVvNQNmpRJgFaKVqm0G1bAqPC/uY429389L/9lyCLWHSpRvrOP/rHNF1oDAagDWSUGGYwyDY5KB8YpJLKEIL1IBx719aW9vZ3ynKlBPd6wySOm6pwwWkVHZ6eUECZxCjqxaqu6mY2K5O4r1UcR3kS987Opgf74zxNdrbM3TuPIi03Nzf2d3dWi5mJev3ecO6L733/DR3Fo/F+VVW2qBar5eMnBaW9+VktJEgFTVO1KBQTse/ez2vTM+re1mI9oyBplCL2JP38jPZykQh1cufOII4Xh8dN237mxmYyGN+7cwddGH95kFv72b0DdXYWpAakVy8dhMom986qBw9hWb20ke58qopz2aKA1unBpv7cT3z4//iHjw7nVQ1GAhUQS4xi3Qj58Mm9yXy6s7cdpRNCgChxga5c2Tm2/lzC+5GjcQeKgDHcNmStIIyzbDweKwEmiYvOcYVoe3OrrcskSRbzefZMmA/wmrPGKJ61tLhog+dK3zUCdPEDPAOfovc+SkQsofhjVagAIELh2TWu8h6uH8Df/Bt/eS+mSXH26OGd/c2hvXMoXZPG+oXPvCo//2XItmBVrv75P5d3PlzOZ4QUYqFTOC38qJ/vXb1cLSdt8Ki0aykbDI+ni83R6INbt65cvxKpRCHvXL0EVpydTuHgOoy37zT2pd0rsLEL8sOKFRizsbXxpZ/sYzxMl8uNXl4oH0ftaCvfHml7tjw9LgEELEsmSKIUgkcIwdlyMWtl41tqPQOQ16HWXBu2TRmC05Kj2ORaiaK4MRjD3Uf9ICwmyzfe7197mWb1lf2d1laXX335/dvvX9kazg6fQBR9/Zf+1H/xv/4/vriVah8e37795ve+7YMTDlKAn3jlM2lAUoKAggCBwJ4BoJUi6ffgJ78Mox6GAIxgsf3Vfx5jKahRgaUIGs0wg0G+KTBpbEicI2CpQJtYGkOkpDI+ILFkBOsFVK4sWt94pSiOkyyD4FCrhEIrk7RpvA9YNcFEqdJxVZZFUexsbScbyXg4evD4KO8ldVMaaaSUs9XynbsffPOP7smkZ2lCRFQ3xNjv94fZqJ1P85yzDEJw1rUYyFNgdW7Ju/aDFEydVZJkBtdYiZxF4FcwynqZjp7euT9IjYlj7/xQReVsdjAczg8P/7P/7X/2cz/7CdOu8rY5KWf/+j/5P3/vyUmu4QakVwfDl7b3lIYCFzpLz7ybf+s7J08ml9+9eznpNzifWEgi6I+hr+TSujjVG4PB7bsPT46Pg4VgPQD6qjk7mbmtjT/eCQFgNpvtta1zjoANaowjIcSqgMHiJFSFU25WTfQkN8Uyu7qzv9FfPVnKdbsXhB+pKAJBZynY1fZFsVlrpZTOWu89EXWCRqnQt6VSCsB2AE+vB8X8j9nge4CW2wgMAwWGsYHctRu5EUbKjcHQyCV4IpgvJ5QKOdBQT6CYcn2Cfq6xUkmU51GvVU3tOYpNb0OZxLNoGyhaXFm6dfPQtnc3Br333vu2C5ZWdW8FL77yqUs/8xXY2gakI7bQk2CXy/pUDeLKlTuXtv/a134qG+xA1UBw7CtHU9NroAHz/ntyxXD3LjTteNCDII6fHs7PJvPa2QbTZJDqLFaGOUxPJ4WwbSYa13IAzcKgjAL1VFw/Pb37B79qNq/fLsP7337n57+yeG53f6vfe3Q8AS1aX7+0v/fB8UTp2Lnwp776Ob2YV8vVeNTf3Rl560YqNh6gtFGgGjlw4PNwDxaiAtaRgigGlpD1oW5BiUYmIggM0BWWBtlLoJ+NvFAsfWfqgQqU0VIZAJ2k/cOj0yTWQGoyXWDw5AN5JqqEBmv9ctaYSNWNT/LkdDKPTFouAqIuy9oYf//+/b2dXfABEfNeGmmzWq2uHFxp23axWN2//xAAsrxXVBV5bop2tlx47i2L1ZPDp3u7n9zYzHTpmQMzONeSUJ3v9RqY6YKVufMdxDzOqG1d05Yeiukcekkq9TCKT+4/uHr18qPHT4ejUeVCSviVT109u313L1ER+DGLqqi/urvTN1k+rWhahgriUd4zeWtD6ejmt76X+ng1oxvJcOu6XjVLBq+DBx+KstzZP/iZX/pTu1v7v/n665mcvvH//nb5wQPV8mbWe2o9nftnP7sdZWYgklKaJHfLyk6nRJQJ4NN72kjHoW+A7CSXIBaHtec4WCUEMAQwwIpBeWECqC6y+/9LJ/Tee7/WEAKSt7YrQiJyzvX72cm85B+xt1CpaCuKJfgACmBrpNkYnfe19FFdVIu6nFcYoAmtlgG4hLqAdtX4UvjGBKutaNvW1/7mh/DtD2/+w79/UwBoAAnQU1B66CuoPQBAAOhpkA4upUDuvWtf+AIkMTRVj1pgBxJjbHy9fPzBXBxP4lN998GRmk4Wp8cLqlercH0T/vtf/BQ9ddW0evvv/+fz1s3OVkbjvK0IglEohXe+Wrlm3rj5avHcKzdiDGqYQqR7aW8Q9/sivrG1AfVT5fz1nf3v3364aOk/+N/8R/DoCRwcQKZv3BlP59MXLr8QJrP9zfHB1t7jt94uHj8dMPci4+tVHHQ9nfs4W06Wm/0d3cVuEEsGSWtRr4qMSRPQEiCAUiAtVA0nsQc0zIJYAEtUJgIdZUHSoJdqEyFq56ComJvGoctY33rwYG97K42TzkAuiWIAaKqVkrwxGo02+hubo9n8UElRlq6x1DSWmZeLYjw0D+8dvXx9URVhNV9dv3ptc3ujruujk7P5ohruHqS9zc2ds1XL1rthry9ICkjyfHsjS5sVD7KN4WBEYcWOQyDPACTYd8JrwSCoi/5g7OIO5vO5Fqgk5ABGaS1kGqnlbLm7sRNKuzveXJQVBdoajB4+fTrK0kRzvaoipUPgVDheTqSHxGCD5IrCOusBd7c2l0WzEenq6DBLszyNywia0Ibgjqpitiw3Ll8F5iyKjx88ggqe3HsQDieKsW0toUbizvu2i01gZmRBIZSTGRqdDja0rJnps5/71N/+n/6VfDD0gpZtOR73ZyfHumm3VXz84R1G6jLcBV/sSLtlKJwHatL6MUAAEKXJhTzaORdCEEIBO+RgkpjBM3jv2zg2AkrqgjdZdLG2qqog0sYL0gLYgdSZPnhuNpBlIS/tXcrOVh/ca4rscNFY6MXQLME7yOKCfLa1rSzPTqdVEVKK9rEdxBAMGAk9hkGAHkPEMN4SIFkpoYzUkTFKR1KBFPttA8sCmD/ZVD/8X/0vY6FE1cjT0x/8zhQjCL27GIMWgAGkhU0HVwJU33nch3xgvVnA7uboaQKsW5LuE599TSZJ0utfvnJNGFNbl/Z6VdMGASwkC8QAQCg82FAZZrXRP7pVDTd3vvDLfx6entj5cj476714cPPo+PBb7+YSPvPlT12+EbXf+35y75YvmyRJyqZS6EUFI+fRuc04garG4F3nylWBUbAxSJQSRrAkD76CvOeg1JGHAN54BS2QSyO9rCrvPSshsvh0+uh4NV9UNckD24LKBpWTbLBtmpLg7tGpJMkkmQRR7cEJCjcOxq0HJexkPh2ORhIp+ProcMbW97J80VS2oFxvlVPe6G8dienybNpURWOtoyfLhl42w9M5VW08mRebG7uTybGGANT71jfftdPHu4ONzb5u2iCF5kQvq4UxqXMhUUloHYEMKKwMfm0LAcRo8riqqlRCBeBRORZlbVM0VdkihwDkmQFgOV9kSeo5LNoajWAgLYGpVgqsAMcQMMCaWILVYqIRa98qI4XzCqJqNSuA5HBQOcEyma6Kxw/uPXz6SIcgA2xuDKlsq9Z6IVBRvSwkYFVViEgoPQEwK4JsMIDWNvfvxVFi+vlrLz2XZzruJULJEEJdVho+vTsc/6P/29/3JgoYghIatewyQMgJb5EkBWtbF8exkFxVtYqMFNjYelms4jiO0qxq2iTJTo6O29YB2cn05PK1y0kWEdfDcTwYpgFmWZLPy6bDWAFBSWG01mW1igBSgEhEteM4yNPpqmrP+kcrDdFwvCNcA6sK6gakhslc+VCVTRQwihIE2Ip9zq2ywBISBRsatoTcYkwFkPOdbloASHZCs5ABBTe3b8X/7b8AovTJo16atVUNxJfiRB+koLQz4KRvqGobZgLZwmWRboZcxnGiqRBcFUXbQGOrWV0+v/PZnb3dZVW1zhsTEYplUUdRHGstohRUBCDBOWgttLI5vp9k6c35k5defglEXL397ioC3u5/83vfmx2dvrhz6frWVqrN2a1bxbvv5PNiFCUCpZNCMJqARitUMYgIGgWoWhA2cCxBM1R1LQSM0sgXSwCGutQQwAaQUVMsM4kByQF44Ma7QHR8ckKCynqhRESoCNCzESayYJu2VrERgDJEFGQI6J1rAzGFJ6fTuq7j2PR7edKP08gYrZPU9LbSB3duLxfFjWtXMfiT09I3uirt6XR69aXnTdJbVo0G8iBOJtWHt6b5sOe998G6GmyLB5euZ/ujTERHD8uqamMCh8BSEQpcOxIKBgzAAQUhMwIEBoAojUCCsjUBrcpiVSZSAmLQSQQQul2hQERgwQKQnRedLRZw5xhGFgSuwwios/2VBCiIEZmon2a1tUZgHJky+GXTYGTSNGfmJEl2RqN34Gx2NuHapkp5gfBMOkXnuS46KVNZQFWHtiXvrPeGfRLrV19+HjQCInt2daNYiijNeoPlfAWCsEtTXBsCkICAwG1TSZYtsu9SCSpvjImzNEoSZy1IDCqcnU2fPDlE4ldefenJk0dnZ2cbcqhiDRDyXkoAs7JAiNdO2wAKKYSWFUJiQLbwR986fvTmf7yooAfQA3hRw1dfhMujTQDyf/BH6v2bbdna2QpOThMWxkPPxIVzmwI+twk2QU7iLE5GOtpUehNVjBylEruYQAnnqdKIAsoHD/2TQ4kCJ9MMpSgricJI0dveRhNxqjgRbJjZS2+186psCUFY2yA1iA1h0oMoG/RDsrvzKrzw4qCsuxiDfDqtV+Xs6Woxmx89evrw/oOnj55OTkK5BGjh3/yzcWRkvv9i/6d+Et6+fe/uvYNf/OLwxvVRsd1ebvrRiE/Onrz95uLOLTddkG0vjUdt20rUzvpV6yQqCwHAz47n8caONREHj5GwFWELo2GMDMYHaAI4AjJQVCCDqVolpUN0gmqJS1vbAI/v3t++urW3uQ1RfDTFuuQqnEKaB0U2lBvjoW3apgjWOQpCaZH28ihCrosgsQq2XcxWtgQg9k4rfPmlF24+eoSBLwkZbDhcFg4jq8yyCYymatvD02lpgaMnk8lEiPVhKTHGthU5O+jnQyNOHx1NT8vZbDYyaRwrKSUQIwqmwB9Fvl2MyoCZJydTRxAF8AB1Ta1vTZb3osQgAzFQ8CGEEByRYwjsNXZWstjVGZwP4taGiCCQoMvt6SLxZquiaRrLTNIEwF6URHHUzFfv/eAtqczWcDyEsySKWxuSKKmqklAAkfjIHZeJPARvtASjpYSUNAC0ZVFVzWDUp8DM7G1oi0qA7CXBKBFp2fofNQjtiKPGGGWMJyICraIQyPtgdOytpQCrsszjPIqi3//93/+D333wd/72X8x7cblcDcaZtTaEsLOzE+MtkqY7o3VBuSoHA8AVQ93CJsClBD69j1HLyJB6uJLAa9evR148Pjr8g3/xGyvXahQZitQ1AxMLWysFyrVDrb/04oGVKphIS5WiyIBzhgh8cJbQA0gIBALZMaIEIEnEdSGkyiiouuoJEkLVvuknGWvtNQYlgiAiQCGklFGaoqcmuIp9UAakRglHh6eVTP7Vr/3OcvX/Ojw8XCyKsynMJsABJIESEAuIJaQahjHsJZD0IFnQ5sF469pzcHwEkyKe19/97W98TlOe9rANtbYJqnjRttMmjzP2flkty6LmSDAEiVrkg0qrIOIAwzDaLlw9LxeBI8+1CzBQCoiwauEP/6gOQed9bp0mYcoWGWoInkMhedmSc3D04NHewWhzPPRKPT2tvYe2LjgEMoSSz06OIq3iqNfPBwJ1YG9Dy9SAhJY8eU9Es7oKAYIHZPij778FDNsjyDYO8zjakNoVZaTiB0fzK5WNknS8uRe1YTqZFatqODSBZVs3HAJ5KIsiWIeSJiens1m7WHDab500WggO/hzoxy7PlZmJkdduSbCx2a/aWlsXZ5DkYK0t6yqVUQgO2AcGx+SBA5+r1EEIXsveL7CJTo8p1qlA55AjgUdWzGi0Yl61bdvYJMtW89Ubb55OFrC9A2ks1Pk4DkRn8AmdgYvs2i8AEDOFuqygLoECaA1JEjG1ZeHqarZcxFGax4nQBgPasmbny1Wh5ce4ZReTQe9Ix5Ksr+vGxBEAlEVdcKWkmS1niYqPjo52Nrf+1t/6W3/jr06uXrvy+nf+sG3azl2/bdskii2D9xYg/giYERCQhdFgEJIAmzFcM4PNmBLpNNm+1MYxl83YpJUTPRmDd8K3m73EeN9STSy0CHmStMhBQAgByEkihOAoMPk8js9loEQMEDr/H5JSsgI0MqIIqAUiECJRCOCAmFvyPlhwNlh2DoPfH20CCtSR9SiS2EmxWsH7f/h04WDVQFNDFMGoD6mAXg/6CYzzRDJowgiEFjISyggZY/NKfxS8zK7egDkvbt7Zi+KDF288eOf9N+/eP57MKcr/rT/7FzesmD2ZmBh1nHAILLyUiQ0YVLJEfatqKyGATPH45I27d2zlxgxbuXCBZkVtl4Vrm9/6v//90oYsH0Sojfe+XCTDrGWumErk0oG1ENpaey6XM86yqirzDBKTrTw79pHR5QoCekZLWAEaZs+h9dQqhT54UIIZAxMo1olgZnvCW5uAGg6XVc/Cg5P7j+4XiQHfwmdqyoa5YhXa8mRyVlWNwMRzWMynwrXYQlOs2Ll8I9kYjz98705Rgc28tTY1iXdBAYYQ1gGXa3/6LqITOivHonDGwWgDiOB0Urll1eTQTxWCR5QghZeSlUQhkCV0ATx/zEs4BE/8EdhIhBKQmavQMDNJiYTsvQoceYElbCcgWygLGsbQlE2k9LKtHXMgR+QRGJnWBsQUODigAN5z8BB8l7ieREYJ0Y9iDiE0lkJIogxMvL+9uziZFEXxbA+8uCaT6bYxUnROzaFjL4RAcZwiLouiGAwGr732idPT02984xt5L6vLmTTiyo1Lca8HAFEUdbKoZ399ZQAteSfAOSgARrH6xN7V5+KonB0itUaKdlFQaZXRCUEapTIObbVQQK2vMQY2FNh5boJDBoWosMsUFeQhMIbKBXkeX4ziWfaB8t5HSBApsM7bWnGArAdFAyAUChSopIJYCURJEKwnH1hKa630sdLYSyA8BRFgN4PBHgz7aZ5mktk3LbUulRJtwOAMiEyIfmwGeS+JyNfl4GtfhxBOHz4myWezyUaxdfz04XQ2WSyWVlSLxUzbViWpA9c2rVbIEgmhblyN6ulq9uv3pnMEuwBiOKlhDJDlADpzsKp82B/l4142WxVbcZY4kOzK2Wx7a1Q2ZeN9q9gx+ADBQmJAEGkpQEnvGimBBQkkiZDGspclrmnroiwWJQWQGkwsZCRMFLU2AKBncpZRgAQRKIgYihYaBxt76fjgWlks7aMPjYG6ADA562Q1XZZV6zxFSWwrT14ih9hgEnEvjhUKBWikQEQiBgDrHenYOYdKucDn0QFAgMy0pnB1kXIISsPBwd5GLHsybMayF2GzmDN5IrIUPLm2tZ6YWCZRBvwxd+tuJt5Z1XeJQUzQuREikLPWe2eiVGstfAh1u5H1vvSJ1OTZclVPZgvcFlpHnYFFp9ZDWkdZyi7+hbpwRwuuxcgAMpUFAJEL1tk0y+2q9E0dbABpgIMS2NQ1nscGr4Xv6yBoDIFd65Msj7VvnA/EaRRLo588eTKfzi7vHywXizfffPPy/sHXv/71t95+U6KLswiIg/dMpLXWAFrq5pmRvSIIDjxGIgCRhzzNRjJOCqud8JaiYVK0rZYKAoe6CswNNF7YAMKD1ZnwYL2kiL1Ueh0OIyRKwHUmCDoSoctPXaetoURExMq2BNS2LoliFmwFQ2hzTEATcCAG7zgQkgPZRdG3ZK1VJmLvXdMC8sEwswdlmmupI6VUcC1XCy1RIZK0g0Rl/aSXxHmcJFIicfCu4fZRMz974zvt7uXe6JJ4cf/ycGxePpg9fGfeFy7pXRlfjbZHOouvXx/e/OZvndx6pD0kCuIcK+tMbzxrm3fPYCpBMwzTOE3kVq+fEoEG4qYFN1sVvi60VEmS6bbhQIr8aj5rZXDgiRR7BGJvob+RdoeWNIsBiAKQaCMTGwlxJJ2tjRbpMOZcBA82tK13tiIFwdaMCgCRPGgjjImtp919Oj1tkhjS3tixlCaP+8Za6xFWpU9LD2jywTCv3aCwq2IigNIsHWdau1kaxRxcWTTz2SyKIqVqIZT3FEJwzilUIQSQ8py51hXLR8wRo8A20LimFmI8TFWkymqZ51kIrfc+hCCcJ+cDcyBf2+Y8dWLdDbqVuSNbCkBiQkSBQnSCgzgSLKUy3jMHaJtGORFFST0riuVKM6JUSsi6bVRkRPDU2u4HO0/IYybP5DfHw+BaiQy9VDQtAEVKBu+hqY1SJh9A3QIqWpYCUAvBfywXtfupd7b3Zov52WShjbSeOr2L1jo20cbGxnK5LFara9euTU5OgfmXfuEXq3IWRLDQuPPLA4TgAOTFt1USFIFvAgGAB2jblspmeToZx7goKkqN9z6OMvDBsTconac4SaWBpm4sk7UQS0iyGJ0UJJAlIhCQgxDYI5MOqvM1FywECgTugnsdQhzHTdO4ttVKiSS2dbOsVpnQDOyZPbFfZxVIwcCBmTlLUoNpC7As6tjDWALXjkoXJTjo97NhlEYmSyItJQavgAWyxCAoIAcWxAr6g9348sHzP/EzcHADFhYGPXh46xNf+uJ3H9x+9OHtPYG1ADgYKzU6+b06GEw197I0zkZehXi4g7iY8ekZQC9C60F4FwubUshVBMp4CF7QyRzGfb9aLXzjsygeDAfLatVaR4jKCOlBM6CHNE8I6dGjJ9d6mQCKNMRZqrK+5UZIb1IjmWVQQIJJBpYBLUFA0FJUAhWhAqqV0pGKgX1bFeUSegnWlZ2e3svzHACnM0g1/PDDez/84CaD7/Wy2aKwQeR5ulzUaRwZAW1DdVm41iIJhULrSMpaCPH/IezPei1btvQw7BtjRMScczW7yeb0t+4t1iVVLEqkKFKwDNgCBEEwaMkPkh/8E2zAL/pPNgzLbzJgGjBgiAJFERBJkUWWeKvq1m1PkyfzZOZuVjPnjBiNH2LtPKeqKHghkWdl5tr77LXmjIgxvvE13jQi1F3DPSi8u+UwIuxiMd5xR0sJc8Xd3V1kPN/IIn73/p1eTT0LHUxlHGVLQRIkr15996EX5Ph+KU5pwiVehpjZyQUE8uPhuNmMbHpeKhFtxql6PN7d39y+mFNL43R3fHTC/cNpsx+r64VY94Fa/QQgffXbL3/5y19+993rYTPd3d2ZmYjoWo8Px8xS8vjuu/fkuL6+7efqh1PaCQIEMYAA//2///f/4T/677/66nhzS1Ly+VzXBjO0FSmhnqEV/9n/5s12s5nK+N13r6/2kwi9f/eIacg5T9M0EJaA/aDPTIYIMMIxgo8o4zCfzjce63EuKR8OB01xXGYJlFLquhKn9VytuqUc5DJFhDwu62RjCnDPERVXQIOIGSzi3GN9xQBQbyeYx6rOaexzfHPQMAV8gQXMwYrOFQ4OsAWBRfLhcAyCsxTGZ9urj/dXwzAQBTNnYSFIokQg9tpWwKmTaeMiSYlMbx7vf2+zf/jq9fHrx68fD+auh/uTnj793Z9++pPf/3H5KG/29aYMvv6v/7P/9PTP/8f59VeHu/vjclYMLcn7ub413BmaR2tLAWJ59+OPPro/zjRqpDgZhi0OjnVZC2PR0+PdQkTMaSyDL/RsuLra8Kuv3lOi7fV2s/3ItCFsyKAstdXgmoiFQYhE4J6zwhlCQX5+mDdEKYmzcBm4lM04bjLFotfb43ffxo8+088//qS19vs//at/ePojDvz261fPbq9y8qXps+e3b94+hLWPXz4Txnp+yAlZ2GpjjK213W735rv7T290Pwz3j4er7W6dKxGZmREZyL17516YpOM4ns5nZswzXuzSu7u7ZNOwnZxQW/UISsIlnc7nedWrm+vnL2/6iWpmF56le0Tc3c/MyIKU6KKLTYmI9s+v3axWc0KATY2QtsPmfJgTy7quIrI0LVM+12oUJHj37m7abe/uH7t6aDdtdputR/yTf/JP/vRPf94aAlhXrCtKQgoIAUAomHBzNX722RcvX77s/sCqykKlXGyjaq339/cRcXtLLEJE+/2U5rkz1N6+1WXBYjjPR23rEVI7wI0WKW52e61tN21qoHCef2By8ZQeSgBfIssuag2CI4xg1NcCISKB4STg4CZGRtYdhGGMEHjPCw93YnMhgoEpoceAePTAhp5cz0Z/vjcPQIyiW+f6E0sY1tN0ecgDxVOkJLibxCFcmhGRkBMFC1i73STYDXBzCw7gEgK4sPzd/+Tv4W/8baTb6/3zz9OAsWCdEautc51bfojv7t7//PUv8/nur3z7ujwcGTJsJqbhvOAwL/fHQwA5ox8EBbwZh2G/Hyq7BJOtpEFIgAmaIDMqRQLHUrchJQ3i6azWVrw/3H313befjIM0hbkQiLgkzpJKwTBMCSGWGIlIwA4SopgcazF1CqSRE6eRiJPwcjhixfWIF/v9IPz47l5zHpi+eRM//vH28y9+Z10f3719/e7dO3O6vrlB0JCSe7HDfDqdTqcDsNnvr49L3m5RyphYQrQjD+4eJD0h0NCVTBeW1uFwNkfO2F2l/dXNRpQKuzYZRicHglMBMaVcSIKph5Bc6kVncnAQgOsXFBGuZmanWvVczRCBcQQzcve2RtLmdW1NawtW5gpo9CQQ4iRMpK2mMlzf3F4/3L97vD+dT9X0sJz/vX//7/7v//P/YtwMIuJhOWdrenw8TMOQKLm7rurOy3n55utvv/rqm2X9yxlmTIH/9O/9vb/1t/72JeLWPY1pXVrA3r9/z+FCfHh8zFnOp+NmHKexLOfTxYBCFV3W+JdK3H4SduSrd59QRhVwRFA0DkXwJeMqEJRM4E4QvsRfB0NSsAQlT9IdwztaEE6EPu7sufcCIicKMIWA8BRiFH0eDBizMms3KIvow54gRpCuK0MScWKRBGYemJnZrTuqO5i6WatTAE6SlVwdVZu6VW/qVkm+/X/8P3Xzj/7Vt6dl8+wwbGqSpmfTerp/rMcl5jhHXa7t3/74lofpo/WUxlhcdZDFodbcvQCjgw0KLPC7ZZ7rvGGHa1VtG3GyRDCBCCojkQ/OidmVSIMiZMRuwvXL51cvnlV7oKZhzgCDJOU0iAyWWSkiCXEEI9CzxNg5YZsGNUIqZdjO1d7fn3Vp77+GAlLw9tXXEXY+np49u5mKZNZa9eHhYVke1nUuJZVh2O/GJOMg3ERrPG624ziOwzCkUso4jFtwEkYKSj0i5ClyD0//4YjwS9bNJYA8giwATuM0ZiSioCgckUpWi+5Q5kGOp5RrDvRU4wCA3faqr3YzC7UPJ+TpNIfTos3W1ozM4J6d+FRXI1ZmI1KQMwciiHu0eK1a1SxQhqlsppTl8HgapmJmqlrXZbPZbDabNjUzTwkABdOQc29N379/n/Lww+X34dmf/dmfPR6P03ZTa13qOo6lmqtWDhBjt9989PL569evkkhYO6iVnCw0kq3zwoGSM/682ji60J76OeT9o4y+CGEOjhZuiB6nGhxhzhBxYutBjgQBIbhHgER4EIPInS3YI7ocsutAACaw95DtYCYEpOO/Pe4eDAqLMHTFyFOMWufwiRjgERZGFqQhRAgay7aTf8IMgMNA4eTrvBjBJYzDiZ0zSc7g588/+tW787/647ff8dvHwLsVp4rFsAU66zVlbAx6ZVSQUlqX0+ztWO3MQ0o2ZLoCVsM10DHsXUIeMocVJKGpuSkH4HD4Uw4tAQK+ZN6wI/swYLrapCnrqrxWdF9MQETKICKU2BNYnBkioGAJdoJvb7clDesaLTiI37757o//6OH1AZPg5S1KgS9HFvrs45uXL54lxjdv7r/7bp5PvykFn3xcPv/i07pqU6vtbCvq6YAWzDDEw+Hx66+/4fJjEahqJTCCzAIIFovwQMT3StkIMooPeh9Tb82awIMiJbOGxF7dg1az5p5TWVvVvl1+MGiJzt3A+4fH3g0mFpEkmTMzEckwtmbzea3ntWlUh1kzEmUYsQIKbwG38AhlpsQgkVQ45bWqesvbjZShmb9//cas3dxcMdG7d+9EZJ7nnKWUAqc6r3Aip3k97662y1JxOaR7c3hZh6UUiqjL2qyGqZlYrRYK0DIvbVnkxTM33e6uXfV8OvC009AwPZ/P3SYY+D6g4nISoq8xR1L0k1IpKodHgPrk0wEyIqUIQiK7YNUR7HGhqsOMzTkoWNDj0ILIOMDcJZAU8B4CyaBe8/bWlD4sfwoKI+9prxRBMLn4yYNX1yBiATNnQmYBiInu6ymi3wpPvgYUgDerJMwiktIwDXkolBOzlHKlh/abBa8FS+DdjEqoAAM3W9q9eEGpqd+/Ox2+SZ7YbrdjMmmqq7Zajxn+O3tcVfiKHWCFhoTj6X49PGwJ2wlpNxKyo1E497ctcI+5ObtPaQRzNZ0r7h7u/Lf1i4+n7urJgKuJOUV3+1QPp0gEtx4uLTXIpGQWYwmJAITFkkCAn/wOrp/tSikiNA3l5uZKGO/ufCiYjzidEY4s2G2Gc0Rri1AhduLv5eLqsPC6LO6YzytLDO6qTmBmhHZ76Euj3uGPQMwzJKMI0jCScG3tcJ4zt4FiGNPaao1YzZa1OdJpadoj0Z6AE+m9CahXax/A86cHxrGEcNlONIy0uM91nduilqbJA+Fh5hamqhqoYaviuNSXkje7m+FwtvWch2m3v8o5j+P49u2R87kI39/fJxEzXds5pZQ4A6zV67meDrNdJib+l8aZuL9///Of/8lcV+rUL5FlWVhoyAXwcH/96suPP/poOR8JLpQyS3NDNjuePizCH56EDiQBBCBDoT4QCSMod9PiMO81exjg8CBmCpc+BjUKR1wOSiMLDgbE3chyeKIIuFMLkghPIOPwp+Wf+vCQPAj+ZK3q5D0Aq/vLRcDBHqRMMoxGUHbALbxCyQ3A3BYATMThDAG5RAB48clLPAVAQuASII2g8/3jPK/frfg2Qw1HoIxENb4znM6xPy2b0a+SjGWSaQDq8TQjiVLM0XiZt0P69/6tF1SecZ2+/Pbtzw/fWavDkPY0bX0RQnNiCIWzeXJIggc8MAwDqihxeKiZZJSpQCAifQOOQK01apUqFvPtVWZ4MmaQQIjdWYiDyMwcTFlKKcPv/pUf3dyezmvd7m7WdW1tzVmmMUtSXZf9bviDv/E7v/36zeF+aQ3zUusyg6IkSqUUlhU620ndHbHZbT/65LOvvglmtOYaOhCrW0Yi6t0InuKMLkJ7cioFYHjDMtdzRmQFDUOZ5uP9ZrdZ2oNXUC5rVUVd1upIH05P+gFMWkoBQCC7JNr3u999rR7RobsGjpJyyuS0aITDDU4a6k6XddMM//xf/Ms/+uM/qbo6IhKd2/rt2zcfffTir//13wen8/nohGEYtpuNww9nWtd5sTbmcbvfDGXqxef6b8q1BvD89tl2OxkspcRJmAkUIrTOiyTy2h7r+Xc++5TYh1x2m935YTZ3N+0Zq8MwAIgfCpn6IkxADiRDAsThCEUQBSMCwdGLbRiF82WSITDpYAsHOniTrPdwgiiuBhtCAYRYUDDIQBzdS9UBGF1OZCcE+QdHR/bgYOoc4WAEGZEBnJKSrW6tra0u1hZvcMfLj6cgJ+bOUcrUifgxXSUPt/BmrZq2VZsbNZn8eqKcRiBBZziwlataNJWsWucWGTHu8yYVeByXMx1q3sqcAcrE2JT88TASj4fHWR/uDodqwFpPezKyUEdkCSdxKoTBwQEFQJGnySOqE9xqRBqwu9qOu5RS0gYiIoequiySZdHT85tnEj3NnLkX/swgjFNe15WI1OtyemApt8+udhZl2BwOOJ1rRA04iCXrs+f7K/mE8nD39uuH+3NKMK9mDsLp8FAl1dNxPuF8Ph/Py3mp52UehuvtlqQFMzOxegTFpSt8Uuj1w7APCocymLdVfZ7bucSY0m539eJ2+/P3b8s0mcfSfDewO7yqG4ekAF0MIPyC+lBgXpd+MHaN7EUaT5YjVNussTQoEMyQMaRUNCdypgAzJBHEnCDbkn7xi1/9+svzEigFzhi3cOD2Fv+n//P/8fb2ZhjyZjsej0fymOv8yWefHufjfFgpeBo3GGVZ6vz2XS8U/3JW6O2z6x//+MfVtNOHUuKlriDX2lpb27zUuqo1W2pbl/l0LjSau3nrn1zfa/7iIlwR+kSGeGoV2Qnc02O4d4sWIT3oLYg8wBeeOnGPWu2yLfYLxZc8EObRG53ugxSI1NtPAgecGNTPWY8nW1UCwqXnS0aQEQVBCU7xR3/86xBIRhowDRgTTaMwx25fiNF7icKSWYSYiN7evevDrF5u+eUzpeM6g6ZJMBBqgIEhb5n0fj6nVMaUJbSdT8uxLkPaEaeCkBRwyZl5s6769u7+3btvvnxVF+A2Y5ywnzZ2fLTAmGR1Y3QUl5yCHGTsLGYGRJQM5hZ2WvD+7R1O+tnf/GsEAmYEzFY085raWr/89bcd+pILxxkAILi+fjyvkYRAfJotl2G73TfF3d1dHgdmXtd5Hctut1Ftqy3Bfrspn/213zmf7tRmhrZldkOot4a2LMLYbKfNbqsR94/n6/2nm80oswmEOYUvSgCzw8OlVz5xgRAIoGWp4OCEYSrTNAyjpCFJSUaWS1FGDUTOKuwB6yaCEWQgCgt4mDsQXvIQMA82twiKsAgCXCqAyy2khrn63M7VzpurjUc4cTAILJwiRZAUJ1Pf7ZAUS8N9xS6w3SMC2+22lLIs54jQtbq7EJ3P5yHncpXdsZt2TPlwOFQ3p64Mlh4zbB2zAIjo5YvbYRiqrrUtZRyb1s5qIA9mbmt7/c0rs5iGEcSV4Y4gscYAC+e+tgMO9NAupAMiJCnqErDA9f5mOS9b1UQgDg9PlxhkBwUFi1syTl1LTF3eSARaTysxJSJJlIEkLDyCyU2SMDMLsYBwMeGIvhqJU3CACNLTNcRZltrO5/NpPi1rrQEDQvCTv3JVrVpbEZGF9tN4tduMJW+2Q7iahqq2tZ10Vgt3bHdX1bxp8yCQEEjVq0faT69f3X8y4fVbIOUhbx7uD5zy9fZmbfVwP5/sIAX+0VWT/H55vCnluKwry1/5vd+3cv2v/9E///lX90vFeDXmwONxoQOWNN+U7A5kGRBE7hwrZyUkIUE3SIh5PRKrkt/VZXb8+POf7F9cffX1q7/5N//mz3/9P7pjzHDXX/1cv/gxlhOGjACaAoGUwARz1BqHGcsSpdjVDu/erFdXqyp2u7TOZ85lP2xrbYm2h+Pddjs2f++q86mlkqeSD4cHr3p9tZuxDiJlOyTYzdW42+1OS4CHcZp+/6/99L/9//yr3/ts+3g4T3lkLs0CUtzI3Yk4JybovCzzojEyQK15HhIEudDj6c70cXu1qdQqRdrlbx8fZDNt9s+HVHSt58MBDuJM4MPxEXAhXnUlghAzk3AXVRCAbqFrGuqhBu9h9wkPh/OliwHoyZjQmSNNuciLl+PDYRkVz0dQggLTlDfDcL3bM1yE0u2z8/l8ON4LrNXlcDjsdldN+OHxvNTTtBve3z8yizBFlpBkJNVBLdb5+MWnL8/n04vptrYlyM3YzIi269LW1fLm9vzYHu5PrZWzGWCb3XZeZxDrys9vnhPQgEBzJPfs5KkBTABd8lQ5WCIomC7oMweMQUGXtLcUJKBwWLjrJYic4fvtDvCAw+2poGeAalXJaSw5pZzBZubW1DTnnHJKKbnQUuvxeDqeT8tcX7+OYcL+isbddrObire5nauiTGVEYpoKcxYeSxokS6I3X70iQoCYOVhARJQpy+vv3stYUirNY13m5pZSpjI8rCfeDi+u8v59W7SpLgDGYVxOx4d2SMCzMtze5mm7RcIcocdaCqbt9WZ3c4qxEeaKUwPZIqAEbDO24zRmsji3cFoXYqhAhDNzIsmghHh8eBiGjEzzukTGzXMcHtef/eKf/Y2/9fv/zT/8hzc3z/7L//J/t6g/ntY0jqmM7tFtZHfTFK6nw2Ni7K6e3c8qeVzXZT4dxjG56e3t9el8+OTjz06n03a7r02ZCzip2n6/CT2VgZv60tSD5mW15pvtOOT83etXg/BuKl/9+pf/+l//UcnyxSc/+dm//plXAeAEEoZkbTjN87C7XkJr02q1D5CISAaoCCeIODMTRXNbV0fEsi7ndWkWLEE5yzSNV/uS8rb56XQ8zaeLSTbRdr8tOZ9OJwDUC9Rwtz6iQObiFxjBQIHwnhGMpxXYMfEICyKzeH/3MIydvnypJkUgDGY+n8+7/SYiGJxz3kzT/d27h8d7ETqfa6uHZQ3hxLncH0+12+lnwEmRBspEI5jeffd2k2muM1MLWErCSZKwNjPV3fZqKPvrq+W//W/+h+vbl89ffjTtylw9ouRStMW8LhtG8w/VGSMkZQRFmCM5BEjd0cZJ6JIWTBwI4riAyZ1J1nGhRMwMZmaK43wWoVJKKQMRuWttqm4vP3m5trqc58PhgT1yztMwbqZhXpd5Pa/rOmtd1cwRBCL89KdXzc3M1FaITJvhZvPJMBQKS4mHkjKRa1vP88PpYV3n29vbH2C+/RJBw6kkJxiCi2zHobm1akusZ9eyf7a5niQ3aghfG9CWu6q6AXa7/cS6rEenm2G30WUgmdM0bW+v86aI0mab91cYHdP2NnOKpqzmYo+1oa2N/HpTmKx/RuBLZerg/XY/DNnIz4trwdVV2V8/u42Z2Enqb377p7/88pcg3lzdKui7d+9yGkoptdZ1Od/cXH/6yUe6Ll+9+gYJw26KsFaX7XaC283d1fH4+Mtf5Vrr8+cvD6dzSuXxcCpl3E7bLz7/ndPpdH//GOBxu62trXPNObNgEEmEOh8l4m/8Oz+1Vr/+zdfDbvKzSMb7+5MdcL31IQ3OOJwPi3uLgECYAVJAjLXf04zEGTBVXebQpnWx02k2AwXlPIxlut5fpZSebfePh4e11VJKa62vdjVjkYjureiweLJLI4L0aViQ9w+1HxkiAMEc7FD3CLiHEXbbfPPs2bAZj/P5/nBv4ZyZkwxDOZxPN/WqT92TJBE5nubr24/zOExzPZ/Pj4dVbf3tb7/6+//vP/ziiy0hi+SchmHYDOM4jpsh2b/1ex91F5l5nj00JVG3iBiHqc/ia60A/vEfvhvxbtr+8XcnXE347JP8/MVHwuWgFz3Kn+sJMwCD9hEZIM7sIQEEMbG7EyUOIpB3w0nii/65Z5MDHCBg2l+p1tp0qasQD0MZtrv9kO4fH5iRUkqZSdHa+vDwoFrzMErmaZqmvHHiZrU2M7NhlEzCzCTgnCSLpMSMUoa6rHfv3td5QfiYy2bc7K9u7h8fgonAdNkSLrc+j6WZLrrAKQirtuNheVxw89k1clRd1oqS8GxDtUYZfX5EAXa51dNCG3z+xUc//asvv0vzzWZbazVJcztb5Jur6aMXI+epNk5JSGWZ53WpDNtd72820+ntt6nvvlmEhFIS5gwcTvOqLU8llXJ/ru/v6ubjL6eb8uLlJ//L//g/xDhhXr959frq+pbysH32DJxg1hMgzq9ff/PNN0OW//TjZ9Pv/Q6WR6wLEmMc12+/IY7T6WBm19e3+aNPoYo8AcBmh7I5/Ys/MqU0jJvPP8eLlzif8HDEOGIs9Re/PB3ub2+ucbNHXd///E8i/uzbL9dTXac9dmWiwQcpdWnzqsPVFIuem5ujFJum6Wo7kZRff/mGSOhJhYRgdYV6OFrVXhL13mUcRyKJxFzysN28fPmyzktrbZnnttZq2hVvBMhTygqzLKfGRBTOzBQOFvJgoixMRGww9rAwsw94apnGFy9e7LVNu+3qtYw5D+W8nmtt4X1tcz9F3t3d/9M//J+m/dV22u12V8Mw3t48/xHvf/KTL//Jv3gD/HDMiwQkwtX/4e8+vx3nOjMjwlhQWyOieV5bDbWv5nMbylWfPbw+YQROM/7sV+1f/err//Ff/FeRUQM3I94vP1iECd7HhdxnFb2I7BN1Z0iKbtzIHM7gAIkjHAiziy1sBODPhpJK5lK6XinCF2vzaRmLrHV5PD6sq6fANKWr3dU43damkiXnQkUcpK61qbmKCGfOOUtKhqja1nXVuT6qDsOw319Pzz9iRFvXeZ7vDqe8ueosKofVCI+wfqwKLNHq/ng8n05ohpyRd2hszRuSSoIp1GJxzNUnYMMYeHn+Uv7t3/3sr//B793u8fo3+PHv/9Vvvnn19t3du3ffeS6EM9qibQmn0wlu5M1NUXKugcdl2e23ObSbsa+tLsvCDna8vL4iCuJSBqbWCsd+//Knf/33fvK7v/P1r7+Zl+Wn//6/n76ba8vsgutP//S/++/6jUiEcBXegNLDnb77H/7k7vH9cj5f3+y/+OKLWtO4GbwRIgS3518/vH379uuvXktOcKjFJ598tt9fH0/zr37xT+4eHg+PR87pxYsXf+33fvrVl18z3Kocf/Hl2zevp2H8gz/4u7/6xT/88tV3r76D7ubraQi1qg0Jq9VI2FyLpCIiEXSaz+v6WCsYRgozd0OkfnZ5zgA4JYpgONlqHLy2+ur0eNbmzNN+v93vc86P9w+61q+//CrcYQ4gQOgje84knQLSSQJEbkQIopQSiJwAD4d3H40AnU7dZElSCmZ+ImHGfr8HQEk6HqHqFP72/f2f/PKrRSMM0zQJ59vbZxz8pz9/sx8RhjC4Q/qJLBCBqw1l5JRYIEKlpGYqIsfj+fA4f/nVq8PjvNvSX/kElOj+LtYGEKYJpxkp42QgYF4+zAgZeGLM0JODVEdHo9P7Lvo/clAEBTgiVnOmEBHmUiRJuswE7g4PKXGRxAIzW5bzstRWIYyxYLeR58/3UxmypD5WH8fBEdVaLI1EZMj7aRShlLhanddlOZ+qKcAsMgzDixcv1nU9z/P93SN5pJTGYdhe72Uaq0frkR9tmXVtrVVvHroqlhXNkQfcvqTb58931zcvfvSj8vzTv/2fXP1v356/fVjevL17/c2XD3fvP/30U055c/389vb646vpdorDw9elpN3Vlbx5FxGn8wNJ9uVxfo9FsdvGfIJbiAAMNXt/OMwP/r/6W5+Lr93TwcygBnO2cBCC5sP50BYT+fiTj3ZXL1O6+n/9/X/07/6dv8Vp/2f//Df/4L/9h7/97Vevvn38m3/7D372s59dXV0dDofDwf+9f/d3/6P/6D86Pj78g3/wD968eWsW64pxgz/4g7/26acff/HFFw+nx/1+//VX9os/+bMvv/z6Zz/7NQXM0BT/+X/xH988O7969eof/eP//ssvXTJ2OwwDAXi4CyH83k+v/xd/9+/87k9+/OVvfvt//6/+L7//e39L/btgrAr3ZCAZpqt9PsznlDjnQiWF0/l4vD/UwyMSwQ2haNU0wVJ4ZlBikQhiGdQj3JdlUdXzvDZr427b1KurUNpNU5nrNE3b+0drta3qWt1hZhUsol38Fgh6IriBQBHVPMAW3ekGRMIcDEqFU0rEHAYzq6uq29rqy+3H3Qm7Vu82oYw4nefj0qqxWUSKkujhVDOlaTO+f7904hMDwj2JvqS03N8/LsuyalNtLEiJ53URkbrqu3d35/OSUm5tffZ8t1Qfx2htPS8ehrTH7npCnu7/+P3pL5Sj9L2iAt0o3xjmHOA+vrsc3iQGiT6YQfTpg4a7XeQnARzPp/NZ1xUUGEZME65ukrAzdeMPjUipDOM4llLevXtXSpmmbZoGEFVty7Ic5/Xt2zeU6HIIiDCLhSL4u3dvRbKIZCmU2QKntdpa379+p4CFabhZU6g7lPD4iAaI4OoGzz/ZvHjxYtqOkKQwX863H3367POfHNc4PJ7uvv3s9ddfvnv3jjKrns7fnX7+28d/9e7rrd2/vNkDyDlvt9u0nBPTy93w6c0cjHBMBAgMOJxhQE4Dpvnb128GdilSShmmccpllJyJ22mexm1I2pkdYTWlP/zDn/3jf/E/GfG4/yu/+e1v/+k//WdBMk3T6Zz/9I/fC338cKe17hLHL35+fPX1/3dd18fHeTt+kjhpLA/v5//pXx7/+GfnFy8Ox+Oxg2HvvnsPoNY9Rdxc36at/Nf/9T/55JOPAKzLzScfpc1u2w0wP//881f51ePD3W9/q69e/dOr3c9E5Hwc/+Tn364r/ehHn14Pm6syrMfzvJyq2fXzj+5Oh3cPD6c5IiCCkvH8Oa9nz8Rr89baulBmZGHOwUJNPRxqneyhYV5rna3trq+Op/UwL0Jps92e1rrdjEg53CEwUxCBQZxYErhFECieGMyXfmpeVg8AbNGny104Tmbeqq3r2uCS00STFOZErTVzJ2FHgFndswgkvX9s09WOM8uwybkEqLnloaS0cHQtAPXWsEjKqTClYZicUOtqFq21x8OROX377bevX795/vyzzWa4vnr+d/7O3wGXaZrGMYGCg/IwDNur7x5Pf/Ll//XxdKEoXAQQ8XQuGmCAMhSknTLMCGbuwc8MJSLiaUxuTWs7HeZlWdaK1uCKMqAUbEY8vy6lFGZwIKAlY8hpGsfNMGZJRLRqm+t6++K5ma2tPrw/zR1Ja01db5/t+4im41/WSTkAkQjnoQwiyd2XpZ7P52Ntst3WgFmsWpvZalCHBcoOz5+ljz59cfv8dhgGC22tqdlXP/vZb7+9f/AJ003zLER+enj99XeJAcGrOzwesJ3wcoe//iP85NNPGTSW6XZ/VYWTxI6fF113uyvz1FycNt+8OfzLn339cPBp55tprHVxBpkttabz+chSwAmUQg7HxYIW+Lt5+e5cf/WAI/Bih7//j/9vGyCAMeGgx/2AX335LQNjARGWFYHDkCHA2nDEcQQKUBK/+ub8Sn2PrxgYCs/VFbhJvNtuv3o43tLZyavjV796NIM5HFiBDLy8nf7ZP/smAKE+gcdmc4iIuxMK3l8Bn9zIBNlJSoiUWAZ5c/9NdVsDkklEONiattWHYRRHo8UdVa02rCmYiJkCrs5mRgwP7x7yr968/vF2Wl2l6piZUg4CS57ramZuaqAszDmXMqQ8nOvB3V3IjJ3cWczdmeelnx4eAFE4gYOdMYwTJ7FA07YudbGKRga7ZjKLcLi7SO4TP0mFMsbdtjU7zOdlXZNIodS8lZHCgjpfOUw14GZWT6dTXVXNVY2ZhbNISSltN1d1/fZ8Pv/yl7+52t9sNvsybpj5s09eMqNW5Zym5mZ0Ol1qz+9PwoA0WCOkAAOHtpypXI+5thXSaavRMxINHmbnd/fzaT084DxDGNc3eP6cr3f7LlOkgAixSC7SCUb7KTOcAkYgiiIyjYOIvH792nrAAYFz2k3XKSVOdDjeu3vXmvUZJHNiJhGB8MPxqBbTNBloNtfArPq4zMcj1gZK2Oywu+Yylc9//Plmv5VE7x/v9PEwr+da6+/+5CfH4/nhffvN+3aqj+cFCbgZkID9NQz4q5/vX370yRefvXh5NYx6p/Py9qvX62k9PT6spwPagtDbXOw8H05rMz6u3NaUHM925JKyCEeLMFOYQdlNnCWBuFUtmar6uSmxELATZEHV8nwcAhdIfithLQYKDdUqKaWpMAB1q2oO2wMJIEbnVX+U2RHuBpKxMDw04uHxsAcs3AKFC8CSLiSVIQJMp6MPqfQbsetuV4WDr0ejZR0E1lIax5JLYeoWM248DKO2BmZtXuc6DQPC6qpCkQpAkodhXo9MdjrZy+dbcl9bc9D1tFmbvXv3zkTyML67eziel2+/ffPpp5/uTucW+KM//pPNOHprAlnP58eHx48//vijL75Y13XcXf3hv/wjAw2b6VybEdUII/7osxeSy/v39/f354eHuLkFIzysqc3z/PHwycPxoeswmHgcRjNbluXh4UESHw6HzWZ3PB5/+ctfHk5Y4vV+uyspB8w9KPOnn330eHfvGtFUa4MFPAROBA999erV9movkltrh8OJRY6Hc87Ds2cvHg/H/X7fWru/vwM/tta++u0vtpsx50FSevHJF1G2H72g+W38ULefFlgwgqAGTsCQPciE5rW6t+arq2KBrpgNcGwyxoTnL/H5mHLOxIDHeT1noZS4jMMw5pKyCPd2ctpuuM/hzdd5eXe8P59O67o+f/GCRbKIMzW3qu0wn1QrBCKcSskiEWRmVm1tLQKkVj0sIICZL+6N8Pr93AhcsLvC1c325tnNzc3NsBne3b2NVgsVpRSZwi2CJE8/+tGPUrq7+Uwab9YV0Wpps6/nF7fPuEwYtyBZHg7fHd4+H9puHB6+e3c81/Phrs0nsiphMDULsiDP3II0uAEcFE5EkjO58UX4gSQiLInFVPskjUi6AigCbqiq1rfFsD5x7SqfzKmjjREWXWKJSEAGLpNphIV7uHt4oLXGBAoIkAiXORlJAGoeYdw3M7pIcqspuloTbAgP6nLBBDSDLtFg1QwcgCsrBUdQGJiYnRBCJhFu7hYOw2o2hZAI5ZxSnZsBbhGqLR6PQTyv7bQ+3j/eb9xqrR1LWVt9PB3fPd6fl+GjFy+vr68Z+M2vfn2sC5JspuuH+1MjWlXbss6t8TAYsRHvbm5E8t3jyQDO4CStmgaQnuRXThHkF2c4KmXMOZcyEkW4q+q6rktddzt4oq6+5cBQSkl7lrTdDaQenuCDQISRWYSDmYkE4HAPF7pcEFuWua5N1ZmYSESYJAmBIBGxzmdKOUxL4iysfz6aKTm4uSPBElCALFp9RXv3cF8NcwUUG8J2wrMb2YzDQGG6tubnVYvpOObNZlNKmsYSYULETJKklFRyFqHv7u7M1dVgnlhKKc9efpRzfjgc3NybKoV3xwQWGcbmzTzaUp8MFJgCIF5VKdC8D2V9aW02M8FioAHDhGlXeEir693xkdZUxhFpcE4hg0U0F40Ukm9uX84ztVlU9msNX5ssx8b5/u6URteT1Vrb8rhLq9zkfHtzd57nRdfTUddT/5AQ6DBeM9Uq3mCtWz2Ygyy8l/dECIMkMwmGT6WUkomkoTVQSizimXqJYUzBjMTgrjKh2AyDu/eRqV2KcqLgKWchCuIgVI/q0UzNDMHEkVgG4UE4S+og/rzWtVVXS4mmTZKUzGxptWp4kEaYW3VYQB3syIFCVHIuKXV/+0ssIQuIEwggYh44Jc4Gd1d4uKGaNw8hcpbEeTUlCmbpMVO5jGA6nE7rUrms87o21bXpeVnP87Ks1dQ/zrlsNs9ubt68f//NN980guTiaa1Ep4a+cMfUSHIQ0jikMrjQaggB5RwacO+afdNwhCHUuwYh3N0QwSRJvGn3/0tMHZJkAbFQBBFaqwuRaxUHBUSQRYaShpRzgogD5BYefUhA4XCLdam1amstJ2ZOIiIlBYcgal3qMoekti7TFaeUGMb4IKdFCpAkVnYzvDvjl7/+1fkOV4GbPTZbfPZCbnbbLSVf22Fe5vN52JUypM2m5CKZRYSICOQ5S8plzIUZqnqej+/entZ1LWMW4Sw5DZk5GeG4LDGfNcLCtFkNjUAIpZRJ6NyRxWZm6OTclDIzmwNkzcKZ4H5q62zggttPMF1tbm9v91dXaRhBBLAz/eo3v/G7+9ba3f1jNTueOq5WPr/Z/eI3v/3F6/lh5bUSOyYYra4rmqERKOFmg0+u8EiLL4un62W1Vis84gK/RxCvq7WI2rwqq8IFgAUxCRGou2rSk3kAEWpbI2Kt3pquwLp6a6iAMFg0dRp99/xhCGFTrJnWqovjickQwtgmcJCDWker1VwVhghjRkk0Mo8km5RKYhHiduZQMwxJ95JKppVattoSzKM6moOB1S+UKemBL7aSIcgCATfAcqEAIVoCE6cQSogKiIiTusEcqzkjRvMWkYSZfBwGAcy9jMO03eA99UzpLq7tNlAQzuMAYNb65u7ddLWLkk7aDrqeTlbDG8XiWBuqAqMVKQ4clmVfRmdZHU3Rwp0p5bLU1lSraWeZa3OKKEMcz8v5tNRaRaY+0sw57/fX/OZsHhwhiYW4JBaGu9ZlFhBTODHDk2VjZ5Oh5E6mM+vK4x4C4+7sjg8pjrhcdyK4EJi5Np3neWM1sfwFUngikKphQEl4PuCzzz77Yn+69eWjj25Aa6CxtTAtxM/2E9Fmf7WFaY9AzDmPU5mGkkuaj6fz8fD68fE8KwPbLV9fXz97catdge1k3ua11bq0VVXb9e1tMJAyE7dmS1vWw7kawGBCTokLc8DV5kXVYtgMAW8RzNKI5maLY2S4gErIKMhQ1LWaWXjwtN0fl3VpOlc0QzWMI2+vX4xXY+RvHlZ//ejnGZmwT+AGragVFdhtcZUJiebqdW7Ddl40tDUhkEiAg0JBZ7cWNDtWjxaAoyfAppQYFGhAiEQRysKZOaoyITGYKQFZLsHlHXFJgiIoCUVQGMQorOpaCSujXaApCGHHws5KUMfchchBNQJABgrRhnnLPAmPnERI2E8MEwyCDL0P6wAASKxJREFUK2lFqLqdGSFogepYGKthJTSCOzIwCsbsY9YhUYIHqcOrw321FRSzcCKLcG9rzZsxgsmrMynIVY8LAnUcRITEu6KawCmIAcp5IJLEWYZUhoklEycpg6ouTQ3kxGkYlenudFqXNgxbI6IMNcyK5J36jON8Ltsd5eSMecVSG4JVzYNasx5V3zOSqM+y3bvZWc45tHVIJ+c8ZF4tWjVdbMjMm6kMechZwjlAcAYlIRIGc58TmIZDuwBS1R1RqxLkEmPYw5vNYAhrFC6M7TTF+bwu57bWnFL54IDfF6GAOeUFzSoeA2++fcX3cVQkejNNtN2NV5vhijI7VmvNbT2fxqnst7thzO4+z6dXd2/n+bScME7Y7cbbZ/uScqC74txxGVdTbS3UAJSUp/0u53w4HDp9ziMsvLm7gJhEMoH9Ii3r9UMgRUAsIliQxQgr0AJjks9/9HzcD9vtLsAPx9P9w+O6mjqtisPpfDquxxOC0RS5iMg0Nz20dmg4VpwVQlgbfMEg4Iw8UNkVHsSkOXsinJZ5VYQ5MxTEHB0GXIMspBIpxLtynghMtSpHjQgwRIEUSB6kEhDX7t0jzDmhZKTA4EiBDJRABoaAMBKBmopDHCk6LgAHODDSmYilS8wMMJCDgEJgwggd3QbXQWuJlIJGtW5fkAJTtRQLd9CP0AI1+g+I1HODgAgIIHBg7Sg1OTzAAgVCAQYnlU7I6N0XAwJOGcTqONdmiuZWBI6zu4nI4/Hw7u798XwO4jQUERmGYbvdikifTnWO4bPbm83VXjYjkrw/Pi5znaopxbgbqyyHFdXB7gFazY/LGiBJUIBLJpLH+3lIVE1V1SI8orXGYPeYNpNINo1a63qe3bVP/xNnggRHSjyWoSSGxzovmRNgcA54BFufnARHFFV109YakZiZBy1z7VloHQr6sLqICBY5CedUNUcEM+csfzGfMBCuAYIwdoSXt88+H+ZnUT95ecu0EsyXRaMVlimlacwoaW3L23dvluVsLfq8MqX0k9+9IQoKmOt5Pq3r3FavhiXOUmgsQxlGIQ6z07zY8aSq6q4OB0IgRcowjamYeR+/VFXyEJEsKSfRQEQf3Uo383YCFT4tJ8vVyVvV+8fz4Tg3I5by/v50OqM2NIMAdcUs7bzoOLJyMkaM4JyFBnY1LHPDkEmmjWVeQ8+qV4Ixo61u8URtACG4ujUn46wQNZgkZxCBugSAgkJARgghdKGJEHSFUHWjC/+IIYIc2DqyIwcykB0FSAGmLmxFEFAQDg2oIYBJQOTGUKAqMmFIUMM0ggiFUCSKtEFaIXBITskZSMZCDJDSGLaVqI4GVEImDIwFUEAJq6Nk5IwkSAKJCyt3usLsUEceMJRRG8TF/HS3VCSAQEmoCIwV2hw5YMC8mjuGwY/nJej14+N5GLJpmBlTas0i6jyv69o2ux1xmnb7FliaBsvxNNeqy6JO2F/vTejuMFuguTlwWua56fl4DsZmj08++yKCDo+/MMSljY64eLrxpT5spvO6WOg8nyNiKjnn/NGzj8FDyrIZxpSS1vVwfDgfHmdbKbzTVp015xxB3flGVZtHa40p3N0i1rUS0bpWVU0ppcQilHOmYOGgcAF1QGSz2ZRS/oJeOAEs8ELYMW4LXuynj6fynB2+lilfb693pUzBttSH5Twv87s3x2Bc7qFNHoaScxaRuWlHnGptqt1HESHYXO8afGl6PB7DnKMLTy7YXcoMYUeo+em4uC8gIZKOKULQzNaqvtRupAlykoRw62pgye+P8xAY1qVWfTzMp1lZci4JUihrTt2FQOa2robTug7nfDzMx0eczzBuUTgxh9D11ZaZJRGz9xnJXEEBSkJM3IdCIgFOToYwBIKJxIicQYk95RB+fr0VXwAQNAtywiCcCfmGx3FUxxqhqTyuy/v5zJFu025wYpBwFKbEYHQNgDNzSolTBqDmVR3eUmqdRa+g5l7Nq7q6bbd7RiSEMApzom6ulchGQiaKgLlbVz9AeF5WBbVAu3SGoQGFnfWUM29z3gxpw45Qd23wWW02B51l3JXxWg3heU7jb75+x4qS4JIkZZLMAIcOmbOEeQAQojrHAedWUQq1Ws9zW7Vtt9s8lFprROx2u4jwpg/396fHAwV0raa+aHPCNE3VQ9LsgIWH0+F0XBevFcLY7fNnX3wOp2+//mY+z+7dcSYcpOEScMK8LvM8z/PsPrTWMkvOebfZPnv2RW3UU8ETca0pS0xZXr9+3W2IhZhEOBXJuQhb/6xUqzZhuLsDzdTd11ZVzb0bEpcxjwgDkdbaLIJoGIbNZpNS+osEbkcCVqoQ4Drh40FuSkzwZx9/sqzz4Xh+/+Y95kZEOkhkHm82LBAR5o4LYF6ru69ruwiiZbp49BCB6PXhcLFDJhJK6EaaQA/cMCAsui86IcCotaYxE7NHcClTzqfT6eH94fpmWE6nam1tUfYjMeYFv/Ps4z/96qvz3ZloLnkkmqoae8qcjVPe4nB8cGAzDVu2aZqkyNX+5RC7ye4+20A6ghqkhVVXASUFtWpAm0AjD9uptmAzBLzpMpsryMEODgy5pDzMqkZQ0OFw/vRm4zj99Heeb4bxu1ev6/n0YnuzHcb5dC6pW4b4xK7U9pv4dDNwINdVLmZHgcsHdQmXBQCsHc0egE1ikAtxN6L1CIh4kijd01GJgwMwsHc1P4CWSwBrZ2R0X4mIiGBk84C7NwpFKMwdCrotIwBSo3ZSNEMDuTLc6XBszWDOx9Xe3s/fvn24b2AgJyqboYJC0s3Nja8njUdUN0ASioCNXt6OJJl2NK9LgMaxOOHVq9cd/M5pmI+zVctItPrxu3tebL/fPrbjuN3NZstcj8fj8QgZsNnl47k5kAc5L3aecc26LItW61OWYRzBSTKiLtvt9rycHh8fd1e7r7/++tnN9YsXL5bTuTKvy/nHn3/yeK77TarVAZzmE9A2G76/P7F4dIfViKbu0dSiCUn42+/e7672kop6gLmZcsl1qcN2d767O5zmw+PpJz+5TlSarWnYKIiYs6TDvHzz7avTfH5afQF4kCQDCCjABFxNeLYfn3Fs2X/5618aQgzFZZBCSWJInmBUm7W6rqrm1vU6CUwspdMAPJg0HMFBBtUQ4nCAQrotVJ8ahj1ZjXT7jEugHFLK7lHbumij2oZpNA/K9ObtexEJ+NX1Nm8m3N+H2P3xfG5UY0ipuAzuOC3HeT0RnXe7LYC5OnFIq2tVybW1ZjXgUgJuYF01PCJ5a6bNBJDO4ocAAVHk5mvilIpwTlRVq/katVtTISTxNOQyytr8nWJ9e9YHLMvp+c2GA2WcVslqUYMKUldcBYWHh3d4GwqSTkr4YBp9eYK/9LAPUdVPRvT9QlKED8MY3fIR8RQzRkSYLykSiIi4ZDgDCOQUEdY9Mc3Mwhzd29eppyYFyJ3I4caIVPa7IXm+r35/8PcaD5BH2MQwDT8u3pZ6kutN2hcMJW2KEJzcDOROzQy9fCAKco+4uDD4RalwOp1U9e79+5wzqReSDB7zqECHUi+NCOAGEhrTMEwT4nQ6VdU4HA6uFy1Fd1Hwi7aAP1ikfnDNSCl1/R0zD5mZL74StVE4nOjStHWBAgIgJg5iDzjC+4TWYR5OsPAW3j9lBzNxD2PpHoPHeW1qmR3CIpJynqYp4649Wa0BSEmKWwVQge/e4ze//eqgczbnCSKceEhpKCQhqQmC9Lu7A8WFwceMnJk4cc6qFwdyCwtzC4eTw1L6EM8dQSAiRxCR2hM3zbtB4OVFQxkdoSAFwdTrGhpqIbAyDqfTUsZBhmFVGzdkjt4Na7iEm0Uz75HF5/Ockqg6MWqt6wpJa2uttkUQQ0YNOILCEBSuXbLMjEEwZkxTKqWklIZUrDVd67o2URfmcZO3kt7dn87L6fh4ul9xPAADBoAIp4JvArPnzWYzyvAgAo/IqRtOAh5koKdLBmz3Vx/Ove89xr4/Cf/io3vX9V2t/44gUIzD1J8Tf1iGBAqWp8yDCP8Q4x5c9YIfukPd+nTbEK/evu8wUFdrh/c8T9zfP3KZlsbvHs+PsxnGJUk0+0BxtoZ1scoWOQ3jMBQJV+9WcxbhoWEekVJ68s8P9/CIjs+1xVqzr796VUppzUSyO3LO1a21hmAiKgXV0R3sI6KjO7XqOvs8rwQRyQ0VgHunMfiHzHoz+/Dx9kUY5iLy+PiYUnL3lJKIjOPILNfX1+/u7ruF5wfERT2Yoe5P7KVobugRMeYW7oju0UkkDnaQBbqLhIanLrwlyjkz/8AEH0j9Rf2OSAkyjExGvEz7HUE42JSWZrXWE1klXSuyoBTKOQunPh3TZku1H1gA9ZrHge5S1D8IB4S4Z7JGf28d7KC+YXVpR7gL0TCkQapqbXVZTBfsX05lGmddPvni88iif/KnkqSagpO5WmsEIeKc8zAMpZT7+3sgiQixEdHFtD1inmeQlwGhqIHuA0CIcZDCGAtPha5G3oylFGFmBmug1tZWS4ahOA9pGMaXL0e/O9yf1/MJq0EaHFgC3y04HPDt8ri2h3mGaZc3XgYSfW744WkAKb26+N/Q5df/zDH4dBoqeqnpT7/3C7rO3z8Xevqd0J6w8A8X/YM/DJ6uuz/9qz69IJ6efPhBMiPipH3GLcilaUMnKVxNuN0P25FHiVFiHFiEVJXg/T4GMSWSfm4z42J+6d2iqHvJmGKBv3n7NjFnyVl4XtZIbIDVFk7BUgq0wiwk5cfHWQ21aq2XYR0zpZx74lO36mxuHThBsFv0LczMqOujIpj5wzCjt1dEzJRI2N2fqrRAt4V1N+KODIm25qZmYHLHUqu7q5u5c+J+WjazaspJcpCpgsSATmCu/ueuaWqh3aesELbX2N8+u/LNYO3d6d5d0ZyrpeZOWBJU4uZ627cTi6hmrbXWTDU+TKUv3d9FGt29tIIu1kdxcYkCknwP1H5AdT1iDlcNJ9bQua7nBb4CgbwZJef99dXv/dWfLq5IWFZdT8dmrhbdyVSY6GIeW3IZx82QNHXl5TyfmFk4PdzdtXXpjqDREAISg2PIXDhy4rGknDkJmdky+3peu2khMzGDIFVV/RxSROjqOpcdTaeqqZy/qicgEmR77bncv3v7uoUCYhfC7gfPD3n6YwB2afqeXvP/bxHGB3L7D9ZJAFNPvw2AL6djPwubX0p+f6r9gYuJweUm676xF4cTOD+5wV48lS9rnh0OZGA/oEhqqzZDAq5H3Gzpxc14tRkzOUUdECJBFhHwIIe3oEuqTETqJuyd0cAEGAcFeR4szE8zGL4Zmwm7NxL2kkzDwiRTzkhPb18Vp9N6PiMCzFAL07YsC3URvvvTMN0BgC87/trqPM+9nAhTd3/+/DmJ1KoAdF5aa2vo6XTq3WAEAV14Abg7QR3VHWpVm6oGkYNaU3df1Jr3N06reZDVqk4qidq6TswQaR7MfwmYYZbuZLgGDjPuDgedT6zz2TUC7BiDJ05SpEw5Z1m0hWlrrbMd+vViJtW42F50qx7qEEO4tUtoeb+3GNDoDqX9bviQwwzAmE+1zq01QwOqQhVjxn7E/vmtLmtEq27Hda4KSxgkn+ejgoYh5VwI0mKZ57nWutlsttuteTNT81Xk1LeGw+Gg1kqCOrgfU4JI2IxDgg8JKbGIuNu8LlobuYR593bstqqF3SFaKxi73WZXxvHaIxWLr89N/uyNrafGA7RdVJrRTSKl+1j1XvKi3uzCsSdazQ9W6ocy4c8/uo/Bh0Ptw0sioE/n10WCEhdr81T67nZJ4rpkCwCq8WGxASTohwlSQtATtfFD39G/vCEH0FBXZeBlxifPr4odt4UlmjcPQQ+bcEfJyR2uqkbVrDZrFhYxDd3NT4I8WMAMMJhLzo1WVDNHU3d3Uzgg5nCKsBZgSiU7mNx9GqWZ93LaFMfjUdXu75fdJgEIp05eM3yABQlBy7LcPzKFCxHcqrY8DF1rD8DMexBqSsl6OPElopDcnZnV3YKbOqQttbbWSNhATdVU57XVTgMw9Gp/rm1eDmPJy3qmlKY8IHgYhkJoPTeXGEC6eFXEZVttwdUBQyVIkkRDotSLnMXDajs/ntwvnQnzZUgIESLt1YZTN/0FEB6eAxJBBPBlqREhAtUvHMuL4X1fhBR3pzYbgsEFXiAF2x0/v3mWp/G8zId5+bNf/up+Pp0XTNc0TNvmR0OkQJBISilGSllExnGapskjt1brGhQIc3hkkf1mm5NNTcelUR6kbNZWr66uEJbJpyxTImhdW62KQtSD1agPsoWQMqW02Y28trN5bes6z7LZbjJtxpFUz80PD49Ti2ddGkZ9yp8ACEHCkyHBBXDg6PHnTsLL83/TEgSoSyj+/El42U1/UOF8OEiJ8CF6Pb6vMwPA5ok79f2p2BsDAwgWCMACQegTE1dPFwMUCHAL/PjF1aefPLt7vwaqt3NzliLEpBTq4Z57H9Us1KIFFOGBw2klAkmDgCVDwExAlFRcG+cgd+0kAWJT11Upp0BobZTSWEoLVPdSigSazbXicMDD8egG9W5bhqd217/3c2FyxDzPrbVuliFEEbG2RURUVUSa6qUilezeM36pBzy4uzmI0AItEOpVbVElZ4DVva5tbbooHEaOtal6LHWdl8rMy1x162ZRVS2g8cOWEKkLBmEwoDrmprTWqFquRiQhHsxwXtbz+fyuxqnh2RUSkWTp0RkeMVdzb1f7/YU1Z27h3S+W3IXliUQZHypWR6jZ95mTT05NRvT+DBNMO+xutpKZ4Ffb7f76+v50OJ3Pc6vfvv3ucT5ZwEBrayys7uphZqWMm00ZyrTZbA4PDykVd3Z3RM+BgJntdrtC0szn5tOqXEoetmur2+02TIViEMoSts6mVaoeHrUIhothXCJ49fC1tnlem1Z3cz4vvi95HGQzTb/7ycuf/9mX58PS2fWz9/MwYA1PViUXOx/AgT1gT8+lZ1M99WwferwPv+Mp6ZyeXvNhKXYz0Asq+oPcvyTfl6AfVrYD8eSshbis+b4UrfUdGtbNJgkeDmAF9sA2YSDsB7y8nvYbjuPbUUwj4BDyxImZta21BtfLUuqOjZwkIQO4e7sSgRIkg6RJTiKOoCQwJ0mZAlqrgxMzwlUx5B6lBhZOUjqS64hUhmliovXxUdelpXQJcYl+gzk+OEKApG+CdW2ttS64S8xgVrWeeQamZV5bMw+6u7vDh5SUH3BBu1eGhVN47wk71KjuTb2pNoVwhIe6OaKqkWSWHMQOaurrui7Lk7n3JaAMybUBlgTk2N8kMMswbXf7V49vHRBfpHnRcMATckKZJoA9rJuzXhyAhe/uvw/0YGaRJMwJ0XUc0zQ1NxHZ7KZlWdTbzc3tm7evRWTabsdxPJyO9w/n44oYsbvebHZT9crA4eH05u1p9zc225xmXcD06s1rSNpu8Hjw64+Gq6urtw+Hlx99shmn83m52l+XMszz+dmLF8t67h/h4+Pj8YjrazscTpv9fp5nB212uzySEZOkCDufj8fHQxa63k5tme/ffxeO/VjMbXW4aVVLiSVdSOvOEhIlD9WUVn94OA4Dt9P9sq4/uS0/evGiEp0CJ23namtYBDFzIp4ojZwGosLCjFmXHk4EhpB8eH46nEgoceLEFOQ9YcZtNxSz5s2rVXIKjkQJgiKleQsNDeVgSlSkiFC3xOuuePFENLPwcdjMdW2t9eqrm52RuS4noeScnHODVIdaWLjWlhO2o0yZR7EcLaxaODWqweQhQhFh3qpGVZQRwSKcMosGarPW1MwoXXaN2j2nVQENxpoaM4uwMKcyhtqqagAT1rUFgYOstaqmQBAHorXWe9rdHvPqojULLUsjosPhWKahlDIfZxDVWiXRaZmnaco5aWs6a2Iqpaxr6xlQHcsAU1va9fX1w/G0Lm1paoEkFmBzBXwch3VtazMw5zyoRb1kiXAexy3V06GlBAvaDJt5njfTVhKP01YtduMAvrAv4sMCxyUDBhTQwLro8bTaMrfEc0MIktkACuagoBTMOK3fU0+7GxQuaS9dNnjxRHQE3I0IRCppJVYYR5BZjUBKb+7urz/66Hw+K8VwtY0i74/nmxfDpuxOrb09HWtdy8BLBTXMupQyOULDu4uSasfEm3pwTiLCKU9bHseJiMZxak3XpblWM42AMABW1WVZpOQsKSJUDSm7t2VZLn22xToUyaLA6QxtdTsKQ7qzIwkhSXQjQ3fnEGGKRNQSITFzROY1obqkjsyW7ONAGqxqRJEJhXVkjESFgyl2vbKHXxyWn4YT1zd9L+teT0+8RIOtp1REJhHZ9r/vCERKiEgRESEfBmLEAWsRoeFwiOQyljIMKaU3795PpfPEtekSGjmXach52lDAwNUwm81NZ7XVNSSYomcUOtzZSRoTMhGZ9JYJRO5kgXbpXT/M06DhQQROxIqnJKBOiO3OCWzEiD7cY0hQgDKxRgSHW1AXMkd0N3L2gEWY920FvQNy6d8kDOFd+4VO/qS1xyGoi1z09RbcmvkPzzruMvNw6jFiCPpBxd+vUy9xIxDkHXBydw99ElU8pSUFEQlnVQOgjoQIMAnnnPnPf9eUIAHuM9NlweE0t/O6CmqGOxzEwRnC7JSIhI7HSnHx1OzqwQ9R9REIgl3eBITcQSFJRYho9qDwtjZz2223v/ejH/3ox1/86le/urq9+tGPfvTNN1/9+qtXu5vbWaY3375+/7A6YUeuhswgZotOqYSqBlwVdcW6NjMbxg1JDqJxs015aGtNUh6PD8fjSevah0Y5QyDLUo8Rm1LyMKxVqymDDFjq+vr1GxEW4jwOL25vdzdtXt85IyRRt9Yh6vNlcgeQe9AcM9yZu0NkYmmcPSic1annUUVPTByLEFEmzSIFlpiIWRApomMpH26FS3vsLcBB4j19vWc2eIhYEsk597nW5baImOfHiyv6U0fo7ggfxhxh2WFmTU/Hg9k93DFuMxMHWNicLBCJmyBvh5GcFCbav4e6OEgV4bDq3qqvyVNC6RNvTqzUMQBihnGIhYUBau4ReulCmEg4EcnT24SbwwMRMAdC2UmEnFkutTQRiXu7+JBFBNMlNQ+hhuDLCvhg94RgwMPphxPCPqazap2Q3GN3AfTNi1g6wY1AZAjvacSXK/cEcbFT55hA1XrUJpg8oOFmZg6zMPPQywo1CyIpZZzrjA6ykpi5B3EqWbDYh86A04dFSV1e6tQMDERhJwBi6HJPVjMDVYUQuIetPkFP8VTiRoRTd3D17vwRlCsnDZrNAlhgzLiZNr//7/xNSeRffvWTn/7Vzz//9N3D/WnFuK4P5u8fz82xuULZDB5rBqRkBKWUQqK11pPCKGDNg3gYhiBU1VKmpdXD48M0jKfT6Xg8t2VmCUSkxAha5loiEosUAgtI5lrtIglDHkRYUh72NzfN/f3dAwKrqQbCKQhuuAiWgJtxa05gBis4kYeQONSENFQNi9pSURWLQg23N46OOhqIyQiJmCkydQALAbghcAnCLRnETgTqySDkFBHicFuante1Q/MiyDkzMyWwUEryYWWaIcwOp4MIUkqppDwUDX+KqbZ5bbXCCUkgglWXdVmsnTkoSDxE3cODyYVCzTSiGTTAjDxgGD1nEg/v+vwklLJICDhTVYsWphqdlEFiSZhJSKQPTPoq0SfSTA0QR1K1RImzIBjC1J0G/AIdOgX3uUknBvUCEswNiL4r9W/cFxhAYAojM2Pu68QsSITFknmzcHbqsQxEF6PdSygqdYDsL2JjqtqRJBgC5G69XHd3axoWCIR1934qZWxwouDsEKmmWRV42jI+nIQ/mM0iJeQ8lNKGRC0LKGDsFuZmHgvMGZy68Qt6qyFMQsSgi/v9ZUiv7DAiI17NKpzcT80AsGGc0nh9df3xi3fvvrNwSen+8eE0n7d7Jk7v3z2shuvb6eVHzyTZnX/rC5a6boYtp5RSdPFIzsj5MhGBpLWp6hJOYbh792632c6neVkWXVcWSpdxSSy15b6fBUseRESXpamXcfjk04/G7YY8trud5IlSVnBtlVMKuIMuuYdPB3IjVjBBHOE9GiAokO5btUBTtIbWoA3WAx0bAoAgrIeqgsU4kLsAOL6vqbrzxbmBOURan/X3fyLHOLLDLWCGUDCDW2OGagercWlZ3VXdHdr6dqnMmhLKgHEcZSzL6bw6msOARJAOzgTMjIEehKUeGt4CzaGGZpgbVgcIEhiAYsja4MHMhVkkMXOWQrnU4zm6jBTosy6jBvDTDU6XAUBEn2F2hpgjkoeTZukt9AVQj0C3noZ39/s+ee62wiEioJBUOHH4Jbuin2b90HN3TmLhrTVV5cQkTC588fvuQYDk7E8b1AXYckI3HLy0X4Bbh36CiLzXwN7L6C7qRTgMaM3cIqU08dZDhThJqqvy0Jppe0o//LAI0VE7ACKSpOQ0pEzal9TF4NADZgYFNt3VFT06i8BMTwnk3ZiKOoTQtw2OpbVGFO5nvQCjhXh7dc05D+MmTcM3r98cDg+//fI3eRw0vHpQ5qvbZzfPnqvPp8d353N7d3d39WK4fKYGIDJzEWdOIGqmbjHPa1uswzCq2tPPAXY3CxDDyVVjhavqUn3aRBqGfqmHzRQk4zhGEHJe1YJk2F5ZOoc2gJnEhYhYOIEpwC2gAXIOhxv34koDh+YNlwUDYCjoKVGJMsEpghiEAJk7QNG6jcuHJOqnYf1+P/aesFeYT5h7zPPMkiQlIQ8ntVqbm8ZmGokDlEIQwcHGTBz24uXWXd1R7SIGP60Wa9Qa4CQTheraIgwlSRlTSBicgxHh4WZwRxhcL/6ivZHzhpBizs0WCYgYEqUg4sJwApOsPeosSL2zEg2mNTxZIMID7OTdLpPj8vbNO1ZsZsgSXQbJEXGB1yPQjQhJzUIICH+iPH6oP3uJqBeImPuaTIVba/M8i0hcCKOXuMV++hFRL+HdcBnx/5sefTPudIiOhnDnLTFzXH4SM7Rl1dZSmnLmqi65MGGpq7QWPc/9hyehoLd4nc9HfbYjQWszJyQH94k8sUiERP/p6ZKG5maXVNPC3+d69+6GAAs7h6lIX4SpJ2ULT1e7N2/ftnV5eHxclkW1/ua3X9WKNFlKCc2b+tqqCMbNxpeHWuuyLK21UGutgdP3/yNgmVcimc/nSlVE3GAa2hoTsYi5mZl4H9DSadax5HVttdnN8+ebzUY9Sh4fH87gKpx0WU1dTTfbned0ePc6IUJALiRMQkHCnNRCLZg9PJq7RJiFgVfNBgpzAoqLSBo4JZbQADmRwQMc7tonV9qU4s9xR/tbu3/oaKH/EJhxdzPquUUsjGAPMg8PPZ76dMhAjmAWEIQFy3oUgkgmkQhW1dZa1SaSiIWIVNFacwI8OQuFEvd0g47uSGYXYavmHbUnGFJgIMuOcG9B5gHuDkBm7t7MkbJEcApOZq22ZrXBLJgUkQA8zY5BhGBcyJ4XdiGc4W6ZkER6m9d9Ry8ZXsC6aogBXNWbdqZkI7iAP3xWzN+fhGa2rusRYWY6DaWUbjNx4Xn7hTQY4Z2f/ZeXX1x4KUxEPY6MqJfEkKAkpXELUqIwvcxChnGMfswCQTCLjiZkQv1BRdrFcRcCh5qt7q4KcA0FXwKqXYhZUiKRC+czCOFuEeShAMFpyBwSbBEc7J2zpESruRG5ojqcIQFnGcp0fDi2upwP5+n58OMf/c63r74+HE9Xt7d33x1r1cfDfRmw3+fdZiN1GYhqrdosmq0NLKFIitqcjHlujRmrWo2YBqEkIlJXiEhKQO2NwOVqr4tnhqo1XbZ7u769NndwSin18sNqPR6PnXJoqqclhECinEKeokjcgZQsXMPCo/cfKUJBLKN6BMzUIsLNnCESuW/bXcHAEczd8r2tF/fkC9fo6XE6nZhDBB8+c788wkPD1wCESVIqObOM7qYGtx4B6iySEwuxaQtcNkoRkZzSMJQpHU6n9bxW9YgLSei8uq1rJEhCFh4kZTCzcAkOpnUWUM4cIUzJJQcVgoELsDqxBVdH3/OqKckl7IsZERJqFmgGofhAcex9TC8sKXq8krtDAxKX/OYsxBAnODgoLiAiYV0ACZBVg174tEpwKRIXMmngCaaKCGvqSmEeERf+eBrAxJQsqDs5sPfAlaeCJPgvrUQmSF97IOJAMMsFkmYG9fM0ALVmZgFXdVUXhhB3dW/JOWdw/cEiXGNOEmJggCTNqpFIrYoQYO62AtYBPAUYIgoGkTCIKSExkYDoYa5OAIs/GZUGO8Cz1XXV0wx33D7Dj7749OX19R//6z/5D/+D/+D+9euP9jeo9ps//TM0C8fD452ktM642m0/ffl8GlPUc72/22327ERwjSZZHtd6XCuPg4W8ev+wErt7mCdoVU3g1loiDtOO8AkSzNTDwzKn+WwRyIOcHhfh89XNdRnLIWdOEkQRnkoyi9bMCBgzsfRs5PTExnDXOtckHRCOvBnNTImR8nI4dS4SC1uEw2oYLMZS+hcSxVOFCfdoTtHATBEYhhwRIjkilHcAYA7z73OlwSy8rqsQg2mpluDO0FYPD2sqKEmCyNVCPWsMWYYkYUoEi9C6YEanlW1229WckgylnOa5Lp4TWBCKBBZOq3Nzc689T5cmcUWttjattjrEWYgIpCxRigiloGwR1XRty2az6eePalM3J3BGEpzPCFJ0gOrp5A9CXx4gUL4kaDpgAbfggNMl3dbYEWyM6/2oHqoKtyQX6oJVn8OHDfMgzepcLxqozAz3dW2WaCpDF/XXdWbmh/OZIHx5SH8qebh/PBKJSEqJAFb1iDUiQpvIZaPvF5ECTLQu55JFGARnDs58Xs50lu7eouuSCCklhNXlyH6pbDvSm7qD+AfCVDCZMwgUlgid3Ec9KNYI5Jwux705MRuYRIgo0ZjCbDXr8xiLS0deVwwDNlsEYxgHI/YIFnnz7bf33707PTykzE3XzkPtO74IEiPc27r6umg1L2bBZhEuCtMQhSMkhxiJBzpV38MtSBiXnJoghJNT9C7FAnALRBARh5NptGbLsgRBVRkXxZ27mlmz2sw4ZXBCYk7CXYISFoFhHIUYThVqtZlDw+BkFsEfXA/paWekpS+/xMzQCNXaWmhD6hBLs9aAU2XGMAw5Z6KeVmuBLk+xvkFvxuwEkiCCC4LDJTx8d1vMzNxFZLPdioi7hzVOxDmruqlC0BStAgKsZ2eE2/Ewm+HqKo3jeDqfW70M2HJmAVGKHszZVCu5cTjDHR6XbHm34BAWUoN5SLq87Qi//KLoGp+gbg+CCP4wPIgnyo/H97bUH7hmiotTSA+1xeX1FJ2e5v6hbOyAKfgSWugf5DxPvaII7/ebUkpKRVWZWbWtasvacEmA4i77uEyD6HsJ2AfkkoiCyeniodgBsA8PPI2LiMDMwRHkpk/oE1G4himc8QT2dF17+nNN5w/Y+/HUbqbUh9Nd/QXu9g99JOqdAs8RaKZqtjStas0R1Hm5cMc4Yne1C+5fq8t6DuLf/OY3h3fftXUZhmywHlUXJInTdsJQJmaudV7n1Q0RVNVMtaPhEXQhA5ijS748qE+D8QS09bfgzoEewcgBgEydukl7UO/USdBMW1Woce4rjavauq6qnkSe8JFe29AlGpwSiDyiqa6tLnNzRwDm5F05djGKvSzF1mq6sG1gZq1GTxAohJzBGSSYz2gKj9VjTemCA3xIOrzcl9G0z4IRGqBwiUUjNtOAFqERpM1dg1TNK1CwmcgQxNjvRnNvzYbNNM8zqkVgyiDC7mpgptPs7mgWQOv6KyFiIUSYXnRqf77zp9acxMGRLWVPhO6dyhdj4kuL96RD7uQ4ig+V3l/iqfMTHHoZnMUlZCIu//q0EuMCI19oz72hCu7ozQXH+iF9dF3bOI7jOEaEqg7DkFJqHu6Op74x3LqFTF9gPyCs/cDC8Adj2IvO8On1T3+JC7XjglFbHxq4B11e8Be1oql/Lh+UY0Fd90G4TOTZCYgL3mQGTu4AcyJCOFlgWRYHzYtq9wUjSEYekEdOKVlt+/0+j7mTe5rVx9PKa62l6GkmU3d38qYwAixE8jSVnJIb1qXN8xoRzQ2LejM3MicLd0Ow0SWeDdzvy+jYMROFd+J4ULjhYpAdAVTtJy01t2jky+yE4la1BVNhkpwAN7PWzMy6g7w7iPoxab30PbSTQNx9npfTqc1nXK6mBJGJBAcTBSB9FXVD6AjqTlYRyAk5IwturvM4TCLy/v39ukaryBlql+XXE7kuJQlhGPJSW2IBh1aXTNOwaVazpI0kCl7bss5tbSAgDXj+0fZ6tz2fz6213fW+1no+L7v9eH27eXd/x8zXtzdMaWnz+TBLQeoD624WSBmA90GFhwcukia6wPqOaF2iDMurlqLMOUBEYuoBd4su48RTnUUMAn/w5/wLi/CHZ1d/NHtSdBA+CLmCQMTmrh+slvsRQtE9O+KHDwSAZUEpc68vRUhENpvNTS5ff/OtxsUb6gMu+kNE+gPo+sMV2P+yr8D+pSK9QvzQilJvRGttKV0ICmZuZhH8b1iETzXAU8rbpfkgcFh4L+DCLu0JNxfhnBnE7ljXtlRb26WNhqAUDCPGTSlTyTl3/o5aa7aKCEsx9WVdUji5J5KuSlaFEbx6k+bup9MJ8Pl0WE4HVks4ZWOsDSGOFA53uBk1RecyeESnNnHIpe8O763skyiuj5guRHsHVJuqwSgn9ouXFhGVMpAK0VE7kb5f0c5zfEJH4G5mDApHbdZ90LpJ5cWAtK94JxBdaLpMQV3DrqrOgmks0yRXu3x7u82plDKWgcxsntdhGKZp6j/0Uz7dJYR8GKe5rp0vqqtKkc2wqVatGmcWSPPWlta8CSQLb0q62m/zLK21q6v9Ums+5/1+z8wmTUSub/dMaa5pGBIVvn/fWkVrVd1JzZ3crFUn6oQs/uCsYQZHmKLHKEjTVDX6ARAXDpBf9mUOQpATmBkW1B3Q3C/1H4Cn8o8/4CIXBOXJcqHLWLoAun+k3kkUfnH0COInuLBvmvh+FZI/f75LKZVSttvtMAzjON7c3Nw8f/bu/X2tbWmqazWNrrsXEQERqIuCAeNesYJ6JO6HuvnDcEX60MnABAEJyJtWoNYGZO5HQJiqBqd/40nYEdRLmQ6+1NxdntxrPMmUszBIVelitgFVr6pVsTbsrgBBKpRKykU4MzPcGzOr29zW1nQcBxJhguTU1AtT4hJhzUwdBmiLeZ6Xxd7R3Tyf6nKqK3LAzu16ZDQnENgsXPvw2ow9GOgGCkSAX4QEsA58cGekdO1qUDhgFAG35hFwoYmYcyI3OEkq4zRls/vDIxFD2IP4wlRDwPue2dkY1MekAi49Io1FpFPke0Xk3sEtugSnOgXILMxAhJyHaVM+/uRqM6V5nlmMRHebqQy83e6fP39+8dezZmaq1V0tnJNI9NEjUZBkQYawBIWZaWhK6frFdUopIlytnk+rqTNRTiGchzIJ5SnP8zxMJSIejg9EtL+6mjYDUjqdHpu2nmxFCAlSjbUhCaL7tpM4ecC7c35wZ2lBm9eqzJ12YswciL5IunUgAJAEg0AwvyScE3rGZ+rslD7J9z4YJL9M8tCbjCd9yKWTNPRBf+fSQIhIyM38KRj0A/2lV4bzPHfH3j6uMLPm3evdnhTAF319PJWMvaQGQHSZFf2wcet2Nf2PvU271N1EEdFac21NQ4S7pXXPNAiK/9mT8OmUvwys9GlYIgk5y3babMbtWMrbN2/d0EyXuq7mVaEAMqhwKpLHXEqWFEFubm7dn0ckswXU21LnHISI89o4FydyZ+1FJqEbALlhPjWQq6J7IMwLJnFSMMeTdBoGZwsKsIc7STC7M/dx+IfWgsJBII3g3kkSHOQeq8IdGIIkD+PGHPCWhzJstl0VlXpukT+RoamzNi5C13ByJCJxwCLsqSYCS78OBvfeIxLBHITCyCzhpB6mmOuaF1+WrOZ3d3fTtL1/fLy5pmVZwXT88tTxGPce2KQRZohcNvNa+w3RWkspjePY7S6fmNypqnXfFDPblDJbNDVVPb173+eERDSOYzMFUGs1a3Or23FaWtPwZqEKCqREiRMoiNW6FJnYqc+awyLUIdzzutDMmzo1ZXYPy5n7Cee4oAYgRvDFVa5HOFz40p0xQ/E0ruh0sUss4VN0yuUMfLpR4//X2Nc1x3Ek252TVd09GAAkRVGy98qhj9XDxj7etR/t8OP+W2/4T+zDvjh8rbDDce0IXa24V0suCRDAzHR3VWb6Iat7GhBX4QnEsAFwMD3dlZVf55wkNTxt9DqYmlxrc03NlJY81i/3VxQMw3B1dbXf78J4gl4IIiRRTBug1Dd52zZejoLTaoFh24v5RSi7QELNQl/Dkcy6yEzC2pl+0Qix4HRC6qBlvEQe+v3V5Ytnn+x3+4f70zSVwzSfJjsVOMGMnDGbubMXSZ3kLA4txQBUt2E3dHngEcfjfHc49o5UgAk9rKebeTWaiwHmaehyX2p1wKXrXDrvmUqpVQn1BKaIZ0IZxYzmBJPDrH02Rm3U3COtdzokxjI56BKNYC8GMwxwJun6nUyFhOS+73tVDXYPIJQYFrLJBJyEaVUXuOmsNlWdi7tpEuu6KLG7QwI5xKgNKnIHNubUXAqOhxksP70dux43N/ri+cPdA1J3/HBbuvtRNfJ7BB0ppZRSJuX+OI1ziYJ6KTVnqy611t1Ocu5Slqr67vZeVUWkS/kBY4Mjo0nixhJRpoeHh5xzN3SnSW9e3/b5ltKVmuZapoIscAiCS6Wo1QA2XgIRg63dwAYlgAeIubqJuVtOQMjsbeThzjo3i0WFBbpvf9LcZtxOXVn+4ShDSc0FdIvGXjOSaJV9lA1NwH/66c3l5cXllYb9XFxwHMfb2zt3z10Xol5uDL7fPM/rm/oGjrMeLPsyVx/oHnW49WxdVUt1ipoZUtqkqB8zwlI8lMAuLi7MrOu6rqN4TRn3x/H2Dl9+/eqbr766uriej+NU9HgY57lSkDKmCiG6np5kuLi8uLpISUqd5nl0rQrd7S+qw4o6k+Rsc1VHnzP7WtTuD0cASlGGJ8TDw5GClDCPBRJqRbVLqEASVvViasQwdElo5nAXEKCEoUSJC7Aa9RhfeTMAlHSx4wNEcHGZ3H2a7XgakeT6xfOiVXI+nqZaa8r9ixcvU0rTac45v3z5Mmd5/fr1Tz/dhm6XV68+m0qElwZR86KeMs0ilfZESGaXO8kU+lznejgygQlC5L7bXQzGehrHlHBzWym4vy/90Oec6+kUpd+qwOykAsUoSKlaqpOqRglBT+NRRO7uP+AjDymjpYQoRUQkVtVVcXt3LwLVolp2Ay6vh0SZZht2F1VFUu1yTkzjWFVdpJfkCldDNS1qGjr/PebiJCXRiKnUYipiFBQbgyLQYiuksCsmIZGQxDOLoUa9zQ9jPcsUIdhYSYKZ0aJUwbl7IaoB6JXI/UrVUtVRcxdNVy4UJ48Nq++pqsI0TdPhcHj9+rW7j+P46WefiwjMtVR3Cjn0fZezFitSYO4R3yq0VJj3fYZ5GzS2kclzsy7ltGsQ8DoXd2TCRaZpOjzUXUfC6+1tf8lnzy7/djhsjFCaCzWg1jpp7SqKlzJr16Mb+PIVP/n05dWzZ33qD3cPCLmDBocwACZwSQAn1b76LkEN41hDPGe3F3U6oY6qZgooEq3zpOGYwqcxxADRJzbZFcZeaFGDVaTAzcIRWUbbVdb4cEFiLEwZYYthBI2NRocziadqjBDIK1DUp7nUWvuhG4YBkONxfHh4cPerqysA0bU7HsfjcQzJuqJWoQ4xZ12GHBuJEESA2EIpC4JlrMao0yXQlpqdI1XVqpyqlxlmEEEqmhJLOe+W55K2ODKriasXtZBy6kwgQfz9CBO/uqsm8dZuc0/m1QGrIGEKVTChKylTpmJCHedaplnVEnOZqxmEufHUzKp7jFKHOEGv3oQ9o2DTztLd6KTEWJEQK3e4U2Xhk//MWy1eMrIJIPSr0SLUxtGJfJseb4/WvWCL27hKjXFxUzkALnFwOBy6rpumKdCXV1dXt7e3S6deAFmbfovO2lkCLx6RVa4+cIlRHxVRV2CqEHOAxwwaE66ksJTV065GKNAmXVpMC+qklt0u9lLVctftLnrJCUIkGcu8sEVzs0Q3Z7A1eJpq6mrqOzUeT3U8IvWQ1ENEBVA4zTA3ewscrgUMAmow0oiuG0IHXhmCypGCmDIUbNyI6m6kOVQCvbu2Zc+1NYOLb26xO0ClJ0mSqy9TVhQoWh9O436/L6oPoVZqxtTVUo7HEWBK2RzH8XQcTwbmlLXOCgbfMhrSgeFEENu8dZ6juwMzIRKSLlX2VtZyrwY3KZVT9ak0PRihiqxR1lI2a8gSTx3V3ZUaV0ZoSggYOVVTIV2fqUoL/iyiy8IkHYlaqiR4tJ0EpVKBUt2tjPM8TehKFaoWj2AKLiGqaQ4jneGCaK6k04XebtYirhFpwfIBrJ2jOwwhOojWwReGAmyLU7kodQQYxdfadotaY9X4WT2GIWgbZdDAchKJEEZCTxFhKeXy8tJdr6+vx3Hc7/fH0+FxMxBbu6qlbI1Q5NzvXS1tdbPbePWRHRLz1LQsAhouYpjneS6PjXAbu4iEHkJC+eSTTz7c33S7od8N6n4cT0cb//r2TVSeRESFBE1mA8WTqc86e5LdxR4czJO5dgA4gMtOR10uoJg2zjUAhShNCdBS30mDujSEmLqbMYVkWNTLBAotEiucq8I0lt3LCTdXrvC/loy4gZJM6O7Fzc2dmIoeDofLy0t3qTWk8jwKG0UV6vM8d30fmnGBCAxAkINqrgY1lqWPoapNxl6ajpo1PFYTvwLOkZJ6nE9XMRXDrGj00tBrXUAbjbAZBVGBgXBpStptVCVc7WNGKNVEzU0tKgo5y9ClJDQ6ovHkMGT1RIq60qkVtZ2Je8BOg2gX2WDsnaTRKLHriZHiZhAJspFRGX7JYc0PaoQ8bg17uX4kJFIZHfxWURMPhGhrPpgRcbPcFh/Ilg5aq+IgglXDR6WTxb2aWbTsApMkkwSpYqNgcM7cjodx6Rk+ahKqto7xIzdOrv369X+SdCJnJ6GiIhu5yqd8woW1kYC+7wdJQ2ZmF6uR5G5/sdtfFNXD3eGnt296zerBPm0DluvCSh0nB8tp0iFJTsPQz7thODwUz3DIVOZxLDrXXuHwQZtPAKDuJq4BY9LGz4qrHNQoOIp5Wgpf6qhw9dVYWxTqONPPlq31fDMs+CLmTqgt7kpQTY+n6e7+cHl5MQxDqdPxeIrC4+Xu4sP7D8fTNOx2wzB0w67c3ZtVcweyeQg3QB1qMAMdRS3RuEy9sSaF4HRRa+KOFk7YUM361MEUqXpSl2gMgASlW4SxuHDTvSmgxebLRsCDubq7uREBszw/wyetbYCZe6YzSTVx0iVFaAFxCCF0xj6TkGAE0VDUlMTUlTIBBtIIE3dxBB0J0orGIT/RhB2CDbEGcs2eYv9xcYkINsQKhIB4XcApLkuzHeLGJIuaY1hdY3WyoWeCBs21rhO0pIYpU5hFQZdR7zCTm5sPr169JLm/uDweTvM8rpQxbBgYrspQChHxqJBTCKYVw7RyIs0iJN0qV6K1U5FzJmFaEkE4EmNs05bMtGjMLDSNnJkzM2Fms+Lu4b4bsrtLTnnoX7x4cfvTTa01VPjNXR1FXaUyZTVMY72/P+owEEOXU0r53fsP6BLIWutcis0oDoV2uTMLrXUYzRwmBqAUddcqUunGNr0hOaHmja9ltsiBRU+p2VirXK7tXWn+MdLC5gjdaynmZhBDSugkOzGVeZqmkL6b57lqja2xmq6dpdR3JKt5mcGYT+ai7g3BYzTQwxNKTE0QUqIo6/CUbOk4tZpbSzwIFRihEexJiPYyOgHnXZ2BazIzpdNFCIZ/qMtbwINreX52+DTrSrpBCv19j3qtSbOP1lULD57CQM7sbzJJDERsibS5ebXIAat7ImVb+YuIoLEg2rlLO8HoxsJBWwO/CN9Ia+TdFW7mVHeyVVdbP3A58LUusAxvC/at6nl2RfQbJMHdr68vzezy8lJEvv3222EY7u/vD4dDNGyWd/R47SoaHOFhQKfjs/T9467eJhtc4T5raGqA524T63qUuVNKj41QhBaStKimU9XOYKz7F1ciOBxcug/F9Drny8vLf/jii7d/flNrVYdLILACYKVDGpwyzXb74VCGMkgWYhp1HCuqSk7VTevS6BGoOVtvE0YzohLimEIYR9QSTJIDAvHW3W0QQltaKasOz1nMz+N+cPWEtnH9DlYt6s1rQdCJOFNRP46nohWwWuvQ9fv9PgrWLfYG59N0Ok1uSCkWaNw2cQ9hkogHPco1W62XcH3rrYlYdPmyqZa51qpaDYEvibGEVdWF4dMSaITASY9cLtCJaEgomKGNunj8MFhRiHhOTDmnRBFaIFrUKG7V1ZBSLTqLy1zKMGQDqrbUzg05wZxM0jCb7tUjGodb1J+94fKabneEh0u1jPQQ/2pFAG+HzXYaTMSXqLLR0wMg4e7i6zApeJRn2AJMAC6NXQGHiYO1ehWIrEYYI0ZsHOfAb33++edffvnlq1evvv/++9evXy/MAbp7rWcQttl5dsU6zA9A3w9bJMAKkQt0xPqIHMQAMw9pbEkeJLafR8s5iQTzSIFadKIJa/Zy/fwKOVG1y8Pl/rrvd3M55ZRKjO/xNrkyFFdFIZJFctH5cKha6tVu6CRVr5AFAm1ecxXxnchOMqbqNG3Biigbbm4uCsAzzGNeEZ2O1n+JgNXXNGCTnYuvmKaQmkRjxGCNTF2cVmqolrS1ziSRCbx9d/PyxYvdrq/VpulQzS8v9jn3LsfUdw4cjsfD8ehk7qLRQrgELnKtpDUXJ7GtSFrExHxjhFG8cSCWRy1mVWuFKooBjgrQqYs8AQ3WOmYgMc1IGSk1SLcq4rWpWyehr/VROERVQ60lJUpKwmWETjURuEIVU0JfjfRZLRmLohrckBjypE4HJFvDZIuZBuvPHb0slJyAmHgbc9eIrM1mmip/bLzS+BQpIhQuchU4U7ZayTuQf+ceXdtsGRWd1QsqzhutKooiqSFJLNFUYRmHh5N00/39/fWL58fjeHF12fd9f7HD4WHxhK7wQDisDVUixPXW0ovn1Dt0mVTxyPWFT9GGawydNJipCLQ2RQBkabit9WYRWaeahYAPxFy8ywLzIaVTRXVB0mF3eXfzgbPe/O3dX1//1VzQ7xM4m5rXGC8xnqB2H/wXEeTEQjU6BSmLu+tUYJbUXa0oqs+7nEMusbVzWwEPfXfG13u1SL4VWFd8uxtNawTVkuMpJF/P9dKtHxQTlR2YYh1HwAnMhYLcDw/H8XCaorR19zAeDzNoOcv7D7dv3r0vpRgIyeNsZtTqKUmXEk2rzV4hRO7QdTBDNbdawnlkYhjig7ZAMbRJqiW1nBp8wCUKSc21N2rOuiTRKimYC1hb5V4EDO2MzGnasHp84ZFQhz2YIEKLiSZGVXVXghYomAwFDlPpui51u+NpUX8aSKRarFadMIWjb+fDJNl6AECdLBCyUCRzOKigIGcukjlR7o+eLvo+mwUNV1d8CSCpy+4uaSkBqUZYm3M281prQ5DFe4kEFG5tG4aFhMxRVUyFYpJTSgRM1Wzy+urlq0T565u//cO/+/I//qf//E//9N1cy5ubd19+/WWW/Pz58+//z/eWbSf7nLNWv729Pcxz7ljMpwkXl+nfvHw1He6ldT4lp5QjfyYPh0PI7UvuzM1Va23jAE7Hmglhn0SS7ObJkwzA3JYytAW4MaEtgLYVzJSH43iailW8f3/7r8POPtX9sPvyy6//8q//3Uht8NkU15FEoiyKCOakNqoJkkbZ2pMBjoC80OHudSF02gIfF4dSQlXLoHQJR2A0OluQyfit0agUR65g0/zwgDrBgnvDJ4X7KLwlkSYREZGGC0G6QRGHIZjKCiWh0NBoqaF+GaPpxdvuuyzMdRufYwmydeQR8v/L9E82bGDs8dlIMaE1gGQkvVFc05bLWqtFtPRXkrQhofGhgwcLxzQZCWl9eUmpS4kuruPU2OsEXYzuTOYUmJ/NXlrFE64uxtCSojBZKDqyTU3AR5qRCpgxBD/bFJqWAzEKvQE98yVY/TldHWv2CFp8xYTFdQf15St6v7LuuecAuB3Em5tTIJGbRKdkrjgeTi8//WQYhpevPj2dpmme39/effb556XWZ588n0u5uLj4lzfv/u2rV+5+d3c3q0VF0I25c4fcHR6GYAvwnARi0Zog4MI1Fm+uxcwNFlJ9ECToAkVe1g3y9jPYSuwHjsfj8QQYLi8afv90nI7HWRtTk2sMEFcvpeSN3W8wD4AvAJiQFEfMdReJgby0huBdmz/t1OvS7o3hWRbSy75W/M7HNChd3YzSaJNAsLYiKmgxUJtTFG0j9CkhoUl0iizDQprUpGGJL5fwo6vJoSFlGX2FJaD/CD4KgBm6jC4j59QJRRC8x2USERaa7xnj/ygCC8TT4sm1RUIro9VTSk7BQj8FENpgjUgVtA1W0snkf+ckHy/cR98uJ3bGQjw+T3/8vH1VqzlFVbC10ShmJsJzMO6/dEqbbhsAUJayzM+vM7YWyNUmtdkFFK1J2RaYgDntr6+mafqXH/98mqfTXH71q1/9r//9P7/65qvf//7333zzzXf/7X/84Q9/EOP9/f041tCdqQrCU05m9vBw6PYX65a+EBHPbXrfkJ4CJBvLRiSwSpYI7/hESKp5Qt1ciHX95YxOsN9fpdSdTqeHd7fv39+ZmXJLXAZiWpDIOtel/apV1i0BHu3dhrWlgCtPzBp8Ho5W0AMamTz+QjVrpIj4efst4KG1TDXfnnw8oq7dhmAISAYfJKXk4tvOT1vKGtu1h+LQmmCrppBOCjfaVq0/nvK4eZAYBl7vL7s+9SIpJS0lVKokBYOUi6WHYqdvL6Ytfm8TWkcTIFa9S04ruXZrIcMgy0CmSEi0hFRX3s6HWUij5LoDkud1/GRreGyC/OjnbVR3960FcmECtF49107xmZr0C/tCW9DucPn7NvvoJds9Zd08gJUTyP1+OBwOf/7hxxefPB/H+cOHDzc3N39+/ePXX39dtf7www+/+c1vdrvdr3/969u/3RyPx+vri9M8zZPFnqmq0T1SeFovUBjhBqPzCK3Ddk3irFRVCypcmJ7sRHnFvOq5yeZG7vrdcGFdTgZ/++Zdhouj2w317mhYYQ1rd3KpT2+uSOQmS8s6Nqq2IypRN4P2FvxRPHO5tQ7QzUJ9GUHYfHzFzVAXPKwvMNE1S2bIcgTRVqIwKJDAe8Oc0OY9AI/JwTRfGdOw6ITXtlcsV5QBHOCCOeaC/CCcyAn7/f758+fDrhtSyjmX6XR3x/v70Hw6d3k3Zf31IFbtmcCz2t6628uytpd1vyxcWe1kAxTamN9qeI9gVhtP+Og0Wqnp5x7bH7/F3/WErVexdhGW1aG2bvhPNi/iyXmHBuB56gKaJNpmDbSyjS89jEZw2fqSdv7x99+/fxh2/Xfffffy5cv379+b2c3NzeX15RdffPHtt99OD+MPP/yw7y9qrafj9NPbN+PpxAxSTpM5cbELXXPfnrNL3Auu240wqOVthYjERDKUCqHmpa2/MUI8mtejDSnr7q7qprPOdMlDkk6SUFRhEWzz7AvI4HHYshraxUqASKiGk02bODq68CV/i/BxKWMGwyVO8ex8tlzPVfsgSsB1efWTSozk0DsgBYzavEimn2/Vup0FTKlWNNTjo6BIz2tmiRfjYzLB5efuQQS73e7qer/b7S66ruvTeMjzPB8Op2Vo8YJ08ebvtY1BR9AeNdirW/7cxiBpjxBtDR4FnWdfWBdYelHJxadp3Jqir02tzTk/8YTL6WH12L/gCdcrub5LHEfp3+CrKH1D7f2iazv3RNuz6Mei0e1Gdj5oe31DEbm7hyq+092Px9OzZ9dmD/NU/vSnP11fX19cDJ999tnD8f7Vq1e//e1vo234/v37//CP//53v/vdH/7LfyXZVJ/bLt+0XbBew+YrCCAYnluYaRNbCd1KilczwBUZrb30yAixrCyLArK7G4+H0eE54aJPnjt11uNUyiFaKZANkio8Sa0NKdsw8B784SxZFjCzBz1uuZBRidlGde4sS3iztbcnx+c8iqIBZ9qk8fHbJCApee2OBvcEZvXMUYtUvjXEWvWSZIpFkAWAlrpGFOsBNlXcJw9ViEjf933fD30/7DorNVR6VjzTee1CjefoZu07t5F4Cyxj64RUY6juOaKmeOgttgEhKaXE+PLlZq+esP27WNrPbMm3H3MTTa0b0FNP+NT8ztdB3UMoPqqjLaHg37Xltqy5sPUAkFKg0RO2tSe8XMHVPjf54RpPRU9/7WTBHcfxNFd34vLqSs2muf7zP//fFy+vf/zxxz/+8Y/Pnj1jRUppnufXr19/+PBhmiZVoKLv0PeohlKs69YZFUt1wLzhadgGVph7AgEaPHQ3E7NaWS5XY7Q8MsJNbeB8W45H319i6HvS7+4OKBiIrktRwRM/q32geYwQmfKIALkQrjJkrVy2PM/WJL2V7BeLCgcpzgWP+6T68bMfWkDA+Mj82jdJQEJiYaJ1ygibZjxpYNj5ZU+jerKUulrgqlHvjv5jzXEAtbbizWIPqbEAWpLA7dLfeF2uUbQsvdDlsjwiyakqKWvSFYpSJLtue1+XRjJ/ye08scDN8aNqjf///A1v4XFcScei6r+Jb6NF8Xj5be/tuej1BIT50Ydi4wPxMR/bbKWxhJJI4MXGcRThw8P81Ve/GobheDx2Xf7LX/7S9z0rPv/883Ec3759++7du3FUVTjRdxiGAWUeT77vlmxrG1b4k3W6wkebUH/Ifi2tBD7xhP8PmpRvpg29Q4UAAAAldEVYdGRhdGU6Y3JlYXRlADIwMjQtMDYtMjBUMDc6MTc6NDUrMDA6MDCRjo2aAAAAJXRFWHRkYXRlOm1vZGlmeQAyMDI0LTA2LTIwVDA3OjE3OjQ1KzAwOjAw4NM1JgAAACh0RVh0ZGF0ZTp0aW1lc3RhbXAAMjAyNC0wNi0yMFQwNzoxNzo0NSswMDowMLfGFPkAAAAASUVORK5CYII=;" vertex="1" parent="7">
                    <mxGeometry x="450" y="106.4" width="310" height="173.6" as="geometry"/>
                </mxCell>
                <mxCell id="14" value="Check Discount" style="whiteSpace=wrap;html=1;fontSize=20;" vertex="1" parent="7">
                    <mxGeometry y="420" width="170" height="50" as="geometry"/>
                </mxCell>
                <mxCell id="16" value="&amp;gt;" style="text;html=1;align=center;verticalAlign=middle;resizable=0;points=[];autosize=1;strokeColor=none;fillColor=none;fontSize=20;rotation=90;" vertex="1" parent="7">
                    <mxGeometry x="300" y="350" width="40" height="40" as="geometry"/>
                </mxCell>
                <mxCell id="13" value="" style="endArrow=none;html=1;fontSize=30;" edge="1" parent="1">
                    <mxGeometry width="50" height="50" relative="1" as="geometry">
                        <mxPoint x="40" y="420" as="sourcePoint"/>
                        <mxPoint x="380" y="420" as="targetPoint"/>
                    </mxGeometry>
                </mxCell>
            </root>
        </mxGraphModel>
    </diagram>
</mxfile>